SplineFontDB: 3.0
FontName: NovaFlatSlim-Book
FullName: Nova Flat Slim Book
FamilyName: Nova Flat Slim
Weight: Book
Copyright: Copyright (c) 2020-2024 by Wojciech Kalinowski "wmk69" with Reserved Font Name "NovaFlatSlim-Book".\nThis Font Software is licensed under the SIL Open Font License, Version 1.1.
Version: 3.1.0; 2021-05-23
ItalicAngle: 0
UnderlinePosition: -80
UnderlineWidth: 200
Ascent: 1638
Descent: 410
InvalidEm: 0
LayerCount: 2
Layer: 0 1 "Warstwa t+AUIA-a" 1
Layer: 1 1 "Plan pierwszy" 0
XUID: [1021 783 23647091 8360855]
StyleMap: 0x0040
FSType: 0
OS2Version: 3
OS2_WeightWidthSlopeOnly: 0
OS2_UseTypoMetrics: 1
CreationTime: 1260698820
ModificationTime: 1621761719
PfmFamily: 33
TTFWeight: 400
TTFWidth: 5
LineGap: 200
VLineGap: 0
Panose: 2 12 5 4 4 5 3 6 2 4
OS2TypoAscent: 2000
OS2TypoAOffset: 0
OS2TypoDescent: -500
OS2TypoDOffset: 0
OS2TypoLinegap: 200
OS2WinAscent: 2000
OS2WinAOffset: 0
OS2WinDescent: 500
OS2WinDOffset: 0
HheadAscent: 2000
HheadAOffset: 0
HheadDescent: -500
HheadDOffset: 0
OS2SubXSize: 1434
OS2SubYSize: 1331
OS2SubXOff: 0
OS2SubYOff: 287
OS2SupXSize: 1434
OS2SupYSize: 1331
OS2SupXOff: 0
OS2SupYOff: 977
OS2StrikeYSize: 102
OS2StrikeYPos: 512
OS2CapHeight: 1530
OS2XHeight: 1120
OS2Vendor: '    '
OS2CodePages: 20000093.00000000
OS2UnicodeRanges: 8000002f.4000204b.00000000.00000000
Lookup: 258 0 0 "'kern' Horizontal Kerning lookup 0" { "'kern' Horizontal Kerning lookup 0-1 subtable" [307,0,4] } ['kern' ('DFLT' <'dflt' > 'grek' <'dflt' > 'latn' <'dflt' > ) ]
MarkAttachClasses: 1
DEI: 91125
KernClass2: 65 55 "'kern' Horizontal Kerning lookup 0-1 subtable"
 134 A M N Agrave Aacute Acircumflex Atilde Adieresis Aring Ntilde Amacron Abreve Aogonek Nacute Ncommaaccent Ncaron Eng Aringacute uni1E40
 28 B germandbls uni1E02 uni1E9E
 47 C Ccedilla Cacute Ccircumflex Cdotaccent Ccaron
 122 D O Q Eth Ograve Oacute Ocircumflex Otilde Odieresis Oslash Dcaron Dcroat Omacron Obreve Ohungarumlaut Oslashacute uni1E0A

StartChar: .notdef
Encoding: 65536 -1 0
Width: 994
Flags: W
HStem: 0 68<260 734> 1442 68<260 734>
VStem: 150 110<68 1442> 734 110<68 1442>
LayerCount: 2
Fore
SplineSet
150 0 m 1,0,-1
 150 1510 l 1,1,-1
 844 1510 l 1,2,-1
 844 0 l 1,3,-1
 150 0 l 1,0,-1
260 68 m 1,4,-1
 734 68 l 1,5,-1
 734 1442 l 1,6,-1
 260 1442 l 1,7,-1
 260 68 l 1,4,-1
EndSplineSet
Validated: 1
EndChar

StartChar: exclam
Encoding: 33 33 4
Width: 600
GlyphClass: 2
Flags: W
HStem: -20 245<216.097 383.903> 1510 20G<347.778 400>
VStem: 180 240<17.1285 187.871> 200 200<490 1440>
LayerCount: 2
Fore
SplineSet
300 -20 m 128,-1,1
 250 -20 250 -20 215 16 c 128,-1,2
 180 52 180 52 180 102.5 c 128,-1,3
 180 153 180 153 215 189 c 128,-1,4
 250 225 250 225 300 225 c 128,-1,5
 350 225 350 225 385 189 c 128,-1,6
 420 153 420 153 420 102.5 c 128,-1,7
 420 52 420 52 385 16 c 128,-1,0
 350 -20 350 -20 300 -20 c 128,-1,1
390 1530 m 1,8,-1
 400 1530 l 1,9,-1
 400 490 l 1,10,-1
 210 400 l 1,11,-1
 200 400 l 1,12,-1
 200 1440 l 1,13,-1
 390 1530 l 1,8,-1
EndSplineSet
Validated: 1
EndChar

StartChar: quotedbl
Encoding: 34 34 5
Width: 453
GlyphClass: 2
Flags: W
HStem: 1140 440
VStem: 50 120<1192 1528> 283 120<1192 1528>
LayerCount: 2
Fore
SplineSet
393 1580 m 1,0,-1
 403 1580 l 1,1,-1
 403 1192 l 1,2,-1
 293 1140 l 1,3,-1
 283 1140 l 1,4,-1
 283 1528 l 1,5,-1
 393 1580 l 1,0,-1
160 1580 m 1,6,-1
 170 1580 l 1,7,-1
 170 1192 l 1,8,-1
 60 1140 l 1,9,-1
 50 1140 l 1,10,-1
 50 1528 l 1,11,-1
 160 1580 l 1,6,-1
EndSplineSet
Validated: 1
EndChar

StartChar: numbersign
Encoding: 35 35 6
Width: 1368
GlyphClass: 2
Flags: W
HStem: 520 120<202 448 568 800 920 1166> 872 120<202 448 568 800 920 1166>
VStem: 448 120<274 520 640 872 992 1238> 800 120<274 520 640 872 992 1238>
LayerCount: 2
Fore
SplineSet
558 1290 m 1,0,-1
 568 1290 l 1,1,-1
 568 992 l 1,2,-1
 800 992 l 1,3,-1
 800 1238 l 1,4,-1
 910 1290 l 1,5,-1
 920 1290 l 1,6,-1
 920 992 l 1,7,-1
 1218 992 l 1,8,-1
 1218 982 l 1,9,-1
 1166 872 l 1,10,-1
 920 872 l 1,11,-1
 920 640 l 1,12,-1
 1218 640 l 1,13,-1
 1218 630 l 1,14,-1
 1166 520 l 1,15,-1
 920 520 l 1,16,-1
 920 274 l 1,17,-1
 810 222 l 1,18,-1
 800 222 l 1,19,-1
 800 520 l 1,20,-1
 568 520 l 1,21,-1
 568 274 l 1,22,-1
 458 222 l 1,23,-1
 448 222 l 1,24,-1
 448 520 l 1,25,-1
 150 520 l 1,26,-1
 150 530 l 1,27,-1
 202 640 l 1,28,-1
 448 640 l 1,29,-1
 448 872 l 1,30,-1
 150 872 l 1,31,-1
 150 882 l 1,32,-1
 202 992 l 1,33,-1
 448 992 l 1,34,-1
 448 1238 l 1,35,-1
 558 1290 l 1,0,-1
800 872 m 1,36,-1
 568 872 l 1,37,-1
 568 640 l 1,38,-1
 800 640 l 1,39,-1
 800 872 l 1,36,-1
EndSplineSet
Validated: 1
EndChar

StartChar: dollar
Encoding: 36 36 7
Width: 1130
GlyphClass: 2
Flags: W
HStem: -19 90<360.448 516 616 745.924> 798 111<406.896 516 616 748.587> 1437 91<407.379 516 616 721.701>
VStem: 60 215<186.884 363.853> 148 205<963.562 1366.19> 516 100<-78 -19 74 793 909 1437 1523.76 1588> 773 204<1223.2 1369.95> 835 215<186.817 699.183>
LayerCount: 2
Fore
SplineSet
616 -78 m 1,0,-1
 526 -120 l 1,1,-1
 516 -120 l 1,2,-1
 516 -19 l 1,3,4
 340 -11 340 -11 207 76 c 0,5,6
 70 166 70 166 60 357 c 1,7,-1
 265 455 l 1,8,-1
 275 455 l 1,9,-1
 275 294 l 2,10,11
 275 166 275 166 356 118 c 0,12,13
 424 78 424 78 516 71 c 1,14,-1
 516 798 l 1,15,16
 374 808 374 808 270 878 c 0,17,18
 148 960 148 960 148 1134 c 2,19,-1
 148 1192 l 2,20,21
 148 1366 148 1366 270 1448 c 0,22,23
 375 1519 375 1519 516 1528 c 1,24,-1
 516 1588 l 1,25,-1
 606 1630 l 1,26,-1
 616 1630 l 1,27,-1
 616 1528 l 1,28,29
 753 1517 753 1517 856 1448 c 0,30,31
 964 1375 964 1375 977 1230 c 1,32,-1
 783 1138 l 1,33,-1
 773 1138 l 1,34,-1
 773 1258 l 2,35,36
 772 1356 772 1356 716 1398 c 0,37,38
 675 1428 675 1428 616 1437 c 1,39,-1
 616 904 l 1,40,41
 782 893 782 893 906 810 c 0,42,43
 1050 714 1050 714 1050 502 c 2,44,-1
 1050 384 l 2,45,46
 1050 172 1050 172 902 76 c 0,47,48
 778 -5 778 -5 616 -18 c 1,49,-1
 616 -78 l 1,0,-1
516 909 m 1,50,-1
 516 1437 l 1,51,52
 458 1428 458 1428 414 1398 c 0,53,54
 354 1356 354 1356 353 1258 c 2,55,-1
 353 1088 l 2,56,57
 354 990 354 990 414 948 c 0,58,59
 458 918 458 918 516 909 c 1,50,-1
616 793 m 1,60,-1
 616 74 l 1,61,62
 694 84 694 84 753 118 c 0,63,64
 835 166 835 166 835 294 c 2,65,-1
 835 572 l 2,66,67
 834 700 834 700 758 748 c 0,68,69
 700 784 700 784 616 793 c 1,60,-1
EndSplineSet
Validated: 1
EndChar

StartChar: percent
Encoding: 37 37 8
Width: 1547
GlyphClass: 2
Flags: W
HStem: -20 64<981.011 1208.99> 535 59<982.683 1207.32> 916 64<338.011 565.989> 1471 59<339.683 564.317>
VStem: 150 144<1017.62 1428.38> 610 144<1017.62 1428.38> 793 144<81.6182 492.382> 1253 144<81.6182 492.382>
DStem2: 358 42 495 -20 0.423185 0.906043<1.80173 1641.88>
LayerCount: 2
Fore
SplineSet
1095 44 m 128,-1,1
 1164 44 1164 44 1208.5 72.5 c 128,-1,2
 1253 101 1253 101 1253 170 c 2,3,-1
 1253 408 l 2,4,5
 1253 477 1253 477 1208.5 506 c 128,-1,6
 1164 535 1164 535 1095 535 c 128,-1,7
 1026 535 1026 535 981.5 506 c 128,-1,8
 937 477 937 477 937 408 c 2,9,-1
 937 170 l 2,10,11
 937 101 937 101 981.5 72.5 c 128,-1,0
 1026 44 1026 44 1095 44 c 128,-1,1
1095 -20 m 128,-1,13
 970 -20 970 -20 881.5 40 c 128,-1,14
 793 100 793 100 793 228 c 2,15,-1
 793 346 l 2,16,17
 793 474 793 474 881.5 534 c 128,-1,18
 970 594 970 594 1095 594 c 128,-1,19
 1220 594 1220 594 1308.5 534 c 128,-1,20
 1397 474 1397 474 1397 346 c 2,21,-1
 1397 228 l 2,22,23
 1397 100 1397 100 1308.5 40 c 128,-1,12
 1220 -20 1220 -20 1095 -20 c 128,-1,13
452 1471 m 128,-1,25
 383 1471 383 1471 338.5 1442 c 128,-1,26
 294 1413 294 1413 294 1344 c 2,27,-1
 294 1106 l 2,28,29
 294 1037 294 1037 338.5 1008.5 c 128,-1,30
 383 980 383 980 452 980 c 128,-1,31
 521 980 521 980 565.5 1008.5 c 128,-1,32
 610 1037 610 1037 610 1106 c 2,33,-1
 610 1344 l 2,34,35
 610 1413 610 1413 565.5 1442 c 128,-1,24
 521 1471 521 1471 452 1471 c 128,-1,25
452 1530 m 128,-1,37
 577 1530 577 1530 665.5 1470 c 128,-1,38
 754 1410 754 1410 754 1282 c 2,39,-1
 754 1164 l 2,40,41
 754 1036 754 1036 665.5 976 c 128,-1,42
 577 916 577 916 452 916 c 128,-1,43
 327 916 327 916 238.5 976 c 128,-1,44
 150 1036 150 1036 150 1164 c 2,45,-1
 150 1282 l 2,46,47
 150 1410 150 1410 238.5 1470 c 128,-1,36
 327 1530 327 1530 452 1530 c 128,-1,37
485 -20 m 1,48,-1
 358 42 l 1,49,-1
 1052 1530 l 1,50,-1
 1062 1530 l 1,51,-1
 1190 1468 l 1,52,-1
 495 -20 l 1,53,-1
 485 -20 l 1,48,-1
EndSplineSet
Validated: 1
EndChar

StartChar: ampersand
Encoding: 38 38 9
Width: 1624
GlyphClass: 2
Flags: W
HStem: -20 90<448.802 899.794> 790 91<490.209 626> 1440 90<490.088 810.818>
VStem: 150 200<187.313 705.918> 240 190<938.634 1366.19> 865 204<1223.2 1370.34> 1247 205<594.969 827>
DStem2: 805 881 626 790 0.632157 -0.774841<0 598.481 780.423 1006.62>
LayerCount: 2
Fore
SplineSet
626 790 m 1,0,1
 521 787 521 787 440 743 c 0,2,3
 350 694 350 694 350 567 c 2,4,-1
 350 294 l 2,5,6
 350 166 350 166 440 118 c 0,7,8
 531 70 531 70 657 70 c 0,9,10
 818 70 818 70 926 126 c 0,11,12
 1011 170 1011 170 1075 244 c 1,13,-1
 626 790 l 1,0,1
652 -20 m 0,14,15
 445 -20 445 -20 298 76 c 0,16,17
 150 173 150 173 150 384 c 2,18,-1
 150 522 l 2,19,20
 150 779 150 779 373 851 c 1,21,22
 240 917 240 917 240 1084 c 2,23,-1
 240 1192 l 2,24,25
 240 1366 240 1366 361.5 1448 c 128,-1,26
 483 1530 483 1530 655 1530 c 152,-1,27
 827 1530 827 1530 948 1448 c 0,28,29
 1057 1375 1057 1375 1069 1230 c 1,30,-1
 875 1138 l 1,31,-1
 865 1138 l 1,32,-1
 865 1258 l 2,33,34
 865 1357 865 1357 808.5 1398.5 c 128,-1,35
 752 1440 752 1440 654 1440 c 152,-1,36
 556 1440 556 1440 493 1398.5 c 128,-1,37
 430 1357 430 1357 430 1258 c 2,38,-1
 430 1063 l 2,39,40
 430 964 430 964 493.5 922.5 c 128,-1,41
 557 881 557 881 655 881 c 18,42,-1
 805 881 l 1,43,-1
 1183 417 l 1,44,45
 1247 542 1247 542 1247 827 c 1,46,-1
 1442 919 l 1,47,-1
 1452 919 l 1,48,49
 1452 569 1452 569 1272 308 c 1,50,-1
 1474 61 l 1,51,-1
 1303 -20 l 1,52,-1
 1293 -20 l 1,53,-1
 1149 154 l 1,54,55
 1104 116 1104 116 1051 81 c 0,56,57
 895 -20 895 -20 652 -20 c 0,14,15
EndSplineSet
Validated: 1
EndChar

StartChar: quotesingle
Encoding: 39 39 10
Width: 220
GlyphClass: 2
Flags: W
HStem: 1140 440
VStem: 50 120<1192 1528>
LayerCount: 2
Fore
SplineSet
160 1580 m 1,0,-1
 170 1580 l 1,1,-1
 170 1192 l 1,2,-1
 60 1140 l 1,3,-1
 50 1140 l 1,4,-1
 50 1528 l 1,5,-1
 160 1580 l 1,0,-1
EndSplineSet
Validated: 1
EndChar

StartChar: parenleft
Encoding: 40 40 11
Width: 756
GlyphClass: 2
Flags: W
HStem: -240 90<500.373 706> 1660 90<500.373 706>
VStem: 200 200<-33.1826 1543.18>
LayerCount: 2
Fore
SplineSet
706 -240 m 1,0,1
 496 -240 496 -240 348 -144 c 128,-1,2
 200 -48 200 -48 200 164 c 2,3,-1
 200 1346 l 2,4,5
 200 1558 200 1558 348 1654 c 128,-1,6
 496 1750 496 1750 706 1750 c 1,7,-1
 706 1660 l 1,8,9
 580 1660 580 1660 490 1611.5 c 128,-1,10
 400 1563 400 1563 400 1436 c 2,11,-1
 400 74 l 2,12,13
 400 -53 400 -53 490 -102 c 0,14,15
 580 -150 580 -150 706 -150 c 1,16,-1
 706 -240 l 1,0,1
EndSplineSet
Validated: 1
EndChar

StartChar: parenright
Encoding: 41 41 12
Width: 756
GlyphClass: 2
Flags: W
HStem: -240 90<50 255.627> 1660 90<50 255.627>
VStem: 356 200<-33.1826 1543.18>
LayerCount: 2
Fore
SplineSet
50 -240 m 1,0,1
 50 -150 l 1,2,3
 176 -150 176 -150 266 -102 c 0,4,5
 356 -53 356 -53 356 74 c 2,6,-1
 356 1436 l 2,7,8
 356 1563 356 1563 266 1611.5 c 128,-1,9
 176 1660 176 1660 50 1660 c 1,10,-1
 50 1750 l 1,11,12
 260 1750 260 1750 408 1654 c 128,-1,13
 556 1558 556 1558 556 1346 c 2,14,-1
 556 164 l 2,15,16
 556 -48 556 -48 408 -144 c 128,-1,17
 260 -240 260 -240 50 -240 c 1,0,1
EndSplineSet
Validated: 1
EndChar

StartChar: asterisk
Encoding: 42 42 13
Width: 748
GlyphClass: 2
Flags: W
HStem: 900 680
VStem: 314 120<952 1136 1344 1528>
DStem2: 155 1436 50 1358 0.865681 -0.500596<0 183.698 391.704 575.402> 50 1122 155 1044 0.865681 0.500596<51.85 235.548 443.554 627.252>
LayerCount: 2
Fore
SplineSet
424 1580 m 1,0,-1
 434 1580 l 1,1,-1
 434 1344 l 1,2,-1
 593 1436 l 1,3,-1
 693 1367 l 1,4,-1
 698 1358 l 1,5,-1
 494 1240 l 1,6,-1
 698 1122 l 1,7,-1
 693 1113 l 1,8,-1
 593 1044 l 1,9,-1
 434 1136 l 1,10,-1
 434 952 l 1,11,-1
 324 900 l 1,12,-1
 314 900 l 1,13,-1
 314 1136 l 1,14,-1
 155 1044 l 1,15,-1
 55 1113 l 1,16,-1
 50 1122 l 1,17,-1
 254 1240 l 1,18,-1
 50 1358 l 1,19,-1
 55 1367 l 1,20,-1
 155 1436 l 1,21,-1
 314 1344 l 1,22,-1
 314 1528 l 1,23,-1
 424 1580 l 1,0,-1
EndSplineSet
Validated: 1
EndChar

StartChar: plus
Encoding: 43 43 14
Width: 1200
GlyphClass: 2
Flags: W
HStem: 680 150<216 525 675 984>
VStem: 525 150<371 680 830 1139>
LayerCount: 2
Fore
SplineSet
525 1139 m 1,0,-1
 665 1205 l 1,1,-1
 675 1205 l 1,2,-1
 675 830 l 1,3,-1
 1050 830 l 1,4,-1
 1050 820 l 1,5,-1
 984 680 l 1,6,-1
 675 680 l 1,7,-1
 675 371 l 1,8,-1
 535 305 l 1,9,-1
 525 305 l 1,10,-1
 525 680 l 1,11,-1
 150 680 l 1,12,-1
 150 690 l 1,13,-1
 216 830 l 1,14,-1
 525 830 l 1,15,-1
 525 1139 l 1,0,-1
EndSplineSet
Validated: 1
EndChar

StartChar: comma
Encoding: 44 44 15
Width: 389
GlyphClass: 2
Flags: W
HStem: -276 554
VStem: 184 155<-122.682 121.561>
LayerCount: 2
Fore
SplineSet
220 278 m 1,0,-1
 230 278 l 1,1,2
 339 171 339 171 339 34 c 0,3,4
 339 -163 339 -163 114 -276 c 1,5,-1
 107 -269 l 1,6,7
 184 -139 184 -139 184 -10 c 128,-1,8
 184 119 184 119 50 198 c 1,9,-1
 220 278 l 1,0,-1
EndSplineSet
Validated: 1
EndChar

StartChar: hyphen
Encoding: 45 45 16
Width: 1200
GlyphClass: 2
Flags: W
HStem: 680 150<216 984>
LayerCount: 2
Fore
SplineSet
216 830 m 5,0,-1
 1050 830 l 5,1,-1
 1050 820 l 5,2,-1
 984 680 l 5,3,-1
 150 680 l 5,4,-1
 150 690 l 5,5,-1
 216 830 l 5,0,-1
EndSplineSet
Validated: 1
EndChar

StartChar: period
Encoding: 46 46 17
Width: 340
GlyphClass: 2
Flags: W
HStem: -20 245<86.0974 253.903>
VStem: 50 240<17.1285 187.871>
LayerCount: 2
Fore
SplineSet
170 -20 m 128,-1,1
 120 -20 120 -20 85 16 c 128,-1,2
 50 52 50 52 50 102.5 c 128,-1,3
 50 153 50 153 85 189 c 128,-1,4
 120 225 120 225 170 225 c 128,-1,5
 220 225 220 225 255 189 c 128,-1,6
 290 153 290 153 290 102.5 c 128,-1,7
 290 52 290 52 255 16 c 128,-1,0
 220 -20 220 -20 170 -20 c 128,-1,1
EndSplineSet
Validated: 1
EndChar

StartChar: slash
Encoding: 47 47 18
Width: 1019
GlyphClass: 2
Flags: W
DStem2: 10 -138 147 -200 0.422724 0.906258<1.72523 2038.73>
LayerCount: 2
Fore
SplineSet
137 -200 m 1,0,-1
 10 -138 l 1,1,-1
 871 1710 l 1,2,-1
 881 1710 l 1,3,-1
 1009 1648 l 1,4,-1
 147 -200 l 1,5,-1
 137 -200 l 1,0,-1
EndSplineSet
Validated: 1
EndChar

StartChar: zero
Encoding: 48 48 19
Width: 1330
GlyphClass: 2
Flags: W
HStem: -20 90<463.843 866.864> 1440 90<463.843 866.864>
VStem: 160 210<186.817 1323.18> 960 210<186.817 1323.18>
LayerCount: 2
Fore
SplineSet
665.5 70 m 128,-1,1
 792 70 792 70 876 118.5 c 128,-1,2
 960 167 960 167 960 294 c 2,3,-1
 960 1216 l 2,4,5
 960 1343 960 1343 876 1391.5 c 128,-1,6
 792 1440 792 1440 665.5 1440 c 128,-1,7
 539 1440 539 1440 454.5 1391.5 c 128,-1,8
 370 1343 370 1343 370 1216 c 2,9,-1
 370 294 l 2,10,11
 370 167 370 167 454.5 118.5 c 128,-1,0
 539 70 539 70 665.5 70 c 128,-1,1
665.5 -20 m 128,-1,13
 455 -20 455 -20 307.5 76 c 128,-1,14
 160 172 160 172 160 384 c 2,15,-1
 160 1126 l 2,16,17
 160 1338 160 1338 307.5 1434 c 128,-1,18
 455 1530 455 1530 665.5 1530 c 128,-1,19
 876 1530 876 1530 1023 1434 c 128,-1,20
 1170 1338 1170 1338 1170 1126 c 2,21,-1
 1170 384 l 2,22,23
 1170 172 1170 172 1023 76 c 128,-1,12
 876 -20 876 -20 665.5 -20 c 128,-1,13
EndSplineSet
Validated: 1
EndChar

StartChar: one
Encoding: 49 49 20
Width: 714
GlyphClass: 2
Flags: W
HStem: -20 21G<264 316.222> 1510 20G<412.068 464>
VStem: 264 200<70 1342>
DStem2: 20 1323 20 1228 0.902591 0.430499<0 228.412>
LayerCount: 2
Fore
SplineSet
264 -20 m 1,0,-1
 264 1342 l 1,1,-1
 20 1228 l 1,2,-1
 20 1323 l 1,3,-1
 454 1530 l 1,4,-1
 464 1530 l 1,5,-1
 464 70 l 1,6,-1
 274 -20 l 1,7,-1
 264 -20 l 1,0,-1
EndSplineSet
Validated: 1
EndChar

StartChar: two
Encoding: 50 50 21
Width: 1233
GlyphClass: 2
Flags: W
HStem: 0 180<322 1023> 1440 90<387.096 795.157>
VStem: 89 200<1126 1323.18> 889 210<833.049 1323.18>
DStem2: 160 180 322 180 0.78675 0.617272<127.453 870.622>
LayerCount: 2
Fore
SplineSet
80 0 m 1,0,-1
 80 10 l 1,1,-1
 160 180 l 1,2,-1
 666 577 l 2,3,4
 889 752 889 752 889 1039 c 2,5,-1
 889 1216 l 2,6,7
 889 1343 889 1343 804.5 1391.5 c 128,-1,8
 720 1440 720 1440 593.5 1440 c 128,-1,9
 467 1440 467 1440 378 1391.5 c 128,-1,10
 289 1343 289 1343 289 1216 c 2,11,-1
 289 1126 l 1,12,-1
 99 1036 l 1,13,-1
 89 1036 l 1,14,-1
 89 1126 l 2,15,16
 89 1338 89 1338 236 1434 c 128,-1,17
 383 1530 383 1530 593.5 1530 c 128,-1,18
 804 1530 804 1530 951.5 1434 c 128,-1,19
 1099 1338 1099 1338 1099 1126 c 2,20,-1
 1099 1037 l 2,21,22
 1099 743 1099 743 772 506 c 2,23,-1
 322 180 l 1,24,-1
 1103 180 l 1,25,-1
 1103 170 l 1,26,-1
 1023 0 l 1,27,-1
 80 0 l 1,0,-1
EndSplineSet
Validated: 1
EndChar

StartChar: three
Encoding: 51 51 22
Width: 1210
GlyphClass: 2
Flags: W
HStem: -20 90<405.796 787.341> 1420 90<251 756>
VStem: 100 215<186.884 363.853> 880 210<186.817 744.183>
DStem2: 460 877 693 945 0.496304 0.868149<174.673 618.311>
LayerCount: 2
Fore
SplineSet
594.5 -20 m 128,-1,1
 394 -20 394 -20 247 76 c 0,2,3
 110 166 110 166 100 357 c 1,4,-1
 305 455 l 1,5,-1
 315 455 l 1,6,-1
 315 294 l 2,7,8
 315 167 315 167 396.5 118.5 c 128,-1,9
 478 70 478 70 594.5 70 c 128,-1,10
 711 70 711 70 795.5 118.5 c 128,-1,11
 880 167 880 167 880 294 c 2,12,-1
 880 637 l 2,13,14
 880 764 880 764 795.5 812.5 c 128,-1,15
 711 861 711 861 592 861 c 0,16,17
 531 861 531 861 481 850 c 1,18,-1
 460 877 l 1,19,-1
 756 1420 l 1,20,-1
 213 1420 l 1,21,-1
 213 1430 l 1,22,-1
 251 1510 l 1,23,-1
 1016 1510 l 1,24,-1
 693 945 l 1,25,26
 832 927 832 927 942 855 c 0,27,28
 1090 759 1090 759 1090 547 c 2,29,-1
 1090 384 l 2,30,31
 1090 172 1090 172 942.5 76 c 128,-1,0
 795 -20 795 -20 594.5 -20 c 128,-1,1
EndSplineSet
Validated: 1
EndChar

StartChar: four
Encoding: 52 52 23
Width: 1232
GlyphClass: 2
Flags: W
HStem: -20 21G<782 834.222> 340 90<179 782 982 1094> 1510 20G<929.778 982>
VStem: 782 200<70 340 430 1281>
DStem2: 10 350 179 430 0.577976 0.816054<162.962 1205.94>
LayerCount: 2
Fore
SplineSet
179 430 m 1,0,-1
 782 430 l 1,1,-1
 782 1281 l 1,2,-1
 179 430 l 1,0,-1
782 -20 m 1,3,-1
 782 340 l 1,4,-1
 10 340 l 1,5,-1
 10 350 l 1,6,-1
 782 1440 l 1,7,-1
 972 1530 l 1,8,-1
 982 1530 l 1,9,-1
 982 430 l 1,10,-1
 1132 430 l 1,11,-1
 1132 420 l 1,12,-1
 1094 340 l 1,13,-1
 982 340 l 1,14,-1
 982 70 l 1,15,-1
 792 -20 l 1,16,-1
 782 -20 l 1,3,-1
EndSplineSet
Validated: 1
EndChar

StartChar: five
Encoding: 53 53 24
Width: 1210
GlyphClass: 2
Flags: W
HStem: -20 90<405.796 787.341> 861 90<391.055 787.28> 1420 90<505 984>
VStem: 100 215<186.884 363.853> 880 210<186.817 744.183>
DStem2: 181 889 378 921 0.231832 0.972756<76.7991 591.647>
LayerCount: 2
Fore
SplineSet
594.5 -20 m 128,-1,1
 394 -20 394 -20 247 76 c 0,2,3
 110 166 110 166 100 357 c 1,4,-1
 305 455 l 1,5,-1
 315 455 l 1,6,-1
 315 294 l 2,7,8
 315 167 315 167 396.5 118.5 c 128,-1,9
 478 70 478 70 594.5 70 c 128,-1,10
 711 70 711 70 795.5 118.5 c 128,-1,11
 880 167 880 167 880 294 c 2,12,-1
 880 637 l 2,13,14
 880 764 880 764 795.5 812.5 c 128,-1,15
 711 861 711 861 592 861 c 128,-1,16
 473 861 473 861 360 802 c 1,17,-1
 181 889 l 1,18,-1
 329 1510 l 1,19,-1
 1022 1510 l 1,20,-1
 1022 1500 l 1,21,-1
 984 1420 l 1,22,-1
 505 1420 l 1,23,-1
 378 921 l 1,24,25
 475 951 475 951 594 951 c 0,26,27
 795 951 795 951 942.5 855 c 128,-1,28
 1090 759 1090 759 1090 547 c 2,29,-1
 1090 384 l 2,30,31
 1090 172 1090 172 942.5 76 c 128,-1,0
 795 -20 795 -20 594.5 -20 c 128,-1,1
EndSplineSet
Validated: 1
EndChar

StartChar: six
Encoding: 54 54 25
Width: 1280
GlyphClass: 2
Flags: W
HStem: -20 90<456.986 847.341> 878 90<457.654 846.966> 1440 90<456.986 843.431>
VStem: 160 200<186.817 793.785 882 1323.18> 940 210<186.817 761.183 1152 1344.09>
LayerCount: 2
Fore
SplineSet
654.5 -20 m 128,-1,1
 454 -20 454 -20 307 76 c 128,-1,2
 160 172 160 172 160 384 c 2,3,-1
 160 1126 l 2,4,5
 160 1338 160 1338 307 1434 c 128,-1,6
 454 1530 454 1530 654.5 1530 c 128,-1,7
 855 1530 855 1530 1002 1447 c 128,-1,8
 1149 1364 1149 1364 1149 1152 c 1,9,-1
 945 1055 l 1,10,-1
 935 1055 l 1,11,-1
 935 1216 l 2,12,13
 935 1343 935 1343 853 1391.5 c 128,-1,14
 771 1440 771 1440 654.5 1440 c 128,-1,15
 538 1440 538 1440 449 1392 c 128,-1,16
 360 1344 360 1344 360 1216 c 2,17,-1
 360 882 l 1,18,19
 500 968 500 968 654 968 c 0,20,21
 854 968 854 968 1002 872 c 128,-1,22
 1150 776 1150 776 1150 564 c 2,23,-1
 1150 384 l 2,24,25
 1150 172 1150 172 1002.5 76 c 128,-1,0
 855 -20 855 -20 654.5 -20 c 128,-1,1
654.5 878 m 128,-1,27
 538 878 538 878 449 829.5 c 128,-1,28
 360 781 360 781 360 654 c 2,29,-1
 360 294 l 2,30,31
 360 167 360 167 449 118.5 c 128,-1,32
 538 70 538 70 654.5 70 c 128,-1,33
 771 70 771 70 855.5 118.5 c 128,-1,34
 940 167 940 167 940 294 c 2,35,-1
 940 654 l 2,36,37
 940 781 940 781 855.5 829.5 c 128,-1,26
 771 878 771 878 654.5 878 c 128,-1,27
EndSplineSet
Validated: 1
EndChar

StartChar: seven
Encoding: 55 55 26
Width: 967
GlyphClass: 2
Flags: W
HStem: -20 21G<162 214.167> 1420 90<48 720>
DStem2: 162 -20 425 100 0.361321 0.932441<206.92 1544.33>
LayerCount: 2
Fore
SplineSet
162 -20 m 1,0,-1
 720 1420 l 1,1,-1
 10 1420 l 1,2,-1
 10 1430 l 1,3,-1
 48 1510 l 1,4,-1
 957 1510 l 1,5,-1
 957 1500 l 1,6,-1
 425 100 l 1,7,-1
 172 -20 l 1,8,-1
 162 -20 l 1,0,-1
EndSplineSet
Validated: 1
EndChar

StartChar: eight
Encoding: 56 56 27
Width: 1210
GlyphClass: 2
Flags: W
HStem: -20 90<409.666 800.334> 791 90<439.593 769.873> 1440 90<440.088 769.443>
VStem: 100 210<187.313 711.465> 190 190<938.634 1366.19> 830 190<938.634 1366.19> 900 210<187.313 705.918>
LayerCount: 2
Fore
SplineSet
600 791 m 152,-1,1
 478 791 478 791 390 743 c 0,2,3
 310 699 310 699 310 567 c 2,4,-1
 310 294 l 2,5,6
 310 166 310 166 400 118 c 0,7,8
 491 70 491 70 605 70 c 152,-1,9
 719 70 719 70 810 118 c 0,10,11
 900 166 900 166 900 294 c 2,12,-1
 900 567 l 2,13,14
 900 694 900 694 810 743 c 0,15,0
 722 791 722 791 600 791 c 152,-1,1
605 -20 m 152,-1,17
 395 -20 395 -20 248 76 c 0,18,19
 100 173 100 173 100 384 c 2,20,-1
 100 522 l 2,21,22
 100 779 100 779 323 851 c 1,23,24
 190 917 190 917 190 1084 c 2,25,-1
 190 1192 l 2,26,27
 190 1366 190 1366 311.5 1448 c 128,-1,28
 433 1530 433 1530 605 1530 c 152,-1,29
 777 1530 777 1530 898.5 1448 c 128,-1,30
 1020 1366 1020 1366 1020 1192 c 2,31,-1
 1020 1084 l 2,32,33
 1020 917 1020 917 887 851 c 1,34,35
 1110 779 1110 779 1110 522 c 2,36,-1
 1110 384 l 2,37,38
 1110 173 1110 173 962 76 c 0,39,16
 815 -20 815 -20 605 -20 c 152,-1,17
605 881 m 152,-1,41
 703 881 703 881 766.5 922.5 c 128,-1,42
 830 964 830 964 830 1063 c 2,43,-1
 830 1258 l 2,44,45
 830 1357 830 1357 766 1398.5 c 128,-1,46
 702 1440 702 1440 604 1440 c 152,-1,47
 506 1440 506 1440 443 1398.5 c 128,-1,48
 380 1357 380 1357 380 1258 c 2,49,-1
 380 1063 l 2,50,51
 380 964 380 964 443.5 922.5 c 128,-1,40
 507 881 507 881 605 881 c 152,-1,41
EndSplineSet
Validated: 1
EndChar

StartChar: nine
Encoding: 57 57 28
Width: 1280
GlyphClass: 2
Flags: W
HStem: -20 90<436.569 823.014> 542 90<433.034 822.346> 1440 90<432.659 823.014>
VStem: 130 210<165.914 358 748.817 1323.18> 920 200<186.817 628 716.215 1323.18>
LayerCount: 2
Fore
SplineSet
625.5 -20 m 128,-1,1
 425 -20 425 -20 278 63 c 128,-1,2
 131 146 131 146 131 358 c 1,3,-1
 335 455 l 1,4,-1
 345 455 l 1,5,-1
 345 294 l 2,6,7
 345 167 345 167 427 118.5 c 128,-1,8
 509 70 509 70 625.5 70 c 128,-1,9
 742 70 742 70 831 118 c 128,-1,10
 920 166 920 166 920 294 c 2,11,-1
 920 628 l 1,12,13
 780 542 780 542 626 542 c 0,14,15
 426 542 426 542 278 638 c 128,-1,16
 130 734 130 734 130 946 c 2,17,-1
 130 1126 l 2,18,19
 130 1338 130 1338 277.5 1434 c 128,-1,20
 425 1530 425 1530 625.5 1530 c 128,-1,21
 826 1530 826 1530 973 1434 c 128,-1,22
 1120 1338 1120 1338 1120 1126 c 2,23,-1
 1120 384 l 2,24,25
 1120 172 1120 172 973 76 c 128,-1,0
 826 -20 826 -20 625.5 -20 c 128,-1,1
625.5 632 m 128,-1,27
 742 632 742 632 831 680.5 c 128,-1,28
 920 729 920 729 920 856 c 2,29,-1
 920 1216 l 2,30,31
 920 1343 920 1343 831 1391.5 c 128,-1,32
 742 1440 742 1440 625.5 1440 c 128,-1,33
 509 1440 509 1440 424.5 1391.5 c 128,-1,34
 340 1343 340 1343 340 1216 c 2,35,-1
 340 856 l 2,36,37
 340 729 340 729 424.5 680.5 c 128,-1,26
 509 632 509 632 625.5 632 c 128,-1,27
EndSplineSet
Validated: 1
EndChar

StartChar: colon
Encoding: 58 58 29
Width: 340
GlyphClass: 2
Flags: W
HStem: -20 245<86.0974 253.903> 632 245<86.0974 253.903>
VStem: 50 240<17.1285 187.871 669.129 839.871>
LayerCount: 2
Fore
SplineSet
170 877 m 128,-1,1
 220 877 220 877 255 841 c 128,-1,2
 290 805 290 805 290 754.5 c 128,-1,3
 290 704 290 704 255 668 c 128,-1,4
 220 632 220 632 170 632 c 128,-1,5
 120 632 120 632 85 668 c 128,-1,6
 50 704 50 704 50 754.5 c 128,-1,7
 50 805 50 805 85 841 c 128,-1,0
 120 877 120 877 170 877 c 128,-1,1
170 -20 m 128,-1,9
 120 -20 120 -20 85 16 c 128,-1,10
 50 52 50 52 50 102.5 c 128,-1,11
 50 153 50 153 85 189 c 128,-1,12
 120 225 120 225 170 225 c 128,-1,13
 220 225 220 225 255 189 c 128,-1,14
 290 153 290 153 290 102.5 c 128,-1,15
 290 52 290 52 255 16 c 128,-1,8
 220 -20 220 -20 170 -20 c 128,-1,9
EndSplineSet
Validated: 1
EndChar

StartChar: semicolon
Encoding: 59 59 30
Width: 389
GlyphClass: 2
Flags: W
HStem: 632 245<106.097 273.903>
VStem: 70 240<669.129 839.871> 184 155<-122.682 121.561>
LayerCount: 2
Fore
SplineSet
190 877 m 128,-1,1
 240 877 240 877 275 841 c 128,-1,2
 310 805 310 805 310 754.5 c 128,-1,3
 310 704 310 704 275 668 c 128,-1,4
 240 632 240 632 190 632 c 128,-1,5
 140 632 140 632 105 668 c 128,-1,6
 70 704 70 704 70 754.5 c 128,-1,7
 70 805 70 805 105 841 c 128,-1,0
 140 877 140 877 190 877 c 128,-1,1
220 278 m 1,8,-1
 230 278 l 1,9,10
 339 171 339 171 339 34 c 0,11,12
 339 -163 339 -163 114 -276 c 1,13,-1
 107 -269 l 1,14,15
 184 -139 184 -139 184 -10 c 128,-1,16
 184 119 184 119 50 198 c 1,17,-1
 220 278 l 1,8,-1
EndSplineSet
Validated: 1
EndChar

StartChar: less
Encoding: 60 60 31
Width: 1315
GlyphClass: 2
Flags: W
DStem2: 300 781 150 680 0.942662 -0.33375<0 848.114> 216 830 300 781 0.937476 0.348051<61.6934 928.024>
LayerCount: 2
Fore
SplineSet
216 830 m 1,0,-1
 1086 1153 l 1,1,-1
 1115 1093 l 1,2,-1
 1115 1083 l 1,3,-1
 300 781 l 1,4,-1
 1115 505 l 1,5,-1
 1115 495 l 1,6,-1
 1051 361 l 1,7,-1
 150 680 l 1,8,-1
 150 690 l 1,9,-1
 216 830 l 1,0,-1
EndSplineSet
Validated: 1
EndChar

StartChar: equal
Encoding: 61 61 32
Width: 1200
GlyphClass: 2
Flags: W
HStem: 480 150<216 984> 880 150<216 984>
LayerCount: 2
Fore
SplineSet
216 1030 m 1,0,-1
 1050 1030 l 1,1,-1
 1050 1020 l 1,2,-1
 984 880 l 1,3,-1
 150 880 l 1,4,-1
 150 890 l 1,5,-1
 216 1030 l 1,0,-1
216 630 m 1,6,-1
 1050 630 l 1,7,-1
 1050 620 l 1,8,-1
 984 480 l 1,9,-1
 150 480 l 1,10,-1
 150 490 l 1,11,-1
 216 630 l 1,6,-1
EndSplineSet
Validated: 1
EndChar

StartChar: greater
Encoding: 62 62 33
Width: 1315
GlyphClass: 2
Flags: W
DStem2: 264 1149 200 1005 0.942662 -0.33375<0 848.114> 200 427 229 357 0.937476 0.348051<2.8232 869.154>
LayerCount: 2
Fore
SplineSet
1099 680 m 1,0,-1
 229 357 l 1,1,-1
 200 417 l 1,2,-1
 200 427 l 1,3,-1
 1015 729 l 1,4,-1
 200 1005 l 1,5,-1
 200 1015 l 1,6,-1
 264 1149 l 1,7,-1
 1165 830 l 1,8,-1
 1165 820 l 1,9,-1
 1099 680 l 1,0,-1
EndSplineSet
Validated: 1
EndChar

StartChar: question
Encoding: 63 63 34
Width: 1310
GlyphClass: 2
Flags: W
HStem: -20 245<551.097 718.903> 1440 90<448.096 856.157>
VStem: 150 200<1126 1323.18> 515 240<17.1285 187.871> 538 203<454 545.174> 950 210<891.438 1323.18>
LayerCount: 2
Fore
SplineSet
654.5 1530 m 128,-1,1
 865 1530 865 1530 1012.5 1434 c 128,-1,2
 1160 1338 1160 1338 1160 1126 c 2,3,-1
 1160 1070 l 2,4,5
 1160 801 1160 801 831 636 c 0,6,7
 741 591 741 591 741 454 c 1,8,-1
 548 361 l 1,9,-1
 538 361 l 1,10,11
 538 593 538 593 748 698 c 0,12,13
 950 799 950 799 950 1072 c 2,14,-1
 950 1216 l 2,15,16
 950 1343 950 1343 865.5 1391.5 c 128,-1,17
 781 1440 781 1440 654.5 1440 c 128,-1,18
 528 1440 528 1440 439 1391.5 c 128,-1,19
 350 1343 350 1343 350 1216 c 2,20,-1
 350 1126 l 1,21,-1
 160 1036 l 1,22,-1
 150 1036 l 1,23,-1
 150 1126 l 2,24,25
 150 1338 150 1338 297 1434 c 128,-1,0
 444 1530 444 1530 654.5 1530 c 128,-1,1
635 -20 m 128,-1,27
 585 -20 585 -20 550 16 c 128,-1,28
 515 52 515 52 515 102.5 c 128,-1,29
 515 153 515 153 550 189 c 128,-1,30
 585 225 585 225 635 225 c 128,-1,31
 685 225 685 225 720 189 c 128,-1,32
 755 153 755 153 755 102.5 c 128,-1,33
 755 52 755 52 720 16 c 128,-1,26
 685 -20 685 -20 635 -20 c 128,-1,27
EndSplineSet
Validated: 1
EndChar

StartChar: at
Encoding: 64 64 35
Width: 1380
GlyphClass: 2
Flags: W
HStem: -430 80<469.228 685> -20 80<786.268 1010> 602 80<786.268 1017> 1040 80<468.196 908.247>
VStem: 180 180<-230.912 912.1> 534 180<143.809 517.709> 1020 180<70 602 682 913.183>
LayerCount: 2
Fore
SplineSet
1010 -20 m 1,0,-1
 934 -20 l 2,1,2
 777 -20 777 -20 655.5 62 c 128,-1,3
 534 144 534 144 534 318 c 2,4,-1
 534 344 l 2,5,6
 534 517 534 517 656 600 c 0,7,8
 777 682 777 682 934 682 c 2,9,-1
 1017 682 l 1,10,-1
 1017 816 l 2,11,12
 1017 943 1017 943 928 991.5 c 128,-1,13
 839 1040 839 1040 689 1040 c 128,-1,14
 539 1040 539 1040 449.5 991.5 c 128,-1,15
 360 943 360 943 360 816 c 2,16,-1
 360 -126 l 2,17,18
 360 -259 360 -259 450 -302 c 0,19,20
 551 -350 551 -350 685 -350 c 2,21,-1
 718 -350 l 1,22,-1
 718 -360 l 1,23,-1
 685 -430 l 1,24,25
 475 -430 475 -430 327.5 -340.5 c 128,-1,26
 180 -251 180 -251 180 -26 c 2,27,-1
 180 716 l 2,28,29
 180 928 180 928 327.5 1024 c 128,-1,30
 475 1120 475 1120 690.5 1120 c 128,-1,31
 906 1120 906 1120 1053 1024 c 128,-1,32
 1200 928 1200 928 1200 716 c 2,33,-1
 1200 70 l 1,34,-1
 1010 -20 l 1,0,-1
1020 60 m 1,35,-1
 1020 602 l 1,36,-1
 936 602 l 2,37,38
 850 602 850 602 782 560 c 0,39,40
 714 519 714 519 714 420 c 2,41,-1
 714 242 l 2,42,43
 714 143 714 143 782 102 c 0,44,45
 850 60 850 60 936 60 c 2,46,-1
 1020 60 l 1,35,-1
EndSplineSet
Validated: 1
EndChar

StartChar: A
Encoding: 65 65 36
Width: 1370
GlyphClass: 2
Flags: W
HStem: -20 21G<180 232.222 990 1042.22> 710 90<380 990> 1440 90<478.798 891.904>
VStem: 180 200<70 710 800 1323.18> 990 200<70 710 800 1323.18>
LayerCount: 2
Fore
SplineSet
190 -20 m 1,0,-1
 180 -20 l 1,1,-1
 180 1126 l 2,2,3
 180 1338 180 1338 327.5 1434 c 128,-1,4
 475 1530 475 1530 685.5 1530 c 128,-1,5
 896 1530 896 1530 1043 1434 c 128,-1,6
 1190 1338 1190 1338 1190 1126 c 2,7,-1
 1190 70 l 1,8,-1
 1000 -20 l 1,9,-1
 990 -20 l 1,10,-1
 990 710 l 1,11,-1
 380 710 l 1,12,-1
 380 70 l 1,13,-1
 190 -20 l 1,0,-1
380 800 m 1,14,-1
 990 800 l 1,15,-1
 990 1216 l 2,16,17
 990 1343 990 1343 901 1391.5 c 128,-1,18
 812 1440 812 1440 685.5 1440 c 128,-1,19
 559 1440 559 1440 469.5 1391.5 c 128,-1,20
 380 1343 380 1343 380 1216 c 2,21,-1
 380 800 l 1,14,-1
EndSplineSet
Validated: 1
EndChar

StartChar: B
Encoding: 66 66 37
Width: 1250
GlyphClass: 2
Flags: W
HStem: 0 90<400 843.656> 791 90<400 810.714> 1420 90<400 809.777>
VStem: 200 200<90 791 881 1420> 875 195<942.25 1346.19> 945 215<207.313 705.918>
LayerCount: 2
Fore
SplineSet
400 90 m 1,0,-1
 640 90 l 2,1,2
 764 90 764 90 855 138 c 0,3,4
 945 186 945 186 945 314 c 2,5,-1
 945 567 l 2,6,7
 945 694 945 694 855 743 c 0,8,9
 767 791 767 791 640 791 c 2,10,-1
 400 791 l 1,11,-1
 400 90 l 1,0,-1
200 0 m 1,12,-1
 200 1440 l 1,13,-1
 348 1510 l 1,14,-1
 655 1510 l 2,15,16
 827 1510 827 1510 948.5 1428 c 128,-1,17
 1070 1346 1070 1346 1070 1172 c 2,18,-1
 1070 1084 l 2,19,20
 1070 917 1070 917 937 851 c 1,21,22
 1160 779 1160 779 1160 522 c 2,23,-1
 1160 404 l 2,24,25
 1160 193 1160 193 1012 96 c 0,26,27
 865 0 865 0 655 0 c 2,28,-1
 200 0 l 1,12,-1
400 881 m 1,29,-1
 640 881 l 2,30,31
 738 881 738 881 806.5 922.5 c 128,-1,32
 875 964 875 964 875 1063 c 2,33,-1
 875 1238 l 2,34,35
 875 1337 875 1337 806.5 1378.5 c 128,-1,36
 738 1420 738 1420 640 1420 c 2,37,-1
 400 1420 l 1,38,-1
 400 881 l 1,29,-1
EndSplineSet
Validated: 1
EndChar

StartChar: C
Encoding: 67 67 38
Width: 1250
GlyphClass: 2
Flags: W
HStem: -20 90<463.843 865.728> 1440 90<463.843 865.728>
VStem: 160 210<186.817 1323.18> 955 215<186.817 377 1146.15 1323.12>
LayerCount: 2
Fore
SplineSet
665.5 -20 m 128,-1,1
 455 -20 455 -20 307.5 76 c 128,-1,2
 160 172 160 172 160 384 c 2,3,-1
 160 1126 l 2,4,5
 160 1338 160 1338 307.5 1434 c 128,-1,6
 455 1530 455 1530 665.5 1530 c 128,-1,7
 876 1530 876 1530 1023 1434 c 0,8,9
 1160 1344 1160 1344 1170 1153 c 1,10,-1
 965 1055 l 1,11,-1
 955 1055 l 1,12,-1
 955 1216 l 2,13,14
 955 1343 955 1343 873.5 1391.5 c 128,-1,15
 792 1440 792 1440 665.5 1440 c 128,-1,16
 539 1440 539 1440 454.5 1391.5 c 128,-1,17
 370 1343 370 1343 370 1216 c 2,18,-1
 370 294 l 2,19,20
 370 167 370 167 454.5 118.5 c 128,-1,21
 539 70 539 70 665.5 70 c 128,-1,22
 792 70 792 70 873.5 118.5 c 128,-1,23
 955 167 955 167 955 294 c 2,24,-1
 955 377 l 1,25,-1
 1160 474 l 1,26,-1
 1170 474 l 1,27,-1
 1170 384 l 2,28,29
 1170 172 1170 172 1023 76 c 128,-1,0
 876 -20 876 -20 665.5 -20 c 128,-1,1
EndSplineSet
Validated: 1
EndChar

StartChar: D
Encoding: 68 68 39
Width: 1350
GlyphClass: 2
Flags: W
HStem: 0 90<400 879.25> 1420 90<400 881.664>
VStem: 200 200<90 1420> 980 210<206.322 1303.18>
LayerCount: 2
Fore
SplineSet
400 90 m 1,0,-1
 675 90 l 2,1,2
 802 90 802 90 890 138 c 0,3,4
 980 186 980 186 980 314 c 2,5,-1
 980 1196 l 2,6,7
 980 1324 980 1324 890 1372 c 0,8,9
 802 1420 802 1420 675 1420 c 2,10,-1
 400 1420 l 1,11,-1
 400 90 l 1,0,-1
200 0 m 1,12,-1
 200 1440 l 1,13,-1
 348 1510 l 1,14,-1
 685 1510 l 2,15,16
 894 1510 894 1510 1042 1414 c 128,-1,17
 1190 1318 1190 1318 1190 1106 c 2,18,19
 1190 404 l 2,20,21
 1190 191 1190 191 1042 96 c 0,22,23
 895 0 895 0 685 0 c 2,24,-1
 200 0 l 1,12,-1
EndSplineSet
Validated: 1
EndChar

StartChar: E
Encoding: 69 69 40
Width: 1060
GlyphClass: 2
Flags: W
HStem: 0 90<400 972> 710 90<400 922> 1420 90<400 922>
VStem: 200 200<90 710 800 1420>
CounterMasks: 1 e0
LayerCount: 2
Fore
SplineSet
200 0 m 1,0,-1
 200 1440 l 1,1,-1
 348 1510 l 1,2,-1
 960 1510 l 1,3,-1
 960 1500 l 1,4,-1
 922 1420 l 1,5,-1
 400 1420 l 1,6,-1
 400 800 l 1,7,-1
 960 800 l 1,8,-1
 960 790 l 1,9,-1
 922 710 l 1,10,-1
 400 710 l 1,11,-1
 400 90 l 1,12,-1
 1010 90 l 1,13,-1
 1010 80 l 1,14,-1
 972 0 l 1,15,-1
 200 0 l 1,0,-1
EndSplineSet
Validated: 1
EndChar

StartChar: F
Encoding: 70 70 41
Width: 1010
GlyphClass: 2
Flags: W
HStem: -20 21G<200 252.222> 710 90<400 922> 1420 90<400 922>
VStem: 200 200<70 710 800 1420>
LayerCount: 2
Fore
SplineSet
200 -20 m 1,0,-1
 200 1440 l 1,1,-1
 348 1510 l 1,2,-1
 960 1510 l 1,3,-1
 960 1500 l 1,4,-1
 922 1420 l 1,5,-1
 400 1420 l 1,6,-1
 400 800 l 1,7,-1
 960 800 l 1,8,-1
 960 790 l 1,9,-1
 922 710 l 1,10,-1
 400 710 l 1,11,-1
 400 70 l 1,12,-1
 210 -20 l 1,13,-1
 200 -20 l 1,0,-1
EndSplineSet
Validated: 1
EndChar

StartChar: G
Encoding: 71 71 42
Width: 1330
GlyphClass: 2
Flags: W
HStem: -20 90<463.843 871.904> 710 90<660 970> 1440 90<463.843 865.728>
VStem: 160 210<186.817 1323.18> 955 215<1146.15 1323.12> 970 200<186.817 710>
CounterMasks: 1 e0
LayerCount: 2
Fore
SplineSet
665.5 -20 m 128,-1,1
 455 -20 455 -20 307.5 76 c 128,-1,2
 160 172 160 172 160 384 c 2,3,-1
 160 1126 l 2,4,5
 160 1338 160 1338 307.5 1434 c 128,-1,6
 455 1530 455 1530 665.5 1530 c 128,-1,7
 876 1530 876 1530 1023 1434 c 0,8,9
 1160 1344 1160 1344 1170 1153 c 1,10,-1
 965 1055 l 1,11,-1
 955 1055 l 1,12,-1
 955 1216 l 2,13,14
 955 1343 955 1343 873.5 1391.5 c 128,-1,15
 792 1440 792 1440 665.5 1440 c 128,-1,16
 539 1440 539 1440 454.5 1391.5 c 128,-1,17
 370 1343 370 1343 370 1216 c 2,18,-1
 370 294 l 2,19,20
 370 167 370 167 454.5 118.5 c 128,-1,21
 539 70 539 70 665.5 70 c 128,-1,22
 792 70 792 70 881 118.5 c 128,-1,23
 970 167 970 167 970 294 c 2,24,-1
 970 710 l 1,25,-1
 622 710 l 1,26,-1
 622 720 l 1,27,-1
 660 800 l 1,28,-1
 1170 800 l 1,29,-1
 1170 384 l 2,30,31
 1170 172 1170 172 1023 76 c 128,-1,0
 876 -20 876 -20 665.5 -20 c 128,-1,1
EndSplineSet
Validated: 1
EndChar

StartChar: H
Encoding: 72 72 43
Width: 1400
GlyphClass: 2
Flags: W
HStem: -20 21G<200 252.222 1000 1052.22> 710 90<400 1000> 1510 20G<347.778 400 1147.78 1200>
VStem: 200 200<70 710 800 1440> 1000 200<70 710 800 1440>
LayerCount: 2
Fore
SplineSet
200 -20 m 1,0,-1
 200 1440 l 1,1,-1
 390 1530 l 1,2,-1
 400 1530 l 1,3,-1
 400 800 l 1,4,-1
 1000 800 l 1,5,-1
 1000 1440 l 1,6,-1
 1190 1530 l 1,7,-1
 1200 1530 l 1,8,-1
 1200 70 l 1,9,-1
 1010 -20 l 1,10,-1
 1000 -20 l 1,11,-1
 1000 710 l 1,12,-1
 400 710 l 1,13,-1
 400 70 l 1,14,-1
 210 -20 l 1,15,-1
 200 -20 l 1,0,-1
EndSplineSet
Validated: 1
EndChar

StartChar: I
Encoding: 73 73 44
Width: 600
GlyphClass: 2
Flags: W
HStem: -20 21G<200 252.222> 1510 20G<347.778 400>
VStem: 200 200<70 1440>
LayerCount: 2
Fore
SplineSet
200 -20 m 1,0,-1
 200 1440 l 1,1,-1
 390 1530 l 1,2,-1
 400 1530 l 1,3,-1
 400 70 l 1,4,-1
 210 -20 l 1,5,-1
 200 -20 l 1,0,-1
EndSplineSet
Validated: 1
EndChar

StartChar: J
Encoding: 74 74 45
Width: 1150
GlyphClass: 2
Flags: W
HStem: -20 90<314.481 690.543> 1420 90<163 790>
VStem: 10 214<186.854 365.746> 790 200<186.817 1420>
LayerCount: 2
Fore
SplineSet
501 -20 m 0,0,1
 303 -20 303 -20 156 76 c 0,2,3
 20 165 20 165 10 359 c 1,4,-1
 214 455 l 1,5,-1
 224 455 l 1,6,-1
 224 294 l 2,7,8
 224 167 224 167 305.5 118.5 c 128,-1,9
 387 70 387 70 501 70 c 0,10,11
 611 70 611 70 701 119 c 0,12,13
 790 167 790 167 790 294 c 2,14,-1
 790 1420 l 17,15,-1
 125 1420 l 1,16,-1
 125 1430 l 1,17,-1
 163 1510 l 1,18,-1
 990 1510 l 1,19,-1
 990 384 l 2,20,21
 990 172 990 172 842 76 c 0,22,23
 695 -20 695 -20 501 -20 c 0,0,1
EndSplineSet
Validated: 1
EndChar

StartChar: K
Encoding: 75 75 46
Width: 1350
GlyphClass: 2
Flags: W
HStem: -20 21G<200 252.222 990 1042.22> 953 92<656.251 890.096> 1510 20G<347.778 400 1042.75 1117.82>
VStem: 200 200<70 868.785 957 1440> 990 200<70 833.614>
DStem2: 400 957 655 1045 0.75805 0.652196<250.696 878.57>
LayerCount: 2
Fore
SplineSet
210 -20 m 1,0,-1
 200 -20 l 1,1,-1
 200 1440 l 1,2,-1
 390 1530 l 1,3,-1
 400 1530 l 1,4,-1
 400 957 l 1,5,-1
 1066 1530 l 1,6,-1
 1076 1530 l 1,7,-1
 1168 1486 l 1,8,-1
 655 1045 l 1,9,-1
 700 1045 l 2,10,11
 898 1045 898 1045 1043 947 c 0,12,13
 1190 847 1190 847 1190 639 c 2,14,-1
 1190 70 l 1,15,-1
 1000 -20 l 1,16,-1
 990 -20 l 1,17,-1
 990 729 l 2,18,19
 990 856 990 856 901 904.5 c 128,-1,20
 812 953 812 953 695.5 953 c 128,-1,21
 579 953 579 953 489.5 904.5 c 128,-1,22
 400 856 400 856 400 729 c 2,23,-1
 400 70 l 1,24,-1
 210 -20 l 1,0,-1
EndSplineSet
Validated: 1
EndChar

StartChar: L
Encoding: 76 76 47
Width: 1020
GlyphClass: 2
Flags: W
HStem: 0 90<400 972> 1510 20G<347.778 400>
VStem: 200 200<90 1440>
LayerCount: 2
Fore
SplineSet
200 0 m 1,0,-1
 200 1440 l 1,1,-1
 390 1530 l 1,2,-1
 400 1530 l 1,3,-1
 400 90 l 1,4,-1
 1010 90 l 1,5,-1
 1010 80 l 1,6,-1
 972 0 l 1,7,-1
 200 0 l 1,0,-1
EndSplineSet
Validated: 1
EndChar

StartChar: M
Encoding: 77 77 48
Width: 2180
GlyphClass: 2
Flags: W
HStem: -20 21G<180 232.222 990 1042.22 1800 1852.22> 1440 90<478.798 891.904 1289.17 1701.96>
VStem: 180 200<70 1323.18> 990 200<70 1355.78> 1800 200<70 1323.18>
CounterMasks: 1 38
LayerCount: 2
Fore
SplineSet
190 -20 m 1,0,-1
 180 -20 l 1,1,-1
 180 1126 l 2,2,3
 180 1338 180 1338 327.5 1434 c 128,-1,4
 475 1530 475 1530 685.5 1530 c 128,-1,5
 896 1530 896 1530 1043 1434 c 0,6,7
 1069 1417 1069 1417 1090 1397 c 1,8,9
 1112 1417 1112 1417 1138 1434 c 0,10,11
 1286 1530 1286 1530 1496 1530 c 128,-1,12
 1706 1530 1706 1530 1853 1434 c 128,-1,13
 2000 1338 2000 1338 2000 1126 c 2,14,-1
 2000 70 l 1,15,-1
 1810 -20 l 1,16,-1
 1800 -20 l 1,17,-1
 1800 1216 l 2,18,19
 1800 1343 1800 1343 1711 1391.5 c 128,-1,20
 1622 1440 1622 1440 1495.5 1440 c 128,-1,21
 1369 1440 1369 1440 1279.5 1391.5 c 128,-1,22
 1190 1343 1190 1343 1190 1216 c 2,23,-1
 1190 70 l 1,24,-1
 1000 -20 l 1,25,-1
 990 -20 l 1,26,-1
 990 1216 l 2,27,28
 990 1343 990 1343 901 1391.5 c 128,-1,29
 812 1440 812 1440 685.5 1440 c 128,-1,30
 559 1440 559 1440 469.5 1391.5 c 128,-1,31
 380 1343 380 1343 380 1216 c 2,32,-1
 380 70 l 1,33,-1
 190 -20 l 1,0,-1
EndSplineSet
Validated: 1
EndChar

StartChar: N
Encoding: 78 78 49
Width: 1370
GlyphClass: 2
Flags: W
HStem: -20 21G<180 232.222 990 1042.22> 1440 90<478.798 891.904>
VStem: 180 200<70 1323.18> 990 200<70 1323.18>
LayerCount: 2
Fore
SplineSet
190 -20 m 1,0,-1
 180 -20 l 9,1,-1
 180 1126 l 2,2,3
 180 1338 180 1338 327.5 1434 c 128,-1,4
 475 1530 475 1530 685.5 1530 c 128,-1,5
 896 1530 896 1530 1043 1434 c 128,-1,6
 1190 1338 1190 1338 1190 1126 c 2,7,-1
 1190 70 l 17,8,-1
 1000 -20 l 1,9,-1
 990 -20 l 9,10,-1
 990 1216 l 2,11,12
 990 1343 990 1343 901 1391.5 c 128,-1,13
 812 1440 812 1440 685.5 1440 c 128,-1,14
 559 1440 559 1440 469.5 1391.5 c 128,-1,15
 380 1343 380 1343 380 1216 c 2,16,-1
 380 70 l 17,17,-1
 190 -20 l 1,0,-1
EndSplineSet
Validated: 1
EndChar

StartChar: O
Encoding: 79 79 50
Width: 1330
GlyphClass: 2
Flags: W
HStem: -20 90<463.843 866.864> 1440 90<463.843 866.864>
VStem: 160 210<186.817 1323.18> 960 210<186.817 1323.18>
LayerCount: 2
Fore
SplineSet
665.5 70 m 128,-1,1
 792 70 792 70 876 118.5 c 128,-1,2
 960 167 960 167 960 294 c 2,3,-1
 960 1216 l 2,4,5
 960 1343 960 1343 876 1391.5 c 128,-1,6
 792 1440 792 1440 665.5 1440 c 128,-1,7
 539 1440 539 1440 454.5 1391.5 c 128,-1,8
 370 1343 370 1343 370 1216 c 2,9,-1
 370 294 l 2,10,11
 370 167 370 167 454.5 118.5 c 128,-1,0
 539 70 539 70 665.5 70 c 128,-1,1
665.5 -20 m 128,-1,13
 455 -20 455 -20 307.5 76 c 128,-1,14
 160 172 160 172 160 384 c 2,15,-1
 160 1126 l 2,16,17
 160 1338 160 1338 307.5 1434 c 128,-1,18
 455 1530 455 1530 665.5 1530 c 128,-1,19
 876 1530 876 1530 1023 1434 c 128,-1,20
 1170 1338 1170 1338 1170 1126 c 2,21,-1
 1170 384 l 2,22,23
 1170 172 1170 172 1023 76 c 128,-1,12
 876 -20 876 -20 665.5 -20 c 128,-1,13
EndSplineSet
Validated: 1
EndChar

StartChar: P
Encoding: 80 80 51
Width: 1210
GlyphClass: 2
Flags: W
HStem: -20 21G<200 252.222> 500 90<400 849.25> 1420 90<400 851.664>
VStem: 200 200<70 500 590 1420> 950 210<707.313 1303.18>
LayerCount: 2
Fore
SplineSet
400 590 m 1,0,-1
 645 590 l 2,1,2
 772 590 772 590 860 638 c 0,3,4
 950 686 950 686 950 814 c 2,5,-1
 950 1196 l 2,6,7
 950 1324 950 1324 860 1372 c 0,8,9
 772 1420 772 1420 645 1420 c 2,10,-1
 400 1420 l 1,11,-1
 400 590 l 1,0,-1
210 -20 m 1,12,-1
 200 -20 l 1,13,-1
 200 1440 l 1,14,-1
 348 1510 l 1,15,-1
 655 1510 l 2,16,17
 864 1510 864 1510 1012 1414 c 128,-1,18
 1160 1318 1160 1318 1160 1106 c 2,19,-1
 1160 904 l 2,20,21
 1160 693 1160 693 1012 596 c 0,22,23
 865 500 865 500 655 500 c 2,24,-1
 400 500 l 1,25,-1
 400 70 l 1,26,-1
 210 -20 l 1,12,-1
EndSplineSet
Validated: 1
EndChar

StartChar: Q
Encoding: 81 81 52
Width: 1330
GlyphClass: 2
Flags: W
HStem: -40 21G<897.122 963.41> -20 90<459.445 817.598> 1440 90<458.798 871.904>
VStem: 160 200<186.817 1323.18> 970 200<233.876 1323.18>
DStem2: 750 540 564 457 0.572465 -0.819929<0 374.226 528.798 567.726>
LayerCount: 2
Fore
SplineSet
564 457 m 1,0,-1
 740 540 l 1,1,-1
 750 540 l 1,2,-1
 964 233 l 1,3,4
 970 261 970 261 970 294 c 2,5,-1
 970 1216 l 2,6,7
 970 1343 970 1343 881 1391.5 c 128,-1,8
 792 1440 792 1440 665.5 1440 c 128,-1,9
 539 1440 539 1440 449.5 1391.5 c 128,-1,10
 360 1343 360 1343 360 1216 c 2,11,-1
 360 294 l 2,12,13
 360 167 360 167 450 118 c 0,14,15
 540 70 540 70 666 70 c 0,16,17
 751 70 751 70 819 92 c 1,18,-1
 564 457 l 1,0,-1
666 -20 m 0,19,20
 456 -20 456 -20 308 76 c 128,-1,21
 160 172 160 172 160 384 c 2,22,-1
 160 1126 l 2,23,24
 160 1338 160 1338 307.5 1434 c 128,-1,25
 455 1530 455 1530 665.5 1530 c 128,-1,26
 876 1530 876 1530 1023 1434 c 128,-1,27
 1170 1338 1170 1338 1170 1126 c 2,28,-1
 1170 384 l 2,29,30
 1170 198 1170 198 1057 101 c 1,31,-1
 1097 43 l 1,32,-1
 921 -40 l 1,33,-1
 911 -40 l 1,34,-1
 877 9 l 1,35,36
 781 -20 781 -20 666 -20 c 0,19,20
EndSplineSet
Validated: 1
EndChar

StartChar: R
Encoding: 82 82 53
Width: 1294
GlyphClass: 2
Flags: W
HStem: -20 21G<200 252.222 1003.85 1072.82> 500 90<400 650> 1420 90<400 851.664>
VStem: 200 200<70 500 590 1420> 950 210<707.313 1303.18>
DStem2: 874 531 650 500 0.577669 -0.816271<0 532.95>
LayerCount: 2
Fore
SplineSet
400 590 m 1,0,-1
 645 590 l 2,1,2
 772 590 772 590 860 638 c 0,3,4
 950 686 950 686 950 814 c 2,5,-1
 950 1196 l 2,6,7
 950 1324 950 1324 860 1372 c 0,8,9
 772 1420 772 1420 645 1420 c 2,10,-1
 400 1420 l 1,11,-1
 400 590 l 1,0,-1
210 -20 m 1,12,-1
 200 -20 l 1,13,-1
 200 1440 l 1,14,-1
 348 1510 l 1,15,-1
 655 1510 l 2,16,17
 864 1510 864 1510 1012 1414 c 128,-1,18
 1160 1318 1160 1318 1160 1106 c 2,19,-1
 1160 904 l 2,20,21
 1160 693 1160 693 1012 596 c 0,22,23
 949 555 949 555 874 531 c 1,24,-1
 1214 63 l 1,25,-1
 1028 -20 l 1,26,-1
 1018 -20 l 1,27,-1
 650 500 l 1,28,-1
 400 500 l 1,29,-1
 400 70 l 1,30,-1
 210 -20 l 1,12,-1
EndSplineSet
Validated: 1
EndChar

StartChar: T
Encoding: 84 84 54
Width: 1070
GlyphClass: 2
Flags: W
HStem: -20 21G<435 487.222> 1420 90<48 435 635 1022>
VStem: 435 200<70 1420>
LayerCount: 2
Fore
SplineSet
435 -20 m 1,0,-1
 435 1420 l 1,1,-1
 10 1420 l 1,2,-1
 10 1430 l 1,3,-1
 48 1510 l 1,4,-1
 1060 1510 l 1,5,-1
 1060 1500 l 1,6,-1
 1022 1420 l 1,7,-1
 635 1420 l 1,8,-1
 635 70 l 1,9,-1
 445 -20 l 1,10,-1
 435 -20 l 1,0,-1
EndSplineSet
Validated: 1
EndChar

StartChar: U
Encoding: 85 85 55
Width: 1370
GlyphClass: 2
Flags: W
HStem: -20 90<478.096 891.202> 1510 20G<327.778 380 1137.78 1190>
VStem: 180 200<186.817 1440> 990 200<186.817 1440>
LayerCount: 2
Fore
SplineSet
684.5 -20 m 128,-1,1
 474 -20 474 -20 327 76 c 128,-1,2
 180 172 180 172 180 384 c 2,3,-1
 180 1440 l 17,4,-1
 370 1530 l 1,5,-1
 380 1530 l 9,6,-1
 380 294 l 2,7,8
 380 167 380 167 469 118.5 c 128,-1,9
 558 70 558 70 684.5 70 c 128,-1,10
 811 70 811 70 900.5 118.5 c 128,-1,11
 990 167 990 167 990 294 c 2,12,-1
 990 1440 l 17,13,-1
 1180 1530 l 1,14,-1
 1190 1530 l 9,15,-1
 1190 384 l 2,16,17
 1190 172 1190 172 1042.5 76 c 128,-1,0
 895 -20 895 -20 684.5 -20 c 128,-1,1
EndSplineSet
Validated: 1
EndChar

StartChar: V
Encoding: 86 86 56
Width: 1243
GlyphClass: 2
Flags: W
HStem: -20 21G<519.903 579.133> 1510 20G<129.722 189.136 1135.58 1194.46>
DStem2: 182 1530 5 1451 0.334428 -0.942421<15.2575 1401.51> 653 210 695 55 0.354123 0.935199<0 1403.28>
LayerCount: 2
Fore
SplineSet
537 -20 m 1,0,-1
 527 -20 l 1,1,-1
 5 1451 l 1,2,-1
 172 1530 l 1,3,-1
 182 1530 l 1,4,-1
 653 210 l 1,5,-1
 1143 1530 l 1,6,-1
 1153 1530 l 1,7,-1
 1238 1489 l 1,8,-1
 695 55 l 1,9,-1
 537 -20 l 1,0,-1
EndSplineSet
Validated: 1
EndChar

StartChar: W
Encoding: 87 87 57
Width: 2180
GlyphClass: 2
Flags: W
HStem: -20 90<478.041 890.828 1288.1 1701.2> 1510 20G<327.778 380 1137.78 1190 1947.78 2000>
VStem: 180 200<186.817 1440> 990 200<154.215 1440> 1800 200<186.817 1440>
CounterMasks: 1 38
LayerCount: 2
Fore
SplineSet
684 -20 m 128,-1,1
 474 -20 474 -20 327 76 c 128,-1,2
 180 172 180 172 180 384 c 2,3,-1
 180 1440 l 1,4,-1
 370 1530 l 1,5,-1
 380 1530 l 1,6,-1
 380 294 l 2,7,8
 380 167 380 167 469 118.5 c 128,-1,9
 558 70 558 70 684.5 70 c 128,-1,10
 811 70 811 70 900.5 118.5 c 128,-1,11
 990 167 990 167 990 294 c 2,12,-1
 990 1440 l 1,13,-1
 1180 1530 l 1,14,-1
 1190 1530 l 1,15,-1
 1190 294 l 2,16,17
 1190 167 1190 167 1279 118.5 c 128,-1,18
 1368 70 1368 70 1494.5 70 c 128,-1,19
 1621 70 1621 70 1710.5 118.5 c 128,-1,20
 1800 167 1800 167 1800 294 c 2,21,-1
 1800 1440 l 1,22,-1
 1990 1530 l 1,23,-1
 2000 1530 l 1,24,-1
 2000 384 l 2,25,26
 2000 172 2000 172 1852.5 76 c 128,-1,27
 1705 -20 1705 -20 1494.5 -20 c 128,-1,28
 1284 -20 1284 -20 1137 76 c 0,29,30
 1111 93 1111 93 1090 113 c 1,31,32
 1068 93 1068 93 1042 76 c 0,33,0
 894 -20 894 -20 684 -20 c 128,-1,1
EndSplineSet
Validated: 1
EndChar

StartChar: X
Encoding: 88 88 58
Width: 1159
GlyphClass: 2
Flags: W
HStem: -20 21G<84.561 150.041 932.712 997.597> 1510 20G<162.692 227.257 1007.99 1072.9>
DStem2: 215 1530 40 1452 0.523064 -0.852293<0 748.281 954.087 1702.89> 40 21 137 -20 0.545047 0.838406<18.4949 780.137 1038.75 1799.84>
LayerCount: 2
Fore
SplineSet
137 -20 m 1,0,-1
 127 -20 l 1,1,-1
 40 21 l 1,2,-1
 492 717 l 1,3,-1
 40 1452 l 1,4,-1
 205 1530 l 1,5,-1
 215 1530 l 1,6,-1
 606 892 l 1,7,-1
 1021 1530 l 1,8,-1
 1031 1530 l 1,9,-1
 1119 1488 l 1,10,-1
 667 794 l 1,11,-1
 1119 57 l 1,12,-1
 955 -20 l 1,13,-1
 945 -20 l 1,14,-1
 553 618 l 1,15,-1
 137 -20 l 1,0,-1
EndSplineSet
Validated: 1
EndChar

StartChar: Y
Encoding: 89 89 59
Width: 1230
GlyphClass: 2
Flags: W
HStem: -20 21G<515 567.222> 1510 20G<267.778 320 1057.78 1110>
VStem: 120 200<638.817 1440> 515 200<70 444.943> 910 200<638.817 1440>
CounterMasks: 1 38
LayerCount: 2
Fore
SplineSet
525 -20 m 1,0,-1
 515 -20 l 1,1,-1
 515 438 l 1,2,3
 376 456 376 456 267 528 c 0,4,5
 120 624 120 624 120 836 c 2,6,-1
 120 1440 l 1,7,-1
 310 1530 l 1,8,-1
 320 1530 l 1,9,-1
 320 746 l 2,10,11
 320 619 320 619 409 570.5 c 128,-1,12
 498 522 498 522 614.5 522 c 128,-1,13
 731 522 731 522 820.5 570.5 c 128,-1,14
 910 619 910 619 910 746 c 2,15,-1
 910 1440 l 1,16,-1
 1100 1530 l 1,17,-1
 1110 1530 l 1,18,-1
 1110 836 l 2,19,20
 1110 624 1110 624 962 528 c 0,21,22
 853 457 853 457 715 438 c 1,23,-1
 715 70 l 1,24,-1
 525 -20 l 1,0,-1
EndSplineSet
Validated: 1
EndChar

StartChar: Z
Encoding: 90 90 60
Width: 1040
GlyphClass: 2
Flags: W
HStem: 0 90<286 962> 1420 90<108 751>
DStem2: 40 10 286 90 0.451763 0.892138<182.505 1579.12>
LayerCount: 2
Fore
SplineSet
40 0 m 1,0,-1
 40 10 l 1,1,-1
 751 1420 l 1,2,-1
 70 1420 l 1,3,-1
 70 1430 l 1,4,-1
 108 1510 l 1,5,-1
 1000 1510 l 1,6,-1
 1000 1500 l 1,7,-1
 286 90 l 1,8,-1
 1000 90 l 1,9,-1
 1000 80 l 1,10,-1
 962 0 l 1,11,-1
 40 0 l 1,0,-1
EndSplineSet
Validated: 1
EndChar

StartChar: bracketleft
Encoding: 91 91 61
Width: 880
GlyphClass: 2
Flags: W
HStem: -240 90<400 792> 1660 90<400 792>
VStem: 200 200<-150 1660>
LayerCount: 2
Fore
SplineSet
200 -240 m 1,0,-1
 200 1660 l 1,1,-1
 390 1750 l 1,2,-1
 830 1750 l 1,3,-1
 830 1740 l 1,4,-1
 792 1660 l 1,5,-1
 400 1660 l 1,6,-1
 400 -150 l 1,7,-1
 830 -150 l 1,8,-1
 830 -160 l 1,9,-1
 792 -240 l 1,10,-1
 200 -240 l 1,0,-1
EndSplineSet
Validated: 1
EndChar

StartChar: backslash
Encoding: 92 92 62
Width: 1019
GlyphClass: 2
Flags: W
DStem2: 148 1710 10 1648 0.422724 -0.906258<0 2037.01>
LayerCount: 2
Fore
SplineSet
882 -200 m 1,0,-1
 872 -200 l 1,1,-1
 10 1648 l 1,2,-1
 138 1710 l 1,3,-1
 148 1710 l 1,4,-1
 1009 -138 l 1,5,-1
 882 -200 l 1,0,-1
EndSplineSet
Validated: 1
EndChar

StartChar: bracketright
Encoding: 93 93 63
Width: 880
GlyphClass: 2
Flags: W
HStem: -240 90<88 480> 1660 90<88 480>
VStem: 480 200<-150 1660>
LayerCount: 2
Fore
SplineSet
490 -240 m 1,0,-1
 50 -240 l 1,1,-1
 50 -230 l 1,2,-1
 88 -150 l 1,3,-1
 480 -150 l 1,4,-1
 480 1660 l 1,5,-1
 50 1660 l 1,6,-1
 50 1670 l 1,7,-1
 88 1750 l 1,8,-1
 680 1750 l 1,9,-1
 680 -150 l 1,10,-1
 490 -240 l 1,0,-1
EndSplineSet
Validated: 1
EndChar

StartChar: asciicircum
Encoding: 94 94 64
Width: 905
GlyphClass: 2
Flags: W
HStem: 1160 410
DStem2: 50 1197 136 1160 0.704664 0.709541<34.3481 410.124> 522 1570 417 1441 0.701818 -0.712356<18.203 411.375>
LayerCount: 2
Fore
SplineSet
512 1570 m 1,0,-1
 522 1570 l 1,1,-1
 855 1232 l 1,2,-1
 702 1160 l 1,3,-1
 692 1160 l 1,4,-1
 417 1441 l 1,5,-1
 136 1160 l 1,6,-1
 126 1160 l 1,7,-1
 50 1197 l 1,8,-1
 339 1488 l 1,9,-1
 512 1570 l 1,0,-1
EndSplineSet
Validated: 1
EndChar

StartChar: underscore
Encoding: 95 95 65
Width: 1364
GlyphClass: 2
Flags: W
HStem: -410 120<202 1162>
LayerCount: 2
Fore
SplineSet
150 -410 m 1,0,-1
 150 -400 l 1,1,-1
 202 -290 l 1,2,-1
 1214 -290 l 1,3,-1
 1214 -300 l 1,4,-1
 1162 -410 l 1,5,-1
 150 -410 l 1,0,-1
EndSplineSet
Validated: 1
EndChar

StartChar: grave
Encoding: 96 96 66
Width: 377
GlyphClass: 2
Flags: W
HStem: 1160 367
VStem: 50 277
DStem2: 180 1527 50 1470 0.427336 -0.904093<0 339.921>
LayerCount: 2
Fore
SplineSet
170 1527 m 1,0,-1
 180 1527 l 1,1,-1
 327 1216 l 1,2,-1
 209 1160 l 1,3,-1
 199 1160 l 1,4,-1
 50 1470 l 1,5,-1
 170 1527 l 1,0,-1
EndSplineSet
Validated: 1
EndChar

StartChar: a
Encoding: 97 97 67
Width: 1060
GlyphClass: 2
Flags: W
HStem: -20 80<336.863 632.556> 665 80<336.863 632.325> 1020 80<273 627.19>
VStem: 80 190<143.809 581.191> 700 180<115.873 609.127 677 936.191>
LayerCount: 2
Fore
SplineSet
710 -20 m 1,0,-1
 700 -20 l 1,1,-1
 700 48 l 1,2,3
 616 -20 616 -20 480 -20 c 0,4,5
 323 -20 323 -20 201.5 62 c 128,-1,6
 80 144 80 144 80 318 c 2,7,-1
 80 407 l 2,8,9
 80 581 80 581 201.5 663 c 128,-1,10
 323 745 323 745 480 745 c 0,11,12
 615 745 615 745 700 677 c 1,13,-1
 700 838 l 2,14,15
 700 937 700 937 631.5 978.5 c 128,-1,16
 563 1020 563 1020 465 1020 c 2,17,-1
 240 1020 l 1,18,-1
 240 1030 l 1,19,-1
 273 1100 l 1,20,-1
 465 1100 l 2,21,22
 637 1100 637 1100 758.5 1018 c 128,-1,23
 880 936 880 936 880 762 c 2,24,-1
 880 61 l 1,25,-1
 710 -20 l 1,0,-1
482.5 60 m 128,-1,27
 568 60 568 60 636.5 101.5 c 128,-1,28
 705 143 705 143 705 242 c 2,29,-1
 705 483 l 2,30,31
 705 582 705 582 636.5 623.5 c 128,-1,32
 568 665 568 665 482.5 665 c 128,-1,33
 397 665 397 665 333.5 623.5 c 128,-1,34
 270 582 270 582 270 483 c 2,35,-1
 270 242 l 2,36,37
 270 143 270 143 333.5 101.5 c 128,-1,26
 397 60 397 60 482.5 60 c 128,-1,27
EndSplineSet
Validated: 1
EndChar

StartChar: b
Encoding: 98 98 68
Width: 1170
GlyphClass: 2
Flags: W
HStem: -20 80<431.931 751.137> 1040 80<431.913 751.137> 1510 20G<308.025 360>
VStem: 180 180<143.809 979.268 1051 1449> 820 190<143.809 956.191>
LayerCount: 2
Fore
SplineSet
595 -20 m 128,-1,1
 423 -20 423 -20 301.5 62 c 128,-1,2
 180 144 180 144 180 318 c 2,3,-1
 180 1449 l 1,4,-1
 350 1530 l 1,5,-1
 360 1530 l 1,6,-1
 360 1051 l 1,7,8
 441 1120 441 1120 595 1120 c 0,9,10
 767 1120 767 1120 888.5 1038 c 128,-1,11
 1010 956 1010 956 1010 782 c 2,12,-1
 1010 318 l 2,13,14
 1010 144 1010 144 888.5 62 c 128,-1,0
 767 -20 767 -20 595 -20 c 128,-1,1
595 60 m 128,-1,16
 693 60 693 60 756.5 101.5 c 128,-1,17
 820 143 820 143 820 242 c 2,18,-1
 820 858 l 2,19,20
 820 957 820 957 756.5 998.5 c 128,-1,21
 693 1040 693 1040 595 1040 c 128,-1,22
 497 1040 497 1040 428.5 998.5 c 128,-1,23
 360 957 360 957 360 858 c 2,24,-1
 360 242 l 2,25,26
 360 143 360 143 428.5 101.5 c 128,-1,15
 497 60 497 60 595 60 c 128,-1,16
EndSplineSet
Validated: 1
EndChar

StartChar: c
Encoding: 99 99 69
Width: 1070
GlyphClass: 2
Flags: W
HStem: -20 80<418.863 729.964> 1040 80<418.863 729.905>
VStem: 160 190<143.809 956.191> 795 195<143.809 300 808.181 958.895>
LayerCount: 2
Fore
SplineSet
575 -20 m 128,-1,1
 403 -20 403 -20 281.5 62 c 128,-1,2
 160 144 160 144 160 318 c 2,3,-1
 160 782 l 2,4,5
 160 956 160 956 281.5 1038 c 128,-1,6
 403 1120 403 1120 575 1120 c 128,-1,7
 747 1120 747 1120 868 1038 c 0,8,9
 978 964 978 964 989 815 c 1,10,-1
 805 727 l 1,11,-1
 795 727 l 1,12,-1
 795 858 l 2,13,14
 795 957 795 957 734 998.5 c 128,-1,15
 673 1040 673 1040 575 1040 c 128,-1,16
 477 1040 477 1040 413.5 998.5 c 128,-1,17
 350 957 350 957 350 858 c 2,18,-1
 350 242 l 2,19,20
 350 143 350 143 413.5 101.5 c 128,-1,21
 477 60 477 60 575 60 c 128,-1,22
 673 60 673 60 734 101.5 c 128,-1,23
 795 143 795 143 795 242 c 2,24,-1
 795 300 l 1,25,-1
 980 388 l 1,26,-1
 990 388 l 1,27,-1
 990 318 l 2,28,29
 990 144 990 144 868.5 62 c 128,-1,0
 747 -20 747 -20 575 -20 c 128,-1,1
EndSplineSet
Validated: 1
EndChar

StartChar: d
Encoding: 100 100 70
Width: 1170
GlyphClass: 2
Flags: W
HStem: -20 80<418.863 738.069> 1040 80<418.863 738.087> 1510 20G<938.025 990>
VStem: 160 190<143.809 956.191> 810 180<143.809 979.268 1051 1449>
LayerCount: 2
Fore
SplineSet
575 -20 m 128,-1,1
 403 -20 403 -20 281.5 62 c 128,-1,2
 160 144 160 144 160 318 c 2,3,-1
 160 782 l 2,4,5
 160 956 160 956 281.5 1038 c 128,-1,6
 403 1120 403 1120 575 1120 c 0,7,8
 729 1120 729 1120 810 1051 c 1,9,-1
 810 1449 l 1,10,-1
 980 1530 l 1,11,-1
 990 1530 l 1,12,-1
 990 318 l 2,13,14
 990 144 990 144 868.5 62 c 128,-1,0
 747 -20 747 -20 575 -20 c 128,-1,1
575 60 m 128,-1,16
 673 60 673 60 741.5 101.5 c 128,-1,17
 810 143 810 143 810 242 c 2,18,-1
 810 858 l 2,19,20
 810 957 810 957 741.5 998.5 c 128,-1,21
 673 1040 673 1040 575 1040 c 128,-1,22
 477 1040 477 1040 413.5 998.5 c 128,-1,23
 350 957 350 957 350 858 c 2,24,-1
 350 242 l 2,25,26
 350 143 350 143 413.5 101.5 c 128,-1,15
 477 60 477 60 575 60 c 128,-1,16
EndSplineSet
Validated: 1
EndChar

StartChar: e
Encoding: 101 101 71
Width: 1150
GlyphClass: 2
Flags: W
HStem: -20 80<418.863 729.964> 1040 80<418.863 738.069>
VStem: 160 190<143.809 338 433 956.191> 795 195<143.809 300> 810 180<654 956.191>
DStem2: 350 433 350 338 0.902182 0.431356<0 510.333>
LayerCount: 2
Fore
SplineSet
575 -20 m 128,-1,1
 403 -20 403 -20 281.5 62 c 128,-1,2
 160 144 160 144 160 318 c 2,3,-1
 160 782 l 2,4,5
 160 956 160 956 281.5 1038 c 128,-1,6
 403 1120 403 1120 575 1120 c 128,-1,7
 747 1120 747 1120 868.5 1038 c 128,-1,8
 990 956 990 956 990 782 c 2,9,-1
 990 644 l 1,10,-1
 350 338 l 1,11,-1
 350 242 l 2,12,13
 350 143 350 143 413.5 101.5 c 128,-1,14
 477 60 477 60 575 60 c 128,-1,15
 673 60 673 60 734 101.5 c 128,-1,16
 795 143 795 143 795 242 c 2,17,-1
 795 300 l 1,18,-1
 980 388 l 1,19,-1
 990 388 l 1,20,-1
 990 318 l 2,21,22
 990 144 990 144 868.5 62 c 128,-1,0
 747 -20 747 -20 575 -20 c 128,-1,1
350 433 m 1,23,-1
 810 654 l 1,24,-1
 810 858 l 2,25,26
 810 957 810 957 741.5 998.5 c 128,-1,27
 673 1040 673 1040 575 1040 c 128,-1,28
 477 1040 477 1040 413.5 998.5 c 128,-1,29
 350 957 350 957 350 858 c 2,30,-1
 350 433 l 1,23,-1
EndSplineSet
Validated: 1
EndChar

StartChar: f
Encoding: 102 102 72
Width: 780
GlyphClass: 2
Flags: W
HStem: -20 21G<180 231.975> 820 80<360 698> 1430 80<435.625 737>
VStem: 180 180<61 820 900 1346.19>
LayerCount: 2
Fore
SplineSet
190 -20 m 1,0,-1
 180 -20 l 1,1,-1
 180 1172 l 2,2,3
 180 1346 180 1346 301.5 1428 c 128,-1,4
 423 1510 423 1510 595 1510 c 2,5,-1
 770 1510 l 1,6,-1
 770 1500 l 1,7,-1
 737 1430 l 1,8,-1
 595 1430 l 2,9,10
 498 1430 498 1430 428 1388 c 0,11,12
 360 1347 360 1347 360 1248 c 2,13,-1
 360 900 l 1,14,-1
 731 900 l 1,15,-1
 731 890 l 1,16,-1
 698 820 l 1,17,-1
 360 820 l 1,18,-1
 360 61 l 1,19,-1
 190 -20 l 1,0,-1
EndSplineSet
Validated: 1
EndChar

StartChar: g
Encoding: 103 103 73
Width: 1170
GlyphClass: 2
Flags: W
HStem: -410 80<333 736.75> -20 80<418.863 737.93> 1040 80<418.863 738.069>
VStem: 160 190<143.809 956.191> 810 180<-244.262 49 120.732 956.191>
LayerCount: 2
Fore
SplineSet
300 -410 m 1,0,-1
 300 -400 l 1,1,-1
 333 -330 l 1,2,-1
 575 -330 l 2,3,4
 673 -330 673 -330 741.5 -288.5 c 128,-1,5
 810 -247 810 -247 810 -148 c 2,6,-1
 810 49 l 1,7,8
 721 -20 721 -20 575 -20 c 0,9,10
 403 -20 403 -20 281.5 62 c 128,-1,11
 160 144 160 144 160 318 c 2,12,-1
 160 782 l 2,13,14
 160 956 160 956 281.5 1038 c 128,-1,15
 403 1120 403 1120 575 1120 c 128,-1,16
 747 1120 747 1120 868.5 1038 c 128,-1,17
 990 956 990 956 990 782 c 2,18,-1
 990 -72 l 2,19,20
 990 -242 990 -242 868 -328 c 0,21,22
 752 -410 752 -410 575 -410 c 2,23,-1
 300 -410 l 1,0,-1
575 60 m 128,-1,25
 673 60 673 60 741.5 101.5 c 128,-1,26
 810 143 810 143 810 242 c 2,27,-1
 810 858 l 2,28,29
 810 957 810 957 741.5 998.5 c 128,-1,30
 673 1040 673 1040 575 1040 c 128,-1,31
 477 1040 477 1040 413.5 998.5 c 128,-1,32
 350 957 350 957 350 858 c 2,33,-1
 350 242 l 2,34,35
 350 143 350 143 413.5 101.5 c 128,-1,24
 477 60 477 60 575 60 c 128,-1,25
EndSplineSet
Validated: 1
EndChar

StartChar: h
Encoding: 104 104 74
Width: 1210
GlyphClass: 2
Flags: W
HStem: -20 21G<200 251.975 850 901.975> 1040 80<453.553 778.069> 1510 20G<328.025 380>
VStem: 200 180<61 979.268 1051 1449> 850 180<61 956.191>
LayerCount: 2
Fore
SplineSet
210 -20 m 1,0,-1
 200 -20 l 1,1,-1
 200 1449 l 1,2,-1
 370 1530 l 1,3,-1
 380 1530 l 1,4,-1
 380 1051 l 1,5,6
 468 1120 468 1120 615 1120 c 0,7,8
 787 1120 787 1120 908.5 1038 c 128,-1,9
 1030 956 1030 956 1030 782 c 2,10,-1
 1030 61 l 1,11,-1
 860 -20 l 1,12,-1
 850 -20 l 1,13,-1
 850 858 l 2,14,15
 850 957 850 957 781.5 998.5 c 128,-1,16
 713 1040 713 1040 615 1040 c 128,-1,17
 517 1040 517 1040 448.5 998.5 c 128,-1,18
 380 957 380 957 380 858 c 2,19,-1
 380 61 l 1,20,-1
 210 -20 l 1,0,-1
EndSplineSet
Validated: 1
EndChar

StartChar: i
Encoding: 105 105 75
Width: 580
GlyphClass: 2
Flags: W
HStem: -20 21G<200 251.975> 1100 20G<328.025 380> 1220 245<206.097 373.903>
VStem: 170 240<1257.13 1427.87> 200 180<61 1039>
LayerCount: 2
Fore
SplineSet
200 -20 m 1,0,-1
 200 1039 l 1,1,-1
 370 1120 l 1,2,-1
 380 1120 l 1,3,-1
 380 61 l 1,4,-1
 210 -20 l 1,5,-1
 200 -20 l 1,0,-1
290 1465 m 128,-1,7
 340 1465 340 1465 375 1429 c 128,-1,8
 410 1393 410 1393 410 1342.5 c 128,-1,9
 410 1292 410 1292 375 1256 c 128,-1,10
 340 1220 340 1220 290 1220 c 128,-1,11
 240 1220 240 1220 205 1256 c 128,-1,12
 170 1292 170 1292 170 1342.5 c 128,-1,13
 170 1393 170 1393 205 1429 c 128,-1,6
 240 1465 240 1465 290 1465 c 128,-1,7
EndSplineSet
Validated: 1
EndChar

StartChar: j
Encoding: 106 106 76
Width: 580
GlyphClass: 2
Flags: W
HStem: -410 80<-2 124.375> 1100 20G<328.025 380> 1220 245<206.097 373.903>
VStem: 170 240<1257.13 1427.87> 200 180<-246.191 1039>
LayerCount: 2
Fore
SplineSet
-35 -410 m 1,0,-1
 -35 -400 l 1,1,-1
 -2 -330 l 1,2,3
 71 -324 71 -324 132 -288 c 0,4,5
 200 -248 200 -248 200 -148 c 2,6,-1
 200 1039 l 17,7,-1
 370 1120 l 1,8,-1
 380 1120 l 9,9,-1
 380 -72 l 2,10,11
 380 -246 380 -246 258.5 -328 c 128,-1,12
 137 -410 137 -410 -35 -410 c 1,0,-1
290 1465 m 128,-1,14
 340 1465 340 1465 375 1429 c 128,-1,15
 410 1393 410 1393 410 1342.5 c 128,-1,16
 410 1292 410 1292 375 1256 c 128,-1,17
 340 1220 340 1220 290 1220 c 128,-1,18
 240 1220 240 1220 205 1256 c 128,-1,19
 170 1292 170 1292 170 1342.5 c 128,-1,20
 170 1393 170 1393 205 1429 c 128,-1,13
 240 1465 240 1465 290 1465 c 128,-1,14
EndSplineSet
Validated: 1
EndChar

StartChar: k
Encoding: 107 107 77
Width: 1170
GlyphClass: 2
Flags: W
HStem: -20 21G<200 251.975 830 881.975> 700 82<575.326 759.311> 1100 20G<856.384 934> 1510 20G<328.025 380>
VStem: 200 180<61 639.268 755 1449> 830 180<61 617.639>
DStem2: 380 755 575 782 0.809916 0.586546<173.77 622.287>
LayerCount: 2
Fore
SplineSet
210 -20 m 1,0,-1
 200 -20 l 1,1,-1
 200 1449 l 1,2,-1
 370 1530 l 1,3,-1
 380 1530 l 1,4,-1
 380 755 l 1,5,-1
 884 1120 l 1,6,-1
 894 1120 l 1,7,-1
 982 1076 l 1,8,-1
 575 782 l 1,9,-1
 605 782 l 2,10,11
 781 782 781 782 888 698 c 0,12,13
 1010 619 1010 619 1010 442 c 2,14,-1
 1010 61 l 1,15,-1
 840 -20 l 1,16,-1
 830 -20 l 1,17,-1
 830 518 l 2,18,19
 830 617 830 617 761.5 658.5 c 128,-1,20
 693 700 693 700 605 700 c 128,-1,21
 517 700 517 700 448.5 658.5 c 128,-1,22
 380 617 380 617 380 518 c 2,23,-1
 380 61 l 1,24,-1
 210 -20 l 1,0,-1
EndSplineSet
Validated: 1
EndChar

StartChar: l
Encoding: 108 108 78
Width: 580
GlyphClass: 2
Flags: W
HStem: -20 21G<200 251.975> 1510 20G<328.025 380>
VStem: 200 180<61 1449>
LayerCount: 2
Fore
SplineSet
200 -20 m 1,0,-1
 200 1449 l 1,1,-1
 370 1530 l 1,2,-1
 380 1530 l 1,3,-1
 380 61 l 1,4,-1
 210 -20 l 1,5,-1
 200 -20 l 1,0,-1
EndSplineSet
Validated: 1
EndChar

StartChar: m
Encoding: 109 109 79
Width: 1840
GlyphClass: 2
Flags: W
HStem: -20 21G<180 231.975 830 881.975 1480 1531.98> 1040 80<431.931 756.504 1082.31 1405.84>
VStem: 180 180<61 956.191> 830 180<61 979.268> 1480 180<61 956.191>
CounterMasks: 1 38
LayerCount: 2
Fore
SplineSet
190 -20 m 1,0,-1
 180 -20 l 1,1,-1
 180 782 l 2,2,3
 180 956 180 956 301.5 1038 c 128,-1,4
 423 1120 423 1120 595 1120 c 0,5,6
 761 1120 761 1120 888 1038 c 0,7,8
 905 1027 905 1027 920 1013 c 1,9,10
 936 1026 936 1026 952 1038 c 0,11,12
 1074 1120 1074 1120 1245.5 1120 c 128,-1,13
 1417 1120 1417 1120 1538.5 1038 c 128,-1,14
 1660 956 1660 956 1660 782 c 2,15,-1
 1660 61 l 1,16,-1
 1490 -20 l 1,17,-1
 1480 -20 l 1,18,-1
 1480 858 l 2,19,20
 1480 957 1480 957 1411.5 998.5 c 128,-1,21
 1343 1040 1343 1040 1245 1040 c 128,-1,22
 1147 1040 1147 1040 1078.5 998.5 c 128,-1,23
 1010 957 1010 957 1010 858 c 2,24,-1
 1010 61 l 1,25,-1
 840 -20 l 1,26,-1
 830 -20 l 1,27,-1
 830 858 l 2,28,29
 830 957 830 957 761.5 998.5 c 128,-1,30
 693 1040 693 1040 595 1040 c 128,-1,31
 497 1040 497 1040 428.5 998.5 c 128,-1,32
 360 957 360 957 360 858 c 2,33,-1
 360 61 l 1,34,-1
 190 -20 l 1,0,-1
EndSplineSet
Validated: 1
EndChar

StartChar: n
Encoding: 110 110 80
Width: 1190
GlyphClass: 2
Flags: W
HStem: -20 21G<180 231.975 830 881.975> 1040 80<431.931 758.069>
VStem: 180 180<61 956.191> 830 180<61 956.191>
LayerCount: 2
Fore
SplineSet
190 -20 m 1,0,-1
 180 -20 l 9,1,-1
 180 782 l 2,2,3
 180 956 180 956 301.5 1038 c 128,-1,4
 423 1120 423 1120 595 1120 c 128,-1,5
 767 1120 767 1120 888.5 1038 c 128,-1,6
 1010 956 1010 956 1010 782 c 2,7,-1
 1010 61 l 17,8,-1
 840 -20 l 1,9,-1
 830 -20 l 9,10,-1
 830 858 l 2,11,12
 830 957 830 957 761.5 998.5 c 128,-1,13
 693 1040 693 1040 595 1040 c 128,-1,14
 497 1040 497 1040 428.5 998.5 c 128,-1,15
 360 957 360 957 360 858 c 2,16,-1
 360 61 l 17,17,-1
 190 -20 l 1,0,-1
EndSplineSet
Validated: 1
EndChar

StartChar: o
Encoding: 111 111 81
Width: 1150
GlyphClass: 2
Flags: W
HStem: -20 80<418.863 731.137> 1040 80<418.863 731.137>
VStem: 160 190<143.809 956.191> 800 190<143.809 956.191>
LayerCount: 2
Fore
SplineSet
575 60 m 128,-1,1
 673 60 673 60 736.5 101.5 c 128,-1,2
 800 143 800 143 800 242 c 2,3,-1
 800 858 l 2,4,5
 800 957 800 957 736.5 998.5 c 128,-1,6
 673 1040 673 1040 575 1040 c 128,-1,7
 477 1040 477 1040 413.5 998.5 c 128,-1,8
 350 957 350 957 350 858 c 2,9,-1
 350 242 l 2,10,11
 350 143 350 143 413.5 101.5 c 128,-1,0
 477 60 477 60 575 60 c 128,-1,1
575 -20 m 128,-1,13
 403 -20 403 -20 281.5 62 c 128,-1,14
 160 144 160 144 160 318 c 2,15,-1
 160 782 l 2,16,17
 160 956 160 956 281.5 1038 c 128,-1,18
 403 1120 403 1120 575 1120 c 128,-1,19
 747 1120 747 1120 868.5 1038 c 128,-1,20
 990 956 990 956 990 782 c 2,21,-1
 990 318 l 2,22,23
 990 144 990 144 868.5 62 c 128,-1,12
 747 -20 747 -20 575 -20 c 128,-1,13
EndSplineSet
Validated: 1
EndChar

StartChar: p
Encoding: 112 112 82
Width: 1170
GlyphClass: 2
Flags: W
HStem: -430 21G<180 231.975> -20 80<431.913 751.137> 1040 80<431.931 751.137>
VStem: 180 180<-349 49 120.732 956.191> 820 190<143.809 956.191>
LayerCount: 2
Fore
SplineSet
190 -430 m 1,0,-1
 180 -430 l 1,1,-1
 180 782 l 2,2,3
 180 956 180 956 301.5 1038 c 128,-1,4
 423 1120 423 1120 595 1120 c 128,-1,5
 767 1120 767 1120 888.5 1038 c 128,-1,6
 1010 956 1010 956 1010 782 c 2,7,-1
 1010 318 l 2,8,9
 1010 144 1010 144 888.5 62 c 128,-1,10
 767 -20 767 -20 595 -20 c 0,11,12
 441 -20 441 -20 360 49 c 1,13,-1
 360 -349 l 1,14,-1
 190 -430 l 1,0,-1
595 1040 m 128,-1,16
 497 1040 497 1040 428.5 998.5 c 128,-1,17
 360 957 360 957 360 858 c 2,18,-1
 360 242 l 2,19,20
 360 143 360 143 428.5 101.5 c 128,-1,21
 497 60 497 60 595 60 c 128,-1,22
 693 60 693 60 756.5 101.5 c 128,-1,23
 820 143 820 143 820 242 c 2,24,-1
 820 858 l 2,25,26
 820 957 820 957 756.5 998.5 c 128,-1,15
 693 1040 693 1040 595 1040 c 128,-1,16
EndSplineSet
Validated: 1
EndChar

StartChar: q
Encoding: 113 113 83
Width: 1170
GlyphClass: 2
Flags: W
HStem: -430 21G<810 861.975> -20 80<418.863 738.087> 1040 80<418.863 738.069>
VStem: 160 190<143.809 956.191> 810 180<-349 49 120.732 956.191>
LayerCount: 2
Fore
SplineSet
820 -430 m 1,0,-1
 810 -430 l 1,1,-1
 810 49 l 1,2,3
 729 -20 729 -20 575 -20 c 0,4,5
 403 -20 403 -20 281.5 62 c 128,-1,6
 160 144 160 144 160 318 c 2,7,-1
 160 782 l 2,8,9
 160 956 160 956 281.5 1038 c 128,-1,10
 403 1120 403 1120 575 1120 c 128,-1,11
 747 1120 747 1120 868.5 1038 c 128,-1,12
 990 956 990 956 990 782 c 2,13,-1
 990 -349 l 1,14,-1
 820 -430 l 1,0,-1
575 1040 m 128,-1,16
 477 1040 477 1040 413.5 998.5 c 128,-1,17
 350 957 350 957 350 858 c 2,18,-1
 350 242 l 2,19,20
 350 143 350 143 413.5 101.5 c 128,-1,21
 477 60 477 60 575 60 c 128,-1,22
 673 60 673 60 741.5 101.5 c 128,-1,23
 810 143 810 143 810 242 c 2,24,-1
 810 858 l 2,25,26
 810 957 810 957 741.5 998.5 c 128,-1,15
 673 1040 673 1040 575 1040 c 128,-1,16
EndSplineSet
Validated: 1
EndChar

StartChar: r
Encoding: 114 114 84
Width: 780
GlyphClass: 2
Flags: W
HStem: -20 21G<180 231.975> 1020 80<432.81 737>
VStem: 180 180<61 936.191>
LayerCount: 2
Fore
SplineSet
190 -20 m 1,0,-1
 180 -20 l 9,1,-1
 180 762 l 2,2,3
 180 936 180 936 301.5 1018 c 128,-1,4
 423 1100 423 1100 595 1100 c 2,5,-1
 770 1100 l 1,6,-1
 770 1090 l 1,7,-1
 737 1020 l 1,8,-1
 595 1020 l 2,9,10
 497 1020 497 1020 428.5 978.5 c 128,-1,11
 360 937 360 937 360 838 c 2,12,-1
 360 61 l 17,13,-1
 190 -20 l 1,0,-1
EndSplineSet
Validated: 1
EndChar

StartChar: t
Encoding: 116 116 85
Width: 780
GlyphClass: 2
Flags: W
HStem: -20 21G<300 351.772> 1020 80<43 300 475 737> 1510 20G<423.228 475>
VStem: 300 175<59 1020 1100 1451>
LayerCount: 2
Fore
SplineSet
300 -20 m 1,0,-1
 300 1020 l 1,1,-1
 10 1020 l 1,2,-1
 10 1030 l 1,3,-1
 43 1100 l 1,4,-1
 300 1100 l 1,5,-1
 300 1451 l 1,6,-1
 465 1530 l 1,7,-1
 475 1530 l 1,8,-1
 475 1100 l 1,9,-1
 770 1100 l 1,10,-1
 770 1090 l 1,11,-1
 737 1020 l 1,12,-1
 475 1020 l 1,13,-1
 475 59 l 1,14,-1
 310 -20 l 1,15,-1
 300 -20 l 1,0,-1
EndSplineSet
Validated: 1
EndChar

StartChar: u
Encoding: 117 117 86
Width: 1190
GlyphClass: 2
Flags: W
HStem: -20 80<431.931 758.069> 1100 20G<308.025 360 958.025 1010>
VStem: 180 180<143.809 1039> 830 180<143.809 1039>
LayerCount: 2
Fore
SplineSet
595 -20 m 128,-1,1
 423 -20 423 -20 301.5 62 c 128,-1,2
 180 144 180 144 180 318 c 2,3,-1
 180 1039 l 17,4,-1
 350 1120 l 1,5,-1
 360 1120 l 9,6,-1
 360 242 l 2,7,8
 360 143 360 143 428.5 101.5 c 128,-1,9
 497 60 497 60 595 60 c 128,-1,10
 693 60 693 60 761.5 101.5 c 128,-1,11
 830 143 830 143 830 242 c 2,12,-1
 830 1039 l 17,13,-1
 1000 1120 l 1,14,-1
 1010 1120 l 9,15,-1
 1010 318 l 2,16,17
 1010 144 1010 144 888.5 62 c 128,-1,0
 767 -20 767 -20 595 -20 c 128,-1,1
EndSplineSet
Validated: 1
EndChar

StartChar: v
Encoding: 118 118 87
Width: 963
GlyphClass: 2
Flags: W
HStem: -20 21G<383.765 443.133> 1100 20G<116.082 175.143 866.526 925.111>
DStem2: 168 1120 5 1047 0.340186 -0.940358<13.1959 1025.75> 513 154 559 55 0.361528 0.932361<0 1027.98>
LayerCount: 2
Fore
SplineSet
401 -20 m 1,0,-1
 391 -20 l 1,1,-1
 5 1047 l 1,2,-1
 158 1120 l 1,3,-1
 168 1120 l 1,4,-1
 513 154 l 1,5,-1
 874 1120 l 1,6,-1
 884 1120 l 1,7,-1
 958 1084 l 1,8,-1
 559 55 l 1,9,-1
 401 -20 l 1,0,-1
EndSplineSet
Validated: 1
EndChar

StartChar: w
Encoding: 119 119 88
Width: 1840
GlyphClass: 2
Flags: W
HStem: -20 80<434.155 757.694 1083.5 1408.07> 1100 20G<308.025 360 958.025 1010 1608.02 1660>
VStem: 180 180<143.809 1039> 830 180<120.732 1039> 1480 180<143.809 1039>
CounterMasks: 1 38
LayerCount: 2
Fore
SplineSet
594.5 -20 m 128,-1,1
 423 -20 423 -20 301.5 62 c 128,-1,2
 180 144 180 144 180 318 c 2,3,-1
 180 1039 l 1,4,-1
 350 1120 l 1,5,-1
 360 1120 l 1,6,-1
 360 242 l 2,7,8
 360 143 360 143 428.5 101.5 c 128,-1,9
 497 60 497 60 595 60 c 128,-1,10
 693 60 693 60 761.5 101.5 c 128,-1,11
 830 143 830 143 830 242 c 2,12,-1
 830 1039 l 1,13,-1
 1000 1120 l 1,14,-1
 1010 1120 l 1,15,-1
 1010 242 l 2,16,17
 1010 143 1010 143 1078.5 101.5 c 128,-1,18
 1147 60 1147 60 1245 60 c 128,-1,19
 1343 60 1343 60 1411.5 101.5 c 128,-1,20
 1480 143 1480 143 1480 242 c 2,21,-1
 1480 1039 l 1,22,-1
 1650 1120 l 1,23,-1
 1660 1120 l 1,24,-1
 1660 318 l 2,25,26
 1660 144 1660 144 1538.5 62 c 128,-1,27
 1417 -20 1417 -20 1245 -20 c 0,28,29
 1079 -20 1079 -20 952 62 c 0,30,31
 935 73 935 73 920 87 c 1,32,33
 904 74 904 74 888 62 c 0,34,0
 766 -20 766 -20 594.5 -20 c 128,-1,1
EndSplineSet
Validated: 1
EndChar

StartChar: x
Encoding: 120 120 89
Width: 889
GlyphClass: 2
Flags: W
HStem: -20 21G<72.1429 138.111 682.778 747.353> 1100 20G<142.971 207.205 749.904 815.222>
DStem2: 195 1120 40 1051 0.520806 -0.853675<0 526.001 706.217 1233.59> 40 15 125 -20 0.547515 0.836796<17.2509 555.326 783.822 1320.51>
LayerCount: 2
Fore
SplineSet
125 -20 m 1,0,-1
 115 -20 l 1,1,-1
 40 15 l 1,2,-1
 367 516 l 1,3,-1
 40 1051 l 1,4,-1
 185 1120 l 1,5,-1
 195 1120 l 1,6,-1
 469 671 l 1,7,-1
 763 1120 l 1,8,-1
 773 1120 l 1,9,-1
 849 1084 l 1,10,-1
 522 585 l 1,11,-1
 849 48 l 1,12,-1
 705 -20 l 1,13,-1
 695 -20 l 1,14,-1
 420 430 l 1,15,-1
 125 -20 l 1,0,-1
EndSplineSet
Validated: 1
EndChar

StartChar: y
Encoding: 121 121 90
Width: 1210
GlyphClass: 2
Flags: W
HStem: -410 80<353 756.75> -20 80<431.931 757.384> 1100 20G<308.025 360 958.025 1010>
VStem: 180 180<143.809 1039> 830 180<-244.262 49 120.732 1039>
LayerCount: 2
Fore
SplineSet
320 -410 m 1,0,-1
 320 -400 l 1,1,-1
 353 -330 l 1,2,-1
 595 -330 l 2,3,4
 693 -330 693 -330 761.5 -288.5 c 128,-1,5
 830 -247 830 -247 830 -148 c 2,6,-1
 830 49 l 1,7,8
 746 -20 746 -20 595 -20 c 0,9,10
 423 -20 423 -20 301.5 62 c 128,-1,11
 180 144 180 144 180 318 c 2,12,-1
 180 1039 l 1,13,-1
 350 1120 l 1,14,-1
 360 1120 l 1,15,-1
 360 242 l 2,16,17
 360 143 360 143 428.5 101.5 c 128,-1,18
 497 60 497 60 595 60 c 128,-1,19
 693 60 693 60 761.5 101.5 c 128,-1,20
 830 143 830 143 830 242 c 2,21,-1
 830 1039 l 1,22,-1
 1000 1120 l 1,23,-1
 1010 1120 l 1,24,-1
 1010 -72 l 2,25,26
 1010 -242 1010 -242 888 -328 c 0,27,28
 772 -410 772 -410 595 -410 c 2,29,-1
 320 -410 l 1,0,-1
EndSplineSet
Validated: 1
EndChar

StartChar: z
Encoding: 122 122 91
Width: 850
GlyphClass: 2
Flags: W
HStem: 0 80<262 777> 1020 80<103 589>
DStem2: 40 10 262 80 0.477572 0.878593<167.522 1149.57>
LayerCount: 2
Fore
SplineSet
40 0 m 1,0,-1
 40 10 l 1,1,-1
 589 1020 l 1,2,-1
 70 1020 l 1,3,-1
 70 1030 l 1,4,-1
 103 1100 l 1,5,-1
 810 1100 l 1,6,-1
 810 1090 l 1,7,-1
 262 80 l 1,8,-1
 810 80 l 1,9,-1
 810 70 l 1,10,-1
 777 0 l 1,11,-1
 40 0 l 1,0,-1
EndSplineSet
Validated: 1
EndChar

StartChar: braceleft
Encoding: 123 123 92
Width: 830
GlyphClass: 2
Flags: W
HStem: -240 90<574.373 780> 710 90<88 274> 1660 90<574.373 780>
VStem: 274 200<-33.1826 710 800 1543.18>
CounterMasks: 1 e0
LayerCount: 2
Fore
SplineSet
780 -240 m 1,0,1
 570 -240 570 -240 422 -144 c 128,-1,2
 274 -48 274 -48 274 164 c 2,3,-1
 274 710 l 1,4,-1
 50 710 l 1,5,-1
 50 720 l 1,6,-1
 88 800 l 1,7,-1
 274 800 l 1,8,-1
 274 1346 l 2,9,10
 274 1558 274 1558 422 1654 c 128,-1,11
 570 1750 570 1750 780 1750 c 1,12,-1
 780 1660 l 1,13,14
 654 1660 654 1660 564 1611.5 c 128,-1,15
 474 1563 474 1563 474 1436 c 2,16,-1
 474 74 l 2,17,18
 474 -53 474 -53 564 -102 c 0,19,20
 654 -150 654 -150 780 -150 c 1,21,-1
 780 -240 l 1,0,1
EndSplineSet
Validated: 1
EndChar

StartChar: bar
Encoding: 124 124 93
Width: 650
GlyphClass: 2
Flags: W
VStem: 250 150<-134 1644>
LayerCount: 2
Fore
SplineSet
250 -200 m 1,0,-1
 250 1644 l 1,1,-1
 390 1710 l 1,2,-1
 400 1710 l 1,3,-1
 400 -134 l 1,4,-1
 260 -200 l 1,5,-1
 250 -200 l 1,0,-1
EndSplineSet
Validated: 1
EndChar

StartChar: braceright
Encoding: 125 125 94
Width: 756
GlyphClass: 2
Flags: W
HStem: -240 90<50 255.627> 710 90<556 742> 1660 90<50 255.627>
VStem: 356 200<-33.1826 710 800 1543.18>
CounterMasks: 1 e0
LayerCount: 2
Fore
SplineSet
50 -240 m 1,0,-1
 50 -150 l 1,1,2
 176 -150 176 -150 266 -102 c 0,3,4
 356 -53 356 -53 356 74 c 2,5,-1
 356 1436 l 2,6,7
 356 1563 356 1563 266 1611.5 c 128,-1,8
 176 1660 176 1660 50 1660 c 1,9,-1
 50 1750 l 1,10,11
 260 1750 260 1750 408 1654 c 128,-1,12
 556 1558 556 1558 556 1346 c 2,13,-1
 556 800 l 1,14,-1
 780 800 l 1,15,-1
 780 790 l 1,16,-1
 742 710 l 1,17,-1
 556 710 l 1,18,-1
 556 164 l 2,19,20
 556 -48 556 -48 408 -144 c 128,-1,21
 260 -240 260 -240 50 -240 c 1,0,-1
EndSplineSet
Validated: 1
EndChar

StartChar: asciitilde
Encoding: 126 126 95
Width: 1138
GlyphClass: 2
Flags: W
HStem: 576 127<682.406 868.861> 810 127<269.139 455.594>
VStem: 150 82<611 766.371> 906 82<746.629 902>
LayerCount: 2
Fore
SplineSet
406 937 m 0,0,1
 519 937 519 937 621 810 c 0,2,3
 708 703 708 703 781 703 c 0,4,5
 906 703 906 703 906 902 c 1,6,-1
 978 937 l 1,7,-1
 988 937 l 1,8,9
 988 576 988 576 732 576 c 0,10,11
 619 576 619 576 517 703 c 0,12,13
 430 810 430 810 357 810 c 0,14,15
 232 810 232 810 232 611 c 1,16,-1
 160 576 l 1,17,-1
 150 576 l 1,18,19
 150 937 150 937 406 937 c 0,0,1
EndSplineSet
Validated: 1
EndChar

StartChar: exclamdown
Encoding: 161 161 97
Width: 600
GlyphClass: 2
Flags: W
HStem: -430 21G<200 252.222> 875 245<216.097 383.903>
VStem: 180 240<912.129 1082.87> 200 200<-340 610>
LayerCount: 2
Fore
SplineSet
300 1120 m 128,-1,1
 350 1120 350 1120 385 1084 c 128,-1,2
 420 1048 420 1048 420 997.5 c 128,-1,3
 420 947 420 947 385 911 c 128,-1,4
 350 875 350 875 300 875 c 128,-1,5
 250 875 250 875 215 911 c 128,-1,6
 180 947 180 947 180 997.5 c 128,-1,7
 180 1048 180 1048 215 1084 c 128,-1,0
 250 1120 250 1120 300 1120 c 128,-1,1
210 -430 m 1,8,-1
 200 -430 l 1,9,-1
 200 610 l 1,10,-1
 390 700 l 1,11,-1
 400 700 l 1,12,-1
 400 -340 l 1,13,-1
 210 -430 l 1,8,-1
EndSplineSet
Validated: 1
EndChar

StartChar: cent
Encoding: 162 162 98
Width: 1070
GlyphClass: 2
Flags: W
HStem: -18 66<425.672 525 625 724.797> 1037 81<413.46 525 625 732.644>
VStem: 160 190<143.809 956.191> 525 100<-78 -13.4102 48 1037 1113.41 1178> 795 195<143.809 300 808.181 958.625>
LayerCount: 2
Fore
SplineSet
625 -78 m 1,0,-1
 535 -120 l 1,1,-1
 525 -120 l 1,2,-1
 525 -18 l 1,3,4
 386 -8 386 -8 282 62 c 0,5,6
 160 144 160 144 160 318 c 2,7,-1
 160 782 l 2,8,9
 160 956 160 956 282 1038 c 0,10,11
 385 1108 385 1108 525 1118 c 1,12,-1
 525 1178 l 1,13,-1
 615 1220 l 1,14,-1
 625 1220 l 1,15,-1
 625 1118 l 1,16,17
 765 1108 765 1108 868 1038 c 0,18,19
 978 964 978 964 989 815 c 1,20,-1
 805 727 l 1,21,-1
 795 727 l 1,22,-1
 795 858 l 2,23,24
 795 956 795 956 734 998 c 0,25,26
 689 1028 689 1028 625 1037 c 1,27,-1
 625 48 l 1,28,29
 689 56 689 56 734 86 c 0,30,31
 795 128 795 128 795 227 c 2,32,-1
 795 300 l 1,33,-1
 980 388 l 1,34,-1
 990 388 l 1,35,-1
 990 318 l 2,36,37
 990 144 990 144 868 62 c 0,38,39
 765 -8 765 -8 625 -18 c 1,40,-1
 625 -78 l 1,0,-1
525 48 m 1,41,-1
 525 1037 l 1,42,43
 460 1028 460 1028 414 998 c 0,44,45
 350 956 350 956 350 858 c 2,46,-1
 350 227 l 2,47,48
 350 128 350 128 414 86 c 0,49,50
 460 56 460 56 525 48 c 1,41,-1
EndSplineSet
Validated: 1
EndChar

StartChar: sterling
Encoding: 163 163 99
Width: 1335
GlyphClass: 2
Flags: W
HStem: 0 90<188 300 500 1147> 645 90<189 300 500 877> 1440 90<564.566 856.746>
VStem: 300 200<90 645 735 1366.19> 915 214<1219.25 1369.58>
LayerCount: 2
Fore
SplineSet
150 0 m 1,0,-1
 150 10 l 1,1,-1
 188 90 l 1,2,-1
 300 90 l 1,3,-1
 300 645 l 1,4,-1
 151 645 l 1,5,-1
 151 655 l 1,6,-1
 189 735 l 1,7,-1
 300 735 l 1,8,-1
 300 1192 l 2,9,10
 300 1366 300 1366 421.5 1448 c 128,-1,11
 543 1530 543 1530 715 1530 c 128,-1,12
 887 1530 887 1530 1008 1448 c 0,13,14
 1117 1375 1117 1375 1129 1226 c 1,15,-1
 925 1130 l 1,16,-1
 915 1130 l 1,17,-1
 915 1258 l 2,18,19
 915 1357 915 1357 854 1398.5 c 128,-1,20
 793 1440 793 1440 715 1440 c 128,-1,21
 637 1440 637 1440 568.5 1398.5 c 128,-1,22
 500 1357 500 1357 500 1258 c 2,23,-1
 500 735 l 1,24,-1
 915 735 l 1,25,-1
 915 725 l 1,26,-1
 877 645 l 1,27,-1
 500 645 l 1,28,-1
 500 90 l 1,29,-1
 1185 90 l 1,30,-1
 1185 80 l 1,31,-1
 1147 0 l 1,32,-1
 150 0 l 1,0,-1
EndSplineSet
Validated: 1
EndChar

StartChar: currency
Encoding: 164 164 100
Width: 1395
GlyphClass: 2
Flags: W
HStem: 241 90<488.587 901.748> 1179 90<488.265 903.238>
VStem: 190 200<447.656 1062.38> 1000 200<449.327 1062.38>
LayerCount: 2
Fore
SplineSet
695.5 331 m 128,-1,1
 822 331 822 331 911 379.5 c 128,-1,2
 1000 428 1000 428 1000 555 c 2,3,-1
 1000 955 l 2,4,5
 1000 1082 1000 1082 911 1130.5 c 128,-1,6
 822 1179 822 1179 695.5 1179 c 128,-1,7
 569 1179 569 1179 479.5 1130.5 c 128,-1,8
 390 1082 390 1082 390 955 c 2,9,-1
 390 555 l 2,10,11
 390 428 390 428 479.5 379.5 c 128,-1,0
 569 331 569 331 695.5 331 c 128,-1,1
696 1269 m 0,12,13
 873 1269 873 1269 1004 1201 c 1,14,-1
 1059 1255 l 1,15,-1
 1238 1191 l 1,16,-1
 1245 1184 l 1,17,-1
 1144 1083 l 1,18,19
 1200 996 1200 996 1200 865 c 2,20,-1
 1200 645 l 2,21,22
 1200 516 1200 516 1145 430 c 1,23,-1
 1245 330 l 1,24,-1
 1238 323 l 1,25,-1
 1059 259 l 1,26,-1
 1007 310 l 1,27,28
 874 241 874 241 696 241 c 0,29,30
 512 241 512 241 375 314 c 1,31,-1
 336 275 l 1,32,-1
 157 339 l 1,33,-1
 150 346 l 1,34,-1
 241 437 l 1,35,36
 190 521 190 521 190 645 c 2,37,-1
 190 865 l 2,38,39
 190 998 190 998 248 1085 c 1,40,-1
 150 1184 l 1,41,-1
 157 1191 l 1,42,-1
 335 1255 l 1,43,-1
 388 1202 l 1,44,45
 520 1269 520 1269 696 1269 c 0,12,13
EndSplineSet
Validated: 1
EndChar

StartChar: yen
Encoding: 165 165 101
Width: 1310
GlyphClass: 2
Flags: W
HStem: -20 21G<555 607.222> 114 90<328 555 755 982> 314 90<328 555 755 982> 1510 20G<307.778 360 1097.78 1150>
VStem: 160 200<638.817 1440> 555 200<70 114 204 314 404 444.943> 950 200<638.817 1440>
CounterMasks: 1 0e
LayerCount: 2
Fore
SplineSet
565 -20 m 1,0,-1
 555 -20 l 1,1,-1
 555 114 l 1,2,-1
 290 114 l 1,3,-1
 290 124 l 1,4,-1
 328 204 l 1,5,-1
 555 204 l 1,6,-1
 555 314 l 1,7,-1
 290 314 l 1,8,-1
 290 324 l 1,9,-1
 328 404 l 1,10,-1
 555 404 l 1,11,-1
 555 438 l 1,12,13
 416 456 416 456 307 528 c 0,14,15
 160 624 160 624 160 836 c 2,16,-1
 160 1440 l 1,17,-1
 350 1530 l 1,18,-1
 360 1530 l 1,19,-1
 360 746 l 2,20,21
 360 619 360 619 449 570.5 c 128,-1,22
 538 522 538 522 654.5 522 c 128,-1,23
 771 522 771 522 860.5 570.5 c 128,-1,24
 950 619 950 619 950 746 c 2,25,-1
 950 1440 l 1,26,-1
 1140 1530 l 1,27,-1
 1150 1530 l 1,28,-1
 1150 836 l 2,29,30
 1150 624 1150 624 1002 528 c 0,31,32
 893 457 893 457 755 438 c 1,33,-1
 755 404 l 1,34,-1
 1020 404 l 1,35,-1
 1020 394 l 1,36,-1
 982 314 l 1,37,-1
 755 314 l 1,38,-1
 755 204 l 1,39,-1
 1020 204 l 1,40,-1
 1020 194 l 1,41,-1
 982 114 l 1,42,-1
 755 114 l 1,43,-1
 755 70 l 1,44,-1
 565 -20 l 1,0,-1
EndSplineSet
Validated: 1
EndChar

StartChar: brokenbar
Encoding: 166 166 102
Width: 650
GlyphClass: 2
Flags: W
VStem: 250 150<-134 587 915 1644>
LayerCount: 2
Fore
SplineSet
250 -200 m 1,0,-1
 250 587 l 1,1,-1
 390 653 l 1,2,-1
 400 653 l 1,3,-1
 400 -134 l 1,4,-1
 260 -200 l 1,5,-1
 250 -200 l 1,0,-1
390 1710 m 1,6,-1
 400 1710 l 1,7,-1
 400 915 l 1,8,-1
 260 849 l 1,9,-1
 250 849 l 1,10,-1
 250 1644 l 1,11,-1
 390 1710 l 1,6,-1
EndSplineSet
Validated: 1
EndChar

StartChar: section
Encoding: 167 167 103
Width: 1078
GlyphClass: 2
Flags: W
HStem: -20 79<426.422 645.499> 461 80<392.102 649.407> 969 80<428.593 685.898> 1451 79<432.501 651.578>
VStem: 150 190<601.317 917.429> 209 184<95.176 233.168 1085.62 1405.66> 685 184<104.335 424.385 1276.83 1414.82> 738 190<592.571 908.683>
LayerCount: 2
Fore
SplineSet
534 -20 m 0,0,1
 394 -20 394 -20 301 50 c 128,-1,2
 208 120 208 120 199 231 c 1,3,-1
 377 315 l 1,4,-1
 387 315 l 1,5,-1
 387 181 l 2,6,7
 387 117 387 117 431 88 c 0,8,9
 474 59 474 59 536 59 c 0,10,11
 596 59 596 59 639 87 c 0,12,13
 685 116 685 116 685 181 c 2,14,-1
 685 331 l 2,15,16
 685 390 685 390 650.5 425.5 c 128,-1,17
 616 461 616 461 521 461 c 0,18,19
 354 461 354 461 252 541 c 128,-1,20
 150 621 150 621 150 746 c 2,21,-1
 150 782 l 2,22,23
 150 912 150 912 213 990 c 1,24,-1
 344 911 l 1,25,26
 340 891 340 891 340 858 c 2,27,-1
 340 705 l 2,28,29
 340 624 340 624 389 582.5 c 128,-1,30
 438 541 438 541 527 541 c 0,31,32
 685 541 685 541 777 473 c 128,-1,33
 869 405 869 405 869 298 c 2,34,-1
 869 268 l 2,35,36
 869 120 869 120 772.5 50 c 128,-1,37
 676 -20 676 -20 534 -20 c 0,0,1
544 1530 m 0,38,39
 684 1530 684 1530 777 1460 c 128,-1,40
 870 1390 870 1390 879 1279 c 1,41,-1
 701 1195 l 1,42,-1
 691 1195 l 1,43,-1
 691 1329 l 2,44,45
 691 1393 691 1393 647 1422 c 0,46,47
 604 1451 604 1451 542 1451 c 0,48,49
 482 1451 482 1451 439 1423 c 0,50,51
 393 1394 393 1394 393 1329 c 2,52,-1
 393 1179 l 2,53,54
 393 1120 393 1120 427.5 1084.5 c 128,-1,55
 462 1049 462 1049 557 1049 c 0,56,57
 724 1049 724 1049 826 969 c 128,-1,58
 928 889 928 889 928 764 c 2,59,-1
 928 728 l 2,60,61
 928 598 928 598 865 520 c 1,62,-1
 734 599 l 1,63,64
 738 619 738 619 738 652 c 2,65,-1
 738 805 l 2,66,67
 738 886 738 886 689 927.5 c 128,-1,68
 640 969 640 969 551 969 c 0,69,70
 393 969 393 969 301 1037 c 128,-1,71
 209 1105 209 1105 209 1212 c 2,72,-1
 209 1242 l 2,73,74
 209 1390 209 1390 305.5 1460 c 128,-1,75
 402 1530 402 1530 544 1530 c 0,38,39
EndSplineSet
Validated: 1
EndChar

StartChar: dieresis
Encoding: 168 168 104
Width: 600
GlyphClass: 2
Flags: W
HStem: 1230 227<84.0344 239.966 361.004 516.996>
VStem: 50 224<1264.55 1422.45> 328 222<1265.07 1422.93>
LayerCount: 2
Fore
SplineSet
439 1458 m 128,-1,1
 486 1458 486 1458 518 1424 c 128,-1,2
 550 1390 550 1390 550 1344 c 128,-1,3
 550 1298 550 1298 518 1264 c 128,-1,4
 486 1230 486 1230 439 1230 c 128,-1,5
 392 1230 392 1230 360 1264 c 128,-1,6
 328 1298 328 1298 328 1344 c 128,-1,7
 328 1390 328 1390 360 1424 c 128,-1,0
 392 1458 392 1458 439 1458 c 128,-1,1
162 1457 m 128,-1,9
 208 1457 208 1457 241 1423.5 c 128,-1,10
 274 1390 274 1390 274 1343.5 c 128,-1,11
 274 1297 274 1297 241 1263.5 c 128,-1,12
 208 1230 208 1230 162 1230 c 128,-1,13
 116 1230 116 1230 83 1263.5 c 128,-1,14
 50 1297 50 1297 50 1343.5 c 128,-1,15
 50 1390 50 1390 83 1423.5 c 128,-1,8
 116 1457 116 1457 162 1457 c 128,-1,9
EndSplineSet
Validated: 1
EndChar

StartChar: copyright
Encoding: 169 169 105
Width: 1401
GlyphClass: 2
Flags: W
HStem: 386 48<545.181 850.676> 546 65<608.796 814.017> 1296 64<603.802 806.9> 1478 52<544.168 856.773>
VStem: 150 50<794.694 1125.05> 436 145<631.633 1277.11> 835 147<631.672 779 1134.04 1272.34> 1200 51<785.868 1126.58>
LayerCount: 2
Fore
SplineSet
708 1360 m 0,0,1
 821 1360 821 1360 898 1310 c 0,2,3
 973 1261 973 1261 982 1140 c 1,4,-1
 845 1083 l 1,5,-1
 835 1083 l 1,6,-1
 834 1204 l 2,7,8
 834 1257 834 1257 800 1276 c 0,9,10
 763 1296 763 1296 708 1296 c 0,11,12
 581 1296 581 1296 581 1204 c 2,13,-1
 581 703 l 2,14,15
 581 651 581 651 615.5 631 c 128,-1,16
 650 611 650 611 708 611 c 0,17,18
 835 611 835 611 835 703 c 2,19,-1
 835 779 l 1,20,-1
 972 833 l 1,21,-1
 982 833 l 1,22,-1
 982 769 l 2,23,24
 982 652 982 652 900 599 c 128,-1,25
 818 546 818 546 708 546 c 0,26,27
 596 546 596 546 516 599 c 128,-1,28
 436 652 436 652 436 768 c 2,29,-1
 436 1139 l 2,30,31
 436 1256 436 1256 516 1308 c 128,-1,32
 596 1360 596 1360 708 1360 c 0,0,1
701 1530 m 0,33,34
 943 1530 943 1530 1099 1357 c 0,35,36
 1251 1188 1251 1188 1251 953 c 0,37,38
 1251 701 1251 701 1090 549 c 0,39,40
 919 386 919 386 699 386 c 0,41,42
 476 386 476 386 311 549 c 0,43,44
 150 708 150 708 150 953 c 0,45,46
 150 1197 150 1197 308 1362 c 0,47,48
 469 1530 469 1530 701 1530 c 0,33,34
699 1478 m 0,49,50
 499 1478 499 1478 350 1330 c 0,51,52
 200 1181 200 1181 200 953 c 0,53,54
 200 750 200 750 347 587 c 0,55,56
 485 434 485 434 701 434 c 0,57,58
 902 434 902 434 1054 587 c 0,59,60
 1200 734 1200 734 1200 953 c 0,61,62
 1200 1185 1200 1185 1056 1327 c 0,63,64
 903 1478 903 1478 699 1478 c 0,49,50
EndSplineSet
Validated: 1
EndChar

StartChar: ordfeminine
Encoding: 170 170 106
Width: 554
GlyphClass: 2
Flags: W
HStem: 790 120<102 452> 969 67<189.617 352.911> 1325 67<188.814 352.777> 1504 66<156 349.449>
VStem: 50 130<1043.97 1317.5> 360 130<1041.54 1319.54 1374 1495.96>
LayerCount: 2
Fore
SplineSet
156 1570 m 1,0,-1
 262 1570 l 2,1,2
 353 1570 353 1570 421.5 1524 c 128,-1,3
 490 1478 490 1478 490 1381 c 2,4,-1
 490 1017 l 1,5,-1
 370 969 l 1,6,-1
 360 969 l 1,7,-1
 360 987 l 1,8,9
 322 970 322 970 254 970 c 128,-1,10
 186 970 186 970 118 1016 c 128,-1,11
 50 1062 50 1062 50 1158 c 2,12,-1
 50 1204 l 2,13,14
 50 1302 50 1302 118.5 1347 c 128,-1,15
 187 1392 187 1392 254 1392 c 128,-1,16
 321 1392 321 1392 360 1374 c 1,17,-1
 360 1434 l 2,18,19
 360 1504 360 1504 262 1504 c 2,20,-1
 130 1504 l 1,21,-1
 130 1514 l 1,22,-1
 156 1570 l 1,0,-1
180 1106 m 2,23,24
 180 1036 180 1036 272 1036 c 0,25,26
 362 1036 362 1036 362 1106 c 2,27,-1
 362 1256 l 2,28,29
 362 1325 362 1325 271 1325 c 128,-1,30
 180 1325 180 1325 180 1256 c 2,31,-1
 180 1106 l 2,23,24
50 790 m 1,32,-1
 50 800 l 1,33,-1
 102 910 l 1,34,-1
 504 910 l 1,35,-1
 504 900 l 1,36,-1
 452 790 l 1,37,-1
 50 790 l 1,32,-1
EndSplineSet
Validated: 1
EndChar

StartChar: guillemotleft
Encoding: 171 171 107
Width: 1100
GlyphClass: 2
Flags: W
DStem2: 278 829 150 755 0.51032 -0.859984<0 511.114> 150 755 278 829 0.506484 0.862249<128.636 570.601> 630 829 502 755 0.51032 -0.859984<0 511.114> 502 755 630 829 0.506484 0.862249<128.636 570.601>
LayerCount: 2
Fore
SplineSet
502 755 m 1,0,-1
 791 1247 l 1,1,-1
 801 1247 l 1,2,-1
 861 1218 l 1,3,-1
 630 829 l 1,4,-1
 900 374 l 1,5,-1
 772 313 l 1,6,-1
 762 313 l 1,7,-1
 502 755 l 1,0,-1
150 755 m 1,8,-1
 439 1247 l 1,9,-1
 449 1247 l 1,10,-1
 509 1218 l 1,11,-1
 278 829 l 1,12,-1
 548 374 l 1,13,-1
 420 313 l 1,14,-1
 410 313 l 1,15,-1
 150 755 l 1,8,-1
EndSplineSet
Validated: 1
EndChar

StartChar: logicalnot
Encoding: 172 172 108
Width: 1200
GlyphClass: 2
Flags: W
HStem: 680 150<216 864>
DStem2: 738 418 858 418 0.430979 0.902362<51.7175 290.722>
LayerCount: 2
Fore
SplineSet
216 830 m 1,0,-1
 1050 830 l 1,1,-1
 1050 820 l 1,2,-1
 858 418 l 1,3,-1
 738 418 l 1,4,-1
 864 680 l 1,5,-1
 150 680 l 1,6,-1
 150 690 l 1,7,-1
 216 830 l 1,0,-1
EndSplineSet
Validated: 1
EndChar

StartChar: uni00AD
Encoding: 173 173 109
Width: 1200
GlyphClass: 2
Flags: W
HStem: 680 150<216 984>
LayerCount: 2
Fore
SplineSet
216 830 m 5,0,-1
 1050 830 l 5,1,-1
 1050 820 l 5,2,-1
 984 680 l 5,3,-1
 150 680 l 5,4,-1
 150 690 l 5,5,-1
 216 830 l 5,0,-1
EndSplineSet
Validated: 1
EndChar

StartChar: registered
Encoding: 174 174 110
Width: 1401
GlyphClass: 2
Flags: W
HStem: 386 48<545.181 850.676> 803 65<604 698> 1285 65<604 799.808> 1478 52<544.168 856.773>
VStem: 150 50<794.694 1125.05> 464 140<596 803 868 1285> 839 145<886.89 1264.25> 1200 51<785.868 1126.58>
DStem2: 852 829 698 803 0.577669 -0.816271<0 250.784>
LayerCount: 2
Fore
SplineSet
706 868 m 2,0,1
 839 868 839 868 839 960 c 2,2,-1
 839 1193 l 2,3,4
 839 1246 839 1246 801 1265.5 c 128,-1,5
 763 1285 763 1285 706 1285 c 2,6,-1
 604 1285 l 1,7,-1
 604 868 l 1,8,-1
 706 868 l 2,0,1
553 1350 m 1,9,-1
 711 1350 l 2,10,11
 820 1350 820 1350 903 1296 c 0,12,13
 984 1245 984 1245 984 1128 c 2,14,-1
 984 1026 l 2,15,16
 984 905 984 905 901 854 c 0,17,18
 878 840 878 840 852 829 c 1,19,-1
 1017 597 l 1,20,-1
 891 543 l 1,21,-1
 882 543 l 1,22,-1
 698 803 l 1,23,-1
 604 803 l 1,24,-1
 604 596 l 1,25,-1
 474 543 l 1,26,-1
 464 543 l 1,27,-1
 464 1306 l 1,28,-1
 553 1350 l 1,9,-1
701 1530 m 0,29,30
 943 1530 943 1530 1099 1357 c 0,31,32
 1251 1188 1251 1188 1251 953 c 0,33,34
 1251 701 1251 701 1090 549 c 0,35,36
 919 386 919 386 699 386 c 0,37,38
 476 386 476 386 311 549 c 0,39,40
 150 708 150 708 150 953 c 0,41,42
 150 1197 150 1197 308 1362 c 0,43,44
 469 1530 469 1530 701 1530 c 0,29,30
699 1478 m 0,45,46
 499 1478 499 1478 350 1330 c 0,47,48
 200 1181 200 1181 200 953 c 0,49,50
 200 750 200 750 347 587 c 0,51,52
 485 434 485 434 701 434 c 0,53,54
 902 434 902 434 1054 587 c 0,55,56
 1200 734 1200 734 1200 953 c 0,57,58
 1200 1185 1200 1185 1056 1327 c 0,59,60
 903 1478 903 1478 699 1478 c 0,45,46
EndSplineSet
Validated: 1
EndChar

StartChar: macron
Encoding: 175 175 111
Width: 600
GlyphClass: 2
Flags: W
HStem: 1299 130<107 493>
VStem: 50 500
LayerCount: 2
Fore
SplineSet
107 1429 m 1,0,-1
 550 1429 l 1,1,-1
 550 1419 l 1,2,-1
 493 1299 l 1,3,-1
 50 1299 l 1,4,-1
 50 1309 l 1,5,-1
 107 1429 l 1,0,-1
EndSplineSet
Validated: 1
EndChar

StartChar: degree
Encoding: 176 176 112
Width: 650
GlyphClass: 2
Flags: W
HStem: 1012 61<219.8 430.2> 1513 57<221.315 428.685>
VStem: 50 132<1099.82 1482.21> 468 132<1099.82 1482.21>
LayerCount: 2
Fore
SplineSet
325 1513 m 128,-1,1
 262 1513 262 1513 222 1487 c 128,-1,2
 182 1461 182 1461 182 1398 c 2,3,-1
 182 1188 l 2,4,5
 182 1125 182 1125 222 1099 c 128,-1,6
 262 1073 262 1073 325 1073 c 128,-1,7
 388 1073 388 1073 428 1099 c 128,-1,8
 468 1125 468 1125 468 1188 c 2,9,-1
 468 1398 l 2,10,11
 468 1461 468 1461 428 1487 c 128,-1,0
 388 1513 388 1513 325 1513 c 128,-1,1
325 1570 m 128,-1,13
 439 1570 439 1570 519.5 1515.5 c 128,-1,14
 600 1461 600 1461 600 1345 c 2,15,-1
 600 1237 l 2,16,17
 600 1121 600 1121 519.5 1066.5 c 128,-1,18
 439 1012 439 1012 325 1012 c 128,-1,19
 211 1012 211 1012 130.5 1066.5 c 128,-1,20
 50 1121 50 1121 50 1237 c 2,21,-1
 50 1345 l 2,22,23
 50 1461 50 1461 130.5 1515.5 c 128,-1,12
 211 1570 211 1570 325 1570 c 128,-1,13
EndSplineSet
Validated: 1
EndChar

StartChar: plusminus
Encoding: 177 177 113
Width: 1200
GlyphClass: 2
Flags: W
HStem: 275 150<216 984> 858 150<216 525 675 984>
VStem: 525 150<549 858 1008 1317>
LayerCount: 2
Fore
SplineSet
216 425 m 1,0,-1
 1050 425 l 1,1,-1
 1050 415 l 1,2,-1
 984 275 l 1,3,-1
 150 275 l 1,4,-1
 150 285 l 1,5,-1
 216 425 l 1,0,-1
525 1317 m 1,6,-1
 665 1383 l 1,7,-1
 675 1383 l 1,8,-1
 675 1008 l 1,9,-1
 1050 1008 l 1,10,-1
 1050 998 l 1,11,-1
 984 858 l 1,12,-1
 675 858 l 1,13,-1
 675 549 l 1,14,-1
 535 483 l 1,15,-1
 525 483 l 1,16,-1
 525 858 l 1,17,-1
 150 858 l 1,18,-1
 150 868 l 1,19,-1
 216 1008 l 1,20,-1
 525 1008 l 1,21,-1
 525 1317 l 1,6,-1
EndSplineSet
Validated: 1
EndChar

StartChar: uni00B2
Encoding: 178 178 114
Width: 651
VWidth: 1406
GlyphClass: 2
Flags: W
HStem: 763 131<222 554> 1504 66<216.602 426.882>
VStem: 54 140<1339 1484.33> 454 145<1169.25 1483.88>
DStem2: 94 886 222 894 0.806004 0.59191<107.904 446.501>
LayerCount: 2
Fore
SplineSet
326.5 1570 m 128,-1,1
 437 1570 437 1570 519 1518 c 0,2,3
 599 1467 599 1467 599 1352 c 2,4,-1
 599 1308 l 2,5,6
 599 1155 599 1155 397 1015 c 2,7,-1
 222 894 l 1,8,-1
 601 894 l 1,9,-1
 601 884 l 1,10,-1
 554 763 l 1,11,-1
 50 763 l 1,12,-1
 50 773 l 1,13,-1
 94 886 l 1,14,-1
 350 1074 l 2,15,16
 454 1150 454 1150 454 1303 c 2,17,-1
 454 1413 l 2,18,19
 454 1465 454 1465 419 1484.5 c 128,-1,20
 384 1504 384 1504 326 1504 c 0,21,22
 194 1504 194 1504 194 1413 c 2,23,-1
 194 1339 l 1,24,-1
 64 1281 l 1,25,-1
 54 1281 l 1,26,-1
 54 1347 l 2,27,28
 54 1464 54 1464 135 1517 c 128,-1,0
 216 1570 216 1570 326.5 1570 c 128,-1,1
EndSplineSet
Validated: 1
EndChar

StartChar: uni00B3
Encoding: 179 179 115
Width: 635
VWidth: 1396
GlyphClass: 2
Flags: W
HStem: 753 65<219.016 424.023> 1496 64<128 376>
VStem: 50 148<842.46 983.506> 445 140<837.942 1193.12>
DStem2: 236 1238 399 1271 0.495815 0.868428<109.476 293.469>
LayerCount: 2
Fore
SplineSet
128 1560 m 1,0,-1
 564 1560 l 1,1,-1
 399 1271 l 1,2,3
 585 1229 585 1229 585 1057 c 2,4,-1
 585 975 l 2,5,6
 585 858 585 858 504.5 805.5 c 128,-1,7
 424 753 424 753 318 753 c 0,8,9
 208 753 208 753 133 805 c 0,10,11
 59 856 59 856 50 978 c 1,12,-1
 188 1031 l 1,13,-1
 198 1031 l 1,14,-1
 198 910 l 2,15,16
 198 818 198 818 321.5 818 c 128,-1,17
 445 818 445 818 445 910 c 2,18,-1
 445 1124 l 2,19,20
 445 1176 445 1176 407 1196 c 0,21,22
 370 1216 370 1216 323 1216 c 0,23,24
 286 1216 286 1216 258 1208 c 1,25,-1
 236 1238 l 1,26,-1
 376 1496 l 1,27,-1
 107 1496 l 1,28,-1
 107 1506 l 1,29,-1
 128 1560 l 1,0,-1
EndSplineSet
Validated: 1
EndChar

StartChar: acute
Encoding: 180 180 116
Width: 377
GlyphClass: 2
Flags: W
HStem: 1160 367
VStem: 50 277
DStem2: 50 1216 178 1160 0.427336 0.904093<4.06987 343.991>
LayerCount: 2
Fore
SplineSet
207 1527 m 1,0,-1
 327 1470 l 1,1,-1
 178 1160 l 1,2,-1
 168 1160 l 1,3,-1
 50 1216 l 1,4,-1
 197 1527 l 1,5,-1
 207 1527 l 1,0,-1
EndSplineSet
Validated: 1
EndChar

StartChar: uni00B5
Encoding: 181 181 117
Width: 1190
GlyphClass: 2
Flags: W
HStem: -430 21G<180 231.975> -20 80<433.553 758.069> 1100 20G<308.025 360 958.025 1010>
VStem: 180 180<-349 49 120.732 1039> 830 180<143.809 1039>
LayerCount: 2
Fore
SplineSet
190 -430 m 1,0,-1
 180 -430 l 1,1,-1
 180 1039 l 1,2,-1
 350 1120 l 1,3,-1
 360 1120 l 1,4,-1
 360 242 l 2,5,6
 360 143 360 143 428.5 101.5 c 128,-1,7
 497 60 497 60 595 60 c 128,-1,8
 693 60 693 60 761.5 101.5 c 128,-1,9
 830 143 830 143 830 242 c 2,10,-1
 830 1039 l 1,11,-1
 1000 1120 l 1,12,-1
 1010 1120 l 1,13,-1
 1010 318 l 2,14,15
 1010 144 1010 144 888.5 62 c 128,-1,16
 767 -20 767 -20 595 -20 c 0,17,18
 448 -20 448 -20 360 49 c 1,19,-1
 360 -349 l 1,20,-1
 190 -430 l 1,0,-1
EndSplineSet
Validated: 1
EndChar

StartChar: paragraph
Encoding: 182 182 118
Width: 1180
GlyphClass: 2
Flags: W
HStem: -20 21G<780 832.857> 548 982<339.61 760.273>
VStem: 780 70<8 604> 914 66<70 1140>
LayerCount: 2
Fore
SplineSet
790 -20 m 1,0,-1
 780 -20 l 1,1,-1
 780 604 l 1,2,3
 697 548 697 548 565 548 c 0,4,5
 393 548 393 548 271.5 630 c 128,-1,6
 150 712 150 712 150 886 c 2,7,-1
 150 1192 l 2,8,9
 150 1366 150 1366 271.5 1448 c 128,-1,10
 393 1530 393 1530 565 1530 c 128,-1,11
 737 1530 737 1530 858.5 1448 c 128,-1,12
 980 1366 980 1366 980 1192 c 2,13,-1
 980 70 l 1,14,-1
 914 39 l 1,15,-1
 914 1140 l 1,16,-1
 850 1110 l 1,17,-1
 850 8 l 1,18,-1
 790 -20 l 1,0,-1
EndSplineSet
Validated: 1
EndChar

StartChar: periodcentered
Encoding: 183 183 119
Width: 340
GlyphClass: 2
Flags: W
HStem: 632 245<86.0974 253.903>
VStem: 50 240<669.129 839.871>
LayerCount: 2
Fore
SplineSet
170 877 m 128,-1,1
 220 877 220 877 255 841 c 128,-1,2
 290 805 290 805 290 754.5 c 128,-1,3
 290 704 290 704 255 668 c 128,-1,4
 220 632 220 632 170 632 c 128,-1,5
 120 632 120 632 85 668 c 128,-1,6
 50 704 50 704 50 754.5 c 128,-1,7
 50 805 50 805 85 841 c 128,-1,0
 120 877 120 877 170 877 c 128,-1,1
EndSplineSet
Validated: 1
EndChar

StartChar: cedilla
Encoding: 184 184 120
Width: 420
GlyphClass: 2
Flags: W
HStem: -410 130<107 197.422>
VStem: 156 103<-61.7314 0> 222 148<-257.261 -86.9303>
LayerCount: 2
Fore
SplineSet
50 -410 m 1,0,-1
 50 -400 l 1,1,-1
 107 -280 l 1,2,3
 222 -264 222 -264 222 -173 c 0,4,5
 222 -100 222 -100 156 -76 c 1,6,-1
 156 0 l 1,7,-1
 259 0 l 1,8,-1
 259 -40 l 1,9,10
 370 -83 370 -83 370 -187 c 0,11,12
 370 -410 370 -410 50 -410 c 1,0,-1
EndSplineSet
Validated: 1
EndChar

StartChar: uni00B9
Encoding: 185 185 121
Width: 412
VWidth: 1401
GlyphClass: 2
Flags: W
VStem: 172 140<787 1449>
DStem2: 50 1460 50 1391 0.916491 0.400056<0 107.411>
LayerCount: 2
Fore
SplineSet
302 1570 m 1,0,-1
 312 1570 l 1,1,-1
 312 787 l 1,2,-1
 182 736 l 1,3,-1
 172 736 l 1,4,-1
 172 1449 l 1,5,-1
 50 1391 l 1,6,-1
 50 1460 l 1,7,-1
 302 1570 l 1,0,-1
EndSplineSet
Validated: 1
EndChar

StartChar: ordmasculine
Encoding: 186 186 122
Width: 554
GlyphClass: 2
Flags: W
HStem: 790 120<102 452> 961 65<190.838 363.27> 1504 66<190.73 363.162>
VStem: 50 130<1034.97 1495.5> 374 130<1033.65 1496.03>
LayerCount: 2
Fore
SplineSet
276 1504 m 0,0,1
 180 1504 180 1504 180 1434 c 2,2,-1
 180 1097 l 2,3,4
 180 1026 180 1026 278 1026 c 0,5,6
 374 1026 374 1026 374 1097 c 2,7,-1
 374 1434 l 2,8,9
 374 1504 374 1504 276 1504 c 0,0,1
277 1570 m 128,-1,11
 369 1570 369 1570 436.5 1524 c 128,-1,12
 504 1478 504 1478 504 1382 c 2,13,-1
 504 1149 l 2,14,15
 504 1051 504 1051 436.5 1006 c 128,-1,16
 369 961 369 961 277 961 c 128,-1,17
 185 961 185 961 117.5 1007 c 128,-1,18
 50 1053 50 1053 50 1149 c 2,19,-1
 50 1382 l 2,20,21
 50 1480 50 1480 117.5 1525 c 128,-1,10
 185 1570 185 1570 277 1570 c 128,-1,11
50 790 m 1,22,-1
 50 800 l 1,23,-1
 102 910 l 1,24,-1
 504 910 l 1,25,-1
 504 900 l 1,26,-1
 452 790 l 1,27,-1
 50 790 l 1,22,-1
EndSplineSet
Validated: 1
EndChar

StartChar: guillemotright
Encoding: 187 187 123
Width: 1100
GlyphClass: 2
Flags: W
DStem2: 338 1197 200 1136 0.51032 -0.859984<0 511.114> 239 292 309 263 0.506484 0.862249<10.4486 452.413> 690 1197 552 1136 0.51032 -0.859984<0 511.114> 591 292 661 263 0.506484 0.862249<10.4486 452.413>
LayerCount: 2
Fore
SplineSet
598 755 m 1,0,-1
 309 263 l 1,1,-1
 299 263 l 1,2,-1
 239 292 l 1,3,-1
 470 681 l 1,4,-1
 200 1136 l 1,5,-1
 328 1197 l 1,6,-1
 338 1197 l 1,7,-1
 598 755 l 1,0,-1
950 755 m 1,8,-1
 661 263 l 1,9,-1
 651 263 l 1,10,-1
 591 292 l 1,11,-1
 822 681 l 1,12,-1
 552 1136 l 1,13,-1
 680 1197 l 1,14,-1
 690 1197 l 1,15,-1
 950 755 l 1,8,-1
EndSplineSet
Validated: 1
EndChar

StartChar: onequarter
Encoding: 188 188 124
Width: 1572
VWidth: 1401
GlyphClass: 2
Flags: W
HStem: -20 21G<413.032 473.341 1206 1266.98> 180 66<938 1206 1346 1396> 1510 20G<356.182 412 1011.67 1072.29>
VStem: 272 140<747 1409> 1206 140<31 180 246 639>
DStem2: 150 1420 150 1351 0.916491 0.400056<0 107.411> 327 42 464 -20 0.423185 0.906043<1.80173 1641.88> 820 190 938 246 0.562937 0.8265<112.711 588.392>
LayerCount: 2
Fore
SplineSet
402 1530 m 1,0,-1
 412 1530 l 1,1,-1
 412 747 l 1,2,-1
 282 696 l 1,3,-1
 272 696 l 1,4,-1
 272 1409 l 1,5,-1
 150 1351 l 1,6,-1
 150 1420 l 1,7,-1
 402 1530 l 1,0,-1
454 -20 m 1,8,-1
 327 42 l 1,9,-1
 1021 1530 l 1,10,-1
 1031 1530 l 1,11,-1
 1159 1468 l 1,12,-1
 464 -20 l 1,13,-1
 454 -20 l 1,8,-1
938 246 m 1,14,-1
 1206 246 l 1,15,-1
 1206 639 l 1,16,-1
 938 246 l 1,14,-1
1216 -20 m 1,17,-1
 1206 -20 l 1,18,-1
 1206 180 l 1,19,-1
 820 180 l 1,20,-1
 820 190 l 1,21,-1
 1213 767 l 1,22,-1
 1336 815 l 1,23,-1
 1346 815 l 1,24,-1
 1346 246 l 1,25,-1
 1422 246 l 1,26,-1
 1422 236 l 1,27,-1
 1396 180 l 1,28,-1
 1346 180 l 1,29,-1
 1346 31 l 1,30,-1
 1216 -20 l 1,17,-1
EndSplineSet
Validated: 1
EndChar

StartChar: onehalf
Encoding: 189 189 125
Width: 1718
VWidth: 1401
GlyphClass: 2
Flags: W
HStem: -20 21G<413.032 473.341> 0 131<1189 1521> 741 66<1183.6 1393.88> 1510 20G<356.182 412 1011.67 1072.29>
VStem: 272 140<747 1409> 1021 140<576 721.328> 1421 145<406.25 720.883>
DStem2: 150 1420 150 1351 0.916491 0.400056<0 107.411> 327 42 464 -20 0.423185 0.906043<1.80173 1641.88> 1061 123 1189 131 0.806004 0.59191<107.904 446.501>
LayerCount: 2
Fore
SplineSet
1017 0 m 1,0,-1
 1017 10 l 1,1,-1
 1061 123 l 1,2,-1
 1317 311 l 2,3,4
 1421 387 1421 387 1421 540 c 2,5,-1
 1421 650 l 2,6,7
 1421 702 1421 702 1386 721.5 c 128,-1,8
 1351 741 1351 741 1293 741 c 0,9,10
 1161 741 1161 741 1161 650 c 2,11,-1
 1161 576 l 1,12,-1
 1031 518 l 1,13,-1
 1021 518 l 1,14,-1
 1021 584 l 2,15,16
 1021 701 1021 701 1102 754 c 128,-1,17
 1183 807 1183 807 1293.5 807 c 128,-1,18
 1404 807 1404 807 1486 755 c 0,19,20
 1566 704 1566 704 1566 589 c 2,21,-1
 1566 545 l 2,22,23
 1566 392 1566 392 1364 252 c 2,24,-1
 1189 131 l 1,25,-1
 1568 131 l 1,26,-1
 1568 121 l 1,27,-1
 1521 0 l 1,28,-1
 1017 0 l 1,0,-1
402 1530 m 1,29,-1
 412 1530 l 1,30,-1
 412 747 l 1,31,-1
 282 696 l 1,32,-1
 272 696 l 1,33,-1
 272 1409 l 1,34,-1
 150 1351 l 1,35,-1
 150 1420 l 1,36,-1
 402 1530 l 1,29,-1
454 -20 m 1,37,-1
 327 42 l 1,38,-1
 1021 1530 l 1,39,-1
 1031 1530 l 1,40,-1
 1159 1468 l 1,41,-1
 464 -20 l 1,42,-1
 454 -20 l 1,37,-1
EndSplineSet
Validated: 1
EndChar

StartChar: threequarters
Encoding: 190 190 126
Width: 1796
VWidth: 1401
GlyphClass: 2
Flags: W
HStem: -20 21G<637.032 697.341 1430 1490.98> 180 66<1162 1430 1570 1620> 723 65<319.016 524.023> 1466 64<228 476>
VStem: 150 148<812.46 953.506> 545 140<807.942 1163.12> 1430 140<31 180 246 639>
DStem2: 336 1208 499 1241 0.495815 0.868428<109.476 293.469> 551 42 688 -20 0.423185 0.906043<1.80173 1641.88> 1044 190 1162 246 0.562937 0.8265<112.711 588.392>
LayerCount: 2
Fore
SplineSet
1162 246 m 1,0,-1
 1430 246 l 1,1,-1
 1430 639 l 1,2,-1
 1162 246 l 1,0,-1
1440 -20 m 1,3,-1
 1430 -20 l 1,4,-1
 1430 180 l 1,5,-1
 1044 180 l 1,6,-1
 1044 190 l 1,7,-1
 1437 767 l 1,8,-1
 1560 815 l 1,9,-1
 1570 815 l 1,10,-1
 1570 246 l 1,11,-1
 1646 246 l 1,12,-1
 1646 236 l 1,13,-1
 1620 180 l 1,14,-1
 1570 180 l 1,15,-1
 1570 31 l 1,16,-1
 1440 -20 l 1,3,-1
228 1530 m 1,17,-1
 664 1530 l 1,18,-1
 499 1241 l 1,19,20
 685 1199 685 1199 685 1027 c 2,21,-1
 685 945 l 2,22,23
 685 828 685 828 604.5 775.5 c 128,-1,24
 524 723 524 723 418 723 c 0,25,26
 308 723 308 723 233 775 c 0,27,28
 159 826 159 826 150 948 c 1,29,-1
 288 1001 l 1,30,-1
 298 1001 l 1,31,-1
 298 880 l 2,32,33
 298 788 298 788 421.5 788 c 128,-1,34
 545 788 545 788 545 880 c 2,35,-1
 545 1094 l 2,36,37
 545 1146 545 1146 507 1166 c 0,38,39
 470 1186 470 1186 423 1186 c 0,40,41
 386 1186 386 1186 358 1178 c 1,42,-1
 336 1208 l 1,43,-1
 476 1466 l 1,44,-1
 207 1466 l 1,45,-1
 207 1476 l 1,46,-1
 228 1530 l 1,17,-1
678 -20 m 1,47,-1
 551 42 l 1,48,-1
 1245 1530 l 1,49,-1
 1255 1530 l 1,50,-1
 1383 1468 l 1,51,-1
 688 -20 l 1,52,-1
 678 -20 l 1,47,-1
EndSplineSet
Validated: 1
EndChar

StartChar: questiondown
Encoding: 191 191 127
Width: 1310
GlyphClass: 2
Flags: W
HStem: -430 90<453.843 861.904> 875 245<591.097 758.903>
VStem: 150 210<-223.183 208.562> 555 240<912.129 1082.87> 569 203<554.826 646> 960 200<-223.183 -26>
LayerCount: 2
Fore
SplineSet
655.5 -430 m 128,-1,1
 445 -430 445 -430 297.5 -334 c 128,-1,2
 150 -238 150 -238 150 -26 c 2,3,-1
 150 30 l 2,4,5
 150 299 150 299 479 464 c 0,6,7
 569 509 569 509 569 646 c 1,8,-1
 762 739 l 1,9,-1
 772 739 l 1,10,11
 772 507 772 507 562 402 c 0,12,13
 360 301 360 301 360 28 c 2,14,-1
 360 -116 l 2,15,16
 360 -243 360 -243 444.5 -291.5 c 128,-1,17
 529 -340 529 -340 655.5 -340 c 128,-1,18
 782 -340 782 -340 871 -291.5 c 128,-1,19
 960 -243 960 -243 960 -116 c 2,20,-1
 960 -26 l 1,21,-1
 1150 64 l 1,22,-1
 1160 64 l 1,23,-1
 1160 -26 l 2,24,25
 1160 -238 1160 -238 1013 -334 c 128,-1,0
 866 -430 866 -430 655.5 -430 c 128,-1,1
675 1120 m 128,-1,27
 725 1120 725 1120 760 1084 c 128,-1,28
 795 1048 795 1048 795 997.5 c 128,-1,29
 795 947 795 947 760 911 c 128,-1,30
 725 875 725 875 675 875 c 128,-1,31
 625 875 625 875 590 911 c 128,-1,32
 555 947 555 947 555 997.5 c 128,-1,33
 555 1048 555 1048 590 1084 c 128,-1,26
 625 1120 625 1120 675 1120 c 128,-1,27
EndSplineSet
Validated: 1
EndChar

StartChar: endash
Encoding: 8211 8211 128
Width: 1200
GlyphClass: 2
Flags: W
HStem: 680 150<216 984>
LayerCount: 2
Fore
SplineSet
216 830 m 5,0,-1
 1050 830 l 5,1,-1
 1050 820 l 5,2,-1
 984 680 l 5,3,-1
 150 680 l 5,4,-1
 150 690 l 5,5,-1
 216 830 l 5,0,-1
EndSplineSet
Validated: 1
EndChar

StartChar: emdash
Encoding: 8212 8212 129
Width: 1500
GlyphClass: 2
Flags: W
HStem: 680 150<216 1284>
LayerCount: 2
Fore
SplineSet
216 830 m 1,0,-1
 1350 830 l 1,1,-1
 1350 820 l 1,2,-1
 1284 680 l 1,3,-1
 150 680 l 1,4,-1
 150 690 l 1,5,-1
 216 830 l 1,0,-1
EndSplineSet
Validated: 1
EndChar

StartChar: afii00208
Encoding: 8213 8213 130
Width: 1500
GlyphClass: 2
Flags: W
HStem: 680 150<216 1284>
LayerCount: 2
Fore
SplineSet
216 830 m 1,0,-1
 1350 830 l 1,1,-1
 1350 820 l 1,2,-1
 1284 680 l 1,3,-1
 150 680 l 1,4,-1
 150 690 l 1,5,-1
 216 830 l 1,0,-1
EndSplineSet
Validated: 1
EndChar

StartChar: quoteleft
Encoding: 8216 8216 131
Width: 389
GlyphClass: 2
Flags: W
HStem: 1046 554
VStem: 50 155<1202.44 1446.68>
LayerCount: 2
Fore
SplineSet
275 1600 m 1,0,-1
 282 1593 l 1,1,2
 205 1463 205 1463 205 1334 c 128,-1,3
 205 1205 205 1205 339 1126 c 1,4,-1
 169 1046 l 1,5,-1
 159 1046 l 1,6,7
 50 1153 50 1153 50 1290 c 0,8,9
 50 1487 50 1487 275 1600 c 1,0,-1
EndSplineSet
Validated: 1
EndChar

StartChar: quoteright
Encoding: 8217 8217 132
Width: 389
GlyphClass: 2
Flags: W
HStem: 1046 554
VStem: 184 155<1199.32 1443.56>
LayerCount: 2
Fore
SplineSet
220 1600 m 1,0,-1
 230 1600 l 1,1,2
 339 1493 339 1493 339 1356 c 0,3,4
 339 1159 339 1159 114 1046 c 1,5,-1
 107 1053 l 1,6,7
 184 1183 184 1183 184 1312 c 128,-1,8
 184 1441 184 1441 50 1520 c 1,9,-1
 220 1600 l 1,0,-1
EndSplineSet
Validated: 1
EndChar

StartChar: quotesinglbase
Encoding: 8218 8218 133
Width: 389
GlyphClass: 2
Flags: W
HStem: -276 554
VStem: 184 155<-122.682 121.561>
LayerCount: 2
Fore
SplineSet
220 278 m 1,0,-1
 230 278 l 1,1,2
 339 171 339 171 339 34 c 0,3,4
 339 -163 339 -163 114 -276 c 1,5,-1
 107 -269 l 1,6,7
 184 -139 184 -139 184 -10 c 128,-1,8
 184 119 184 119 50 198 c 1,9,-1
 220 278 l 1,0,-1
EndSplineSet
Validated: 1
EndChar

StartChar: quotereversed
Encoding: 8219 8219 134
Width: 389
GlyphClass: 2
Flags: W
HStem: 1046 554
VStem: 50 155<1199.32 1443.56>
LayerCount: 2
Fore
SplineSet
169 1600 m 1,0,-1
 339 1520 l 1,1,2
 205 1441 205 1441 205 1312 c 128,-1,3
 205 1183 205 1183 282 1053 c 1,4,-1
 275 1046 l 1,5,6
 50 1159 50 1159 50 1356 c 0,7,8
 50 1493 50 1493 159 1600 c 1,9,-1
 169 1600 l 1,0,-1
EndSplineSet
Validated: 1
EndChar

StartChar: quotedblleft
Encoding: 8220 8220 135
Width: 688
GlyphClass: 2
Flags: W
HStem: 1046 554
VStem: 50 155<1202.44 1446.68> 349 155<1202.44 1446.68>
LayerCount: 2
Fore
SplineSet
275 1600 m 1,0,-1
 282 1593 l 1,1,2
 205 1463 205 1463 205 1334 c 128,-1,3
 205 1205 205 1205 339 1126 c 1,4,-1
 169 1046 l 1,5,-1
 159 1046 l 1,6,7
 50 1153 50 1153 50 1290 c 0,8,9
 50 1487 50 1487 275 1600 c 1,0,-1
574 1600 m 1,10,-1
 581 1593 l 1,11,12
 504 1463 504 1463 504 1334 c 128,-1,13
 504 1205 504 1205 638 1126 c 1,14,-1
 468 1046 l 1,15,-1
 458 1046 l 1,16,17
 349 1153 349 1153 349 1290 c 0,18,19
 349 1487 349 1487 574 1600 c 1,10,-1
EndSplineSet
Validated: 1
EndChar

StartChar: quotedblright
Encoding: 8221 8221 136
Width: 688
GlyphClass: 2
Flags: W
HStem: 1046 554
VStem: 184 155<1199.32 1443.56> 483 155<1199.32 1443.56>
LayerCount: 2
Fore
SplineSet
519 1600 m 1,0,-1
 529 1600 l 1,1,2
 638 1493 638 1493 638 1356 c 0,3,4
 638 1159 638 1159 413 1046 c 1,5,-1
 406 1053 l 1,6,7
 483 1183 483 1183 483 1312 c 128,-1,8
 483 1441 483 1441 349 1520 c 1,9,-1
 519 1600 l 1,0,-1
220 1600 m 1,10,-1
 230 1600 l 1,11,12
 339 1493 339 1493 339 1356 c 0,13,14
 339 1159 339 1159 114 1046 c 1,15,-1
 107 1053 l 1,16,17
 184 1183 184 1183 184 1312 c 128,-1,18
 184 1441 184 1441 50 1520 c 1,19,-1
 220 1600 l 1,10,-1
EndSplineSet
Validated: 1
EndChar

StartChar: quotedblbase
Encoding: 8222 8222 137
Width: 688
GlyphClass: 2
Flags: W
HStem: -276 554
VStem: 184 155<-122.682 121.561> 483 155<-122.682 121.561>
LayerCount: 2
Fore
SplineSet
519 278 m 1,0,-1
 529 278 l 1,1,2
 638 171 638 171 638 34 c 0,3,4
 638 -163 638 -163 413 -276 c 1,5,-1
 406 -269 l 1,6,7
 483 -139 483 -139 483 -10 c 128,-1,8
 483 119 483 119 349 198 c 1,9,-1
 519 278 l 1,0,-1
220 278 m 1,10,-1
 230 278 l 1,11,12
 339 171 339 171 339 34 c 0,13,14
 339 -163 339 -163 114 -276 c 1,15,-1
 107 -269 l 1,16,17
 184 -139 184 -139 184 -10 c 128,-1,18
 184 119 184 119 50 198 c 1,19,-1
 220 278 l 1,10,-1
EndSplineSet
Validated: 1
EndChar

StartChar: dagger
Encoding: 8224 8224 138
Width: 1214
GlyphClass: 2
Flags: W
HStem: -20 21G<507 559.222> 1088 90<188 507 707 1026> 1510 20G<654.778 707>
VStem: 507 200<70 1088 1178 1440>
LayerCount: 2
Fore
SplineSet
517 -20 m 1,0,-1
 507 -20 l 1,1,-1
 507 1088 l 1,2,-1
 150 1088 l 1,3,-1
 150 1098 l 1,4,-1
 188 1178 l 1,5,-1
 507 1178 l 1,6,-1
 507 1440 l 1,7,-1
 697 1530 l 1,8,-1
 707 1530 l 1,9,-1
 707 1178 l 1,10,-1
 1064 1178 l 1,11,-1
 1064 1168 l 1,12,-1
 1026 1088 l 1,13,-1
 707 1088 l 1,14,-1
 707 70 l 1,15,-1
 517 -20 l 1,0,-1
EndSplineSet
Validated: 1
EndChar

StartChar: daggerdbl
Encoding: 8225 8225 139
Width: 1214
GlyphClass: 2
Flags: W
HStem: -20 21G<507 559.222> 332 90<188 507 707 1026> 1088 90<188 507 707 1026> 1510 20G<654.778 707>
VStem: 507 200<70 332 422 1088 1178 1440>
LayerCount: 2
Fore
SplineSet
517 -20 m 1,0,-1
 507 -20 l 1,1,-1
 507 332 l 1,2,-1
 150 332 l 1,3,-1
 150 342 l 1,4,-1
 188 422 l 1,5,-1
 507 422 l 1,6,-1
 507 1088 l 1,7,-1
 150 1088 l 1,8,-1
 150 1098 l 1,9,-1
 188 1178 l 1,10,-1
 507 1178 l 1,11,-1
 507 1440 l 1,12,-1
 697 1530 l 1,13,-1
 707 1530 l 1,14,-1
 707 1178 l 1,15,-1
 1064 1178 l 1,16,-1
 1064 1168 l 1,17,-1
 1026 1088 l 1,18,-1
 707 1088 l 1,19,-1
 707 422 l 1,20,-1
 1064 422 l 1,21,-1
 1064 412 l 1,22,-1
 1026 332 l 1,23,-1
 707 332 l 1,24,-1
 707 70 l 1,25,-1
 517 -20 l 1,0,-1
EndSplineSet
Validated: 1
EndChar

StartChar: bullet
Encoding: 8226 8226 140
Width: 904
GlyphClass: 2
Flags: W
HStem: 448 614<264.112 639.888>
VStem: 150 604<549.618 960.382>
LayerCount: 2
Fore
SplineSet
452 1062 m 128,-1,1
 577 1062 577 1062 665.5 1002 c 128,-1,2
 754 942 754 942 754 814 c 2,3,-1
 754 696 l 2,4,5
 754 568 754 568 665.5 508 c 128,-1,6
 577 448 577 448 452 448 c 128,-1,7
 327 448 327 448 238.5 508 c 128,-1,8
 150 568 150 568 150 696 c 2,9,-1
 150 814 l 2,10,11
 150 942 150 942 238.5 1002 c 128,-1,0
 327 1062 327 1062 452 1062 c 128,-1,1
EndSplineSet
Validated: 1
EndChar

StartChar: ellipsis
Encoding: 8230 8230 141
Width: 1012
GlyphClass: 2
Flags: W
HStem: -20 245<86.0974 253.903 422.097 589.903 758.097 925.903>
VStem: 50 240<17.1285 187.871> 386 240<17.1285 187.871> 722 240<17.1285 187.871>
CounterMasks: 1 70
LayerCount: 2
Fore
SplineSet
842 -20 m 128,-1,1
 792 -20 792 -20 757 16 c 128,-1,2
 722 52 722 52 722 102.5 c 128,-1,3
 722 153 722 153 757 189 c 128,-1,4
 792 225 792 225 842 225 c 128,-1,5
 892 225 892 225 927 189 c 128,-1,6
 962 153 962 153 962 102.5 c 128,-1,7
 962 52 962 52 927 16 c 128,-1,0
 892 -20 892 -20 842 -20 c 128,-1,1
506 -20 m 128,-1,9
 456 -20 456 -20 421 16 c 128,-1,10
 386 52 386 52 386 102.5 c 128,-1,11
 386 153 386 153 421 189 c 128,-1,12
 456 225 456 225 506 225 c 128,-1,13
 556 225 556 225 591 189 c 128,-1,14
 626 153 626 153 626 102.5 c 128,-1,15
 626 52 626 52 591 16 c 128,-1,8
 556 -20 556 -20 506 -20 c 128,-1,9
170 -20 m 128,-1,17
 120 -20 120 -20 85 16 c 128,-1,18
 50 52 50 52 50 102.5 c 128,-1,19
 50 153 50 153 85 189 c 128,-1,20
 120 225 120 225 170 225 c 128,-1,21
 220 225 220 225 255 189 c 128,-1,22
 290 153 290 153 290 102.5 c 128,-1,23
 290 52 290 52 255 16 c 128,-1,16
 220 -20 220 -20 170 -20 c 128,-1,17
EndSplineSet
Validated: 1
EndChar

StartChar: perthousand
Encoding: 8240 8240 142
Width: 2220
GlyphClass: 2
Flags: W
HStem: -20 64<981.011 1208.99 1654.01 1881.99> 535 59<982.683 1207.32 1655.68 1880.32> 916 64<338.011 565.989> 1471 59<339.683 564.317>
VStem: 150 144<1017.62 1428.38> 610 144<1017.62 1428.38> 793 144<81.6182 492.382> 1253 144<81.6182 492.382> 1466 144<81.6182 492.382> 1926 144<81.6182 492.382>
DStem2: 358 42 495 -20 0.423185 0.906043<1.80173 1641.88>
LayerCount: 2
Fore
SplineSet
1768 44 m 128,-1,1
 1837 44 1837 44 1881.5 72.5 c 128,-1,2
 1926 101 1926 101 1926 170 c 2,3,-1
 1926 408 l 2,4,5
 1926 477 1926 477 1881.5 506 c 128,-1,6
 1837 535 1837 535 1768 535 c 128,-1,7
 1699 535 1699 535 1654.5 506 c 128,-1,8
 1610 477 1610 477 1610 408 c 2,9,-1
 1610 170 l 2,10,11
 1610 101 1610 101 1654.5 72.5 c 128,-1,0
 1699 44 1699 44 1768 44 c 128,-1,1
1768 -20 m 128,-1,13
 1643 -20 1643 -20 1554.5 40 c 128,-1,14
 1466 100 1466 100 1466 228 c 2,15,-1
 1466 346 l 2,16,17
 1466 474 1466 474 1554.5 534 c 128,-1,18
 1643 594 1643 594 1768 594 c 128,-1,19
 1893 594 1893 594 1981.5 534 c 128,-1,20
 2070 474 2070 474 2070 346 c 2,21,-1
 2070 228 l 2,22,23
 2070 100 2070 100 1981.5 40 c 128,-1,12
 1893 -20 1893 -20 1768 -20 c 128,-1,13
1095 44 m 128,-1,25
 1164 44 1164 44 1208.5 72.5 c 128,-1,26
 1253 101 1253 101 1253 170 c 2,27,-1
 1253 408 l 2,28,29
 1253 477 1253 477 1208.5 506 c 128,-1,30
 1164 535 1164 535 1095 535 c 128,-1,31
 1026 535 1026 535 981.5 506 c 128,-1,32
 937 477 937 477 937 408 c 2,33,-1
 937 170 l 2,34,35
 937 101 937 101 981.5 72.5 c 128,-1,24
 1026 44 1026 44 1095 44 c 128,-1,25
1095 -20 m 128,-1,37
 970 -20 970 -20 881.5 40 c 128,-1,38
 793 100 793 100 793 228 c 2,39,-1
 793 346 l 2,40,41
 793 474 793 474 881.5 534 c 128,-1,42
 970 594 970 594 1095 594 c 128,-1,43
 1220 594 1220 594 1308.5 534 c 128,-1,44
 1397 474 1397 474 1397 346 c 2,45,-1
 1397 228 l 2,46,47
 1397 100 1397 100 1308.5 40 c 128,-1,36
 1220 -20 1220 -20 1095 -20 c 128,-1,37
452 1471 m 128,-1,49
 383 1471 383 1471 338.5 1442 c 128,-1,50
 294 1413 294 1413 294 1344 c 2,51,-1
 294 1106 l 2,52,53
 294 1037 294 1037 338.5 1008.5 c 128,-1,54
 383 980 383 980 452 980 c 128,-1,55
 521 980 521 980 565.5 1008.5 c 128,-1,56
 610 1037 610 1037 610 1106 c 2,57,-1
 610 1344 l 2,58,59
 610 1413 610 1413 565.5 1442 c 128,-1,48
 521 1471 521 1471 452 1471 c 128,-1,49
452 1530 m 128,-1,61
 577 1530 577 1530 665.5 1470 c 128,-1,62
 754 1410 754 1410 754 1282 c 2,63,-1
 754 1164 l 2,64,65
 754 1036 754 1036 665.5 976 c 128,-1,66
 577 916 577 916 452 916 c 128,-1,67
 327 916 327 916 238.5 976 c 128,-1,68
 150 1036 150 1036 150 1164 c 2,69,-1
 150 1282 l 2,70,71
 150 1410 150 1410 238.5 1470 c 128,-1,60
 327 1530 327 1530 452 1530 c 128,-1,61
485 -20 m 1,72,-1
 358 42 l 1,73,-1
 1052 1530 l 1,74,-1
 1062 1530 l 1,75,-1
 1190 1468 l 1,76,-1
 495 -20 l 1,77,-1
 485 -20 l 1,72,-1
EndSplineSet
Validated: 1
EndChar

StartChar: minute
Encoding: 8242 8242 143
Width: 414
GlyphClass: 2
Flags: W
HStem: 1201 399
VStem: 50 314
LayerCount: 2
Fore
SplineSet
201 1600 m 1,0,-1
 211 1600 l 1,1,-1
 364 1527 l 1,2,-1
 154 1201 l 1,3,-1
 144 1201 l 1,4,-1
 50 1245 l 1,5,-1
 201 1600 l 1,0,-1
EndSplineSet
Validated: 1
EndChar

StartChar: second
Encoding: 8243 8243 144
Width: 667
GlyphClass: 2
Flags: W
HStem: 1201 399
VStem: 50 567
LayerCount: 2
Fore
SplineSet
454 1600 m 1,0,-1
 464 1600 l 1,1,-1
 617 1527 l 1,2,-1
 407 1201 l 1,3,-1
 397 1201 l 1,4,-1
 303 1245 l 1,5,-1
 454 1600 l 1,0,-1
201 1600 m 1,6,-1
 211 1600 l 1,7,-1
 364 1527 l 1,8,-1
 154 1201 l 1,9,-1
 144 1201 l 1,10,-1
 50 1245 l 1,11,-1
 201 1600 l 1,6,-1
EndSplineSet
Validated: 1
EndChar

StartChar: guilsinglleft
Encoding: 8249 8249 145
Width: 748
GlyphClass: 2
Flags: W
VStem: 150 398
DStem2: 278 829 150 755 0.51032 -0.859984<0 511.114> 150 755 278 829 0.506484 0.862249<128.636 570.601>
LayerCount: 2
Fore
SplineSet
150 755 m 1,0,-1
 439 1247 l 1,1,-1
 449 1247 l 1,2,-1
 509 1218 l 1,3,-1
 278 829 l 1,4,-1
 548 374 l 1,5,-1
 420 313 l 1,6,-1
 410 313 l 1,7,-1
 150 755 l 1,0,-1
EndSplineSet
Validated: 1
EndChar

StartChar: guilsinglright
Encoding: 8250 8250 146
Width: 798
GlyphClass: 2
Flags: W
VStem: 200 398
DStem2: 338 1197 200 1136 0.51032 -0.859984<0 511.114> 239 292 309 263 0.506484 0.862249<10.4486 452.413>
LayerCount: 2
Fore
SplineSet
598 755 m 1,0,-1
 309 263 l 1,1,-1
 299 263 l 1,2,-1
 239 292 l 1,3,-1
 470 681 l 1,4,-1
 200 1136 l 1,5,-1
 328 1197 l 1,6,-1
 338 1197 l 1,7,-1
 598 755 l 1,0,-1
EndSplineSet
Validated: 1
EndChar

StartChar: fraction
Encoding: 8260 8260 147
Width: 852
GlyphClass: 2
Flags: W
HStem: -20 21G<96.0323 156.341> 1510 20G<694.672 755.29>
DStem2: 10 42 147 -20 0.423185 0.906043<1.80173 1641.88>
LayerCount: 2
Fore
SplineSet
137 -20 m 1,0,-1
 10 42 l 1,1,-1
 704 1530 l 1,2,-1
 714 1530 l 1,3,-1
 842 1468 l 1,4,-1
 147 -20 l 1,5,-1
 137 -20 l 1,0,-1
EndSplineSet
Validated: 1
EndChar

StartChar: Euro
Encoding: 8364 8364 148
Width: 1400
GlyphClass: 2
Flags: W
HStem: -20 90<543.843 945.728> 595 90<118 240 450 932> 795 90<118 240 450 932> 1440 90<543.843 945.728>
VStem: 240 210<186.817 595 685 795 885 1323.18> 1035 215<186.817 377 1146.15 1323.12>
LayerCount: 2
Fore
SplineSet
745.5 -20 m 128,-1,1
 535 -20 535 -20 387.5 76 c 128,-1,2
 240 172 240 172 240 384 c 2,3,-1
 240 595 l 1,4,-1
 80 595 l 1,5,-1
 80 605 l 1,6,-1
 118 685 l 1,7,-1
 240 685 l 1,8,-1
 240 795 l 1,9,-1
 80 795 l 1,10,-1
 80 805 l 1,11,-1
 118 885 l 1,12,-1
 240 885 l 1,13,-1
 240 1126 l 2,14,15
 240 1338 240 1338 387.5 1434 c 128,-1,16
 535 1530 535 1530 745.5 1530 c 128,-1,17
 956 1530 956 1530 1103 1434 c 0,18,19
 1240 1344 1240 1344 1250 1153 c 1,20,-1
 1045 1055 l 1,21,-1
 1035 1055 l 1,22,-1
 1035 1216 l 2,23,24
 1035 1343 1035 1343 953.5 1391.5 c 128,-1,25
 872 1440 872 1440 745.5 1440 c 128,-1,26
 619 1440 619 1440 534.5 1391.5 c 128,-1,27
 450 1343 450 1343 450 1216 c 2,28,-1
 450 885 l 1,29,-1
 970 885 l 1,30,-1
 970 875 l 1,31,-1
 932 795 l 1,32,-1
 450 795 l 1,33,-1
 450 685 l 1,34,-1
 970 685 l 1,35,-1
 970 675 l 1,36,-1
 932 595 l 1,37,-1
 450 595 l 1,38,-1
 450 294 l 2,39,40
 450 167 450 167 534.5 118.5 c 128,-1,41
 619 70 619 70 745.5 70 c 128,-1,42
 872 70 872 70 953.5 118.5 c 128,-1,43
 1035 167 1035 167 1035 294 c 2,44,-1
 1035 377 l 1,45,-1
 1240 474 l 1,46,-1
 1250 474 l 1,47,-1
 1250 384 l 2,48,49
 1250 172 1250 172 1103 76 c 128,-1,0
 956 -20 956 -20 745.5 -20 c 128,-1,1
EndSplineSet
Validated: 1
EndChar

StartChar: afii61248
Encoding: 8453 8453 149
Width: 1625
GlyphClass: 2
Flags: W
HStem: -20 65<1095.4 1308.77> 716 65<322.796 528.017 1086.19 1305.34> 1466 64<317.802 520.9>
VStem: 150 145<801.633 1447.11> 549 147<801.672 949 1304.04 1442.34> 929 145<64.871 706.809> 1330 145<64.871 707.367>
DStem2: 397 42 534 -20 0.423185 0.906043<1.80173 1641.88>
LayerCount: 2
Fore
SplineSet
422 1530 m 0,0,1
 535 1530 535 1530 612 1480 c 0,2,3
 687 1431 687 1431 696 1310 c 1,4,-1
 559 1253 l 1,5,-1
 549 1253 l 1,6,-1
 548 1374 l 2,7,8
 548 1427 548 1427 514 1446 c 0,9,10
 477 1466 477 1466 422 1466 c 0,11,12
 295 1466 295 1466 295 1374 c 2,13,-1
 295 873 l 2,14,15
 295 821 295 821 329.5 801 c 128,-1,16
 364 781 364 781 422 781 c 0,17,18
 549 781 549 781 549 873 c 2,19,-1
 549 949 l 1,20,-1
 686 1003 l 1,21,-1
 696 1003 l 1,22,-1
 696 939 l 2,23,24
 696 822 696 822 614 769 c 128,-1,25
 532 716 532 716 422 716 c 0,26,27
 310 716 310 716 230 769 c 128,-1,28
 150 822 150 822 150 938 c 2,29,-1
 150 1309 l 2,30,31
 150 1426 150 1426 230 1478 c 128,-1,32
 310 1530 310 1530 422 1530 c 0,0,1
1203 45 m 0,33,34
 1330 45 1330 45 1330 137 c 2,35,-1
 1330 636 l 2,36,37
 1330 688 1330 688 1294.5 708 c 128,-1,38
 1259 728 1259 728 1202 728 c 0,39,40
 1074 728 1074 728 1074 636 c 2,41,-1
 1074 137 l 2,42,43
 1074 45 1074 45 1203 45 c 0,33,34
1202 -20 m 128,-1,45
 1091 -20 1091 -20 1010 32.5 c 128,-1,46
 929 85 929 85 929 201 c 2,47,-1
 929 572 l 2,48,49
 929 686 929 686 1009.5 739.5 c 128,-1,50
 1090 793 1090 793 1201.5 793 c 128,-1,51
 1313 793 1313 793 1394 740.5 c 128,-1,52
 1475 688 1475 688 1475 572 c 2,53,-1
 1475 201 l 2,54,55
 1475 85 1475 85 1394 32.5 c 128,-1,44
 1313 -20 1313 -20 1202 -20 c 128,-1,45
524 -20 m 1,56,-1
 397 42 l 1,57,-1
 1091 1530 l 1,58,-1
 1101 1530 l 1,59,-1
 1229 1468 l 1,60,-1
 534 -20 l 1,61,-1
 524 -20 l 1,56,-1
EndSplineSet
Validated: 1
EndChar

StartChar: afii61289
Encoding: 8467 8467 150
Width: 958
GlyphClass: 2
Flags: W
HStem: -20 136<458.002 574.715> 0 21G<50 263> 1510 20G<632 703>
VStem: 232 155<466 819.618> 655 153<1042.58 1357.48>
LayerCount: 2
Fore
SplineSet
387 466 m 1,0,1
 498 708 498 708 554 860 c 0,2,3
 655 1134 655 1134 655 1359 c 1,4,5
 563 1238 563 1238 503 1067 c 0,6,7
 387 740 387 740 387 466 c 1,0,1
50 0 m 1,8,9
 171 158 171 158 244 282 c 1,10,11
 232 366 232 366 232 443 c 0,12,13
 232 629 232 629 279 848 c 0,14,15
 367 1251 367 1251 517 1434 c 0,16,17
 595 1530 595 1530 669 1530 c 0,18,19
 737 1530 737 1530 772 1479 c 0,20,21
 808 1429 808 1429 808 1318 c 0,22,23
 808 1226 808 1226 778 1072 c 0,24,25
 708 722 708 722 422 271 c 1,26,27
 454 116 454 116 511 116 c 0,28,29
 535 116 535 116 562.5 145 c 128,-1,30
 590 174 590 174 616 228 c 1,31,-1
 792 228 l 1,32,33
 715 100 715 100 650.5 40 c 128,-1,34
 586 -20 586 -20 502 -20 c 0,35,36
 382 -20 382 -20 305 90 c 1,37,-1
 251 0 l 1,38,-1
 50 0 l 1,8,9
EndSplineSet
Validated: 1
EndChar

StartChar: trademark
Encoding: 8482 8482 151
Width: 1778
GlyphClass: 2
Flags: W
HStem: 1465 65<126 313 453 640 832.501 1057.05 1237.94 1461.46>
VStem: 313 140<767 1465> 678 140<769 1455.79> 1083 140<769 1453.85> 1488 140<769 1453.85>
LayerCount: 2
Fore
SplineSet
951 1540 m 0,0,1
 1052 1540 1052 1540 1140 1490 c 0,2,3
 1147 1486 1147 1486 1153 1480 c 1,4,5
 1237 1540 1237 1540 1352 1540 c 128,-1,6
 1467 1540 1467 1540 1548 1487 c 0,7,8
 1628 1435 1628 1435 1628 1319 c 2,9,-1
 1628 769 l 1,10,-1
 1498 716 l 1,11,-1
 1488 716 l 1,12,-1
 1488 1383 l 2,13,14
 1488 1434 1488 1434 1450.5 1454.5 c 128,-1,15
 1413 1475 1413 1475 1356 1475 c 0,16,17
 1223 1475 1223 1475 1223 1383 c 2,18,-1
 1223 769 l 1,19,-1
 1093 716 l 1,20,-1
 1083 716 l 1,21,-1
 1083 1383 l 2,22,23
 1083 1434 1083 1434 1046 1454.5 c 128,-1,24
 1009 1475 1009 1475 951 1475 c 0,25,26
 818 1475 818 1475 818 1383 c 2,27,-1
 818 769 l 1,28,-1
 688 716 l 1,29,-1
 678 716 l 1,30,-1
 678 1319 l 2,31,32
 678 1436 678 1436 759 1488 c 128,-1,33
 840 1540 840 1540 951 1540 c 0,0,1
126 1530 m 1,34,-1
 666 1530 l 1,35,-1
 666 1520 l 1,36,-1
 640 1465 l 1,37,-1
 453 1465 l 1,38,-1
 453 767 l 1,39,-1
 323 716 l 1,40,-1
 313 716 l 1,41,-1
 313 1465 l 1,42,-1
 100 1465 l 1,43,-1
 100 1475 l 1,44,-1
 126 1530 l 1,34,-1
EndSplineSet
Validated: 1
EndChar

StartChar: uni2126
Encoding: 8486 8486 152
Width: 1410
GlyphClass: 2
Flags: W
HStem: 0 291<484.463 608 802 926.476> 0 90<238 446 964 1172> 1440 90<498.798 911.904>
VStem: 200 200<410.996 1323.18> 446 162<90 268.098> 802 162<90 267.289> 1010 200<410.504 1323.18>
LayerCount: 2
Fore
SplineSet
608 0 m 1,0,-1
 200 0 l 1,1,-1
 200 10 l 1,2,-1
 238 90 l 1,3,-1
 446 90 l 1,4,-1
 446 248 l 1,5,6
 394 269 394 269 348 299 c 0,7,8
 200 395 200 395 200 607 c 2,9,-1
 200 1126 l 2,10,11
 200 1338 200 1338 347.5 1434 c 128,-1,12
 495 1530 495 1530 705.5 1530 c 128,-1,13
 916 1530 916 1530 1063 1434 c 128,-1,14
 1210 1338 1210 1338 1210 1126 c 2,15,-1
 1210 607 l 2,16,17
 1210 395 1210 395 1063 299 c 0,18,19
 1016 268 1016 268 964 247 c 1,20,-1
 964 90 l 1,21,-1
 1210 90 l 1,22,-1
 1210 80 l 1,23,-1
 1172 0 l 1,24,-1
 802 0 l 1,25,-1
 802 291 l 1,26,27
 868 303 868 303 921 332 c 0,28,29
 1010 379 1010 379 1010 507 c 2,30,-1
 1010 1216 l 2,31,32
 1010 1343 1010 1343 921 1391.5 c 128,-1,33
 832 1440 832 1440 705.5 1440 c 128,-1,34
 579 1440 579 1440 489.5 1391.5 c 128,-1,35
 400 1343 400 1343 400 1216 c 2,36,-1
 400 507 l 2,37,38
 400 380 400 380 490 332 c 0,39,40
 543 303 543 303 608 291 c 1,41,-1
 608 0 l 1,0,-1
EndSplineSet
Validated: 1
EndChar

StartChar: estimated
Encoding: 8494 8494 153
Width: 1330
GlyphClass: 2
Flags: W
HStem: -20 92<451.758 852.453> 525 80<348 983> 1036 84<468.183 852.399>
VStem: 100 248<309.991 525 605 788.181> 983 247<605 774.087>
LayerCount: 2
Fore
SplineSet
1104 204 m 1,0,1
 1032 113 1032 113 948 61 c 0,2,3
 817 -20 817 -20 665 -20 c 0,4,5
 409 -20 409 -20 256 139 c 0,6,7
 100 301 100 301 100 550 c 0,8,9
 100 788 100 788 249 952 c 24,10,11
 402 1120 402 1120 666 1120 c 0,12,13
 915 1120 915 1120 1064 964 c 280,14,15
 1230 790 1230 790 1230 525 c 1,16,-1
 348 525 l 1,17,-1
 348 192 l 1,18,19
 459 72 459 72 666 72 c 256,20,21
 789 72 789 72 880 132 c 0,22,23
 962 186 962 186 1011 266 c 1,24,25
 1104 204 l 1,0,1
348 605 m 1,26,-1
 983 605 l 1,27,-1
 983 903 l 1,28,29
 852 1036 852 1036 666 1036 c 0,30,31
 475 1036 475 1036 348 914 c 1,32,-1
 348 605 l 1,26,-1
EndSplineSet
Validated: 1
EndChar

StartChar: partialdiff
Encoding: 8706 8706 154
Width: 1285
GlyphClass: 2
Flags: W
HStem: -20 153<399.379 663.581> 870 170<546.66 823.335> 1378 152<492 830.299>
VStem: 150 188<198.966 600.959> 952 183<930 1235.35>
LayerCount: 2
Fore
SplineSet
512 -20 m 0,0,1
 150 -20 150 -20 150 375 c 0,2,3
 150 631 150 631 286 815 c 0,4,5
 454 1040 454 1040 672 1040 c 0,6,7
 859 1040 859 1040 952 930 c 1,8,9
 952 1136 952 1136 907 1239 c 0,10,11
 846 1378 846 1378 678 1378 c 0,12,13
 547 1378 547 1378 420 1294 c 1,14,-1
 420 1468 l 1,15,16
 554 1530 554 1530 703 1530 c 0,17,18
 1135 1530 1135 1530 1135 934 c 0,19,20
 1135 545 1135 545 966.5 262.5 c 128,-1,21
 798 -20 798 -20 512 -20 c 0,0,1
525 133 m 0,22,23
 663 133 663 133 772.5 286 c 128,-1,24
 882 439 882 439 920 680 c 1,25,26
 898 765 898 765 834.5 817.5 c 128,-1,27
 771 870 771 870 695 870 c 0,28,29
 535 870 535 870 436.5 710 c 128,-1,30
 338 550 338 550 338 369 c 0,31,32
 338 133 338 133 525 133 c 0,22,23
EndSplineSet
Validated: 1
EndChar

StartChar: uni2206
Encoding: 8710 8710 155
Width: 1331
GlyphClass: 2
Flags: W
HStem: 0 90<136 1091>
DStem2: 5 0 136 90 0.355307 0.93475<130.673 1481.81> 746 1550 616 1353 0.350461 -0.936577<138.946 1488.31>
LayerCount: 2
Fore
SplineSet
5 0 m 1,0,-1
 563 1468 l 1,1,-1
 736 1550 l 1,2,-1
 746 1550 l 1,3,-1
 1326 0 l 1,4,-1
 5 0 l 1,0,-1
136 90 m 1,5,-1
 1091 90 l 1,6,-1
 616 1353 l 1,7,-1
 136 90 l 1,5,-1
EndSplineSet
Validated: 1
EndChar

StartChar: product
Encoding: 8719 8719 156
Width: 1400
GlyphClass: 2
Flags: W
HStem: -430 21G<200 252.222 1000 1052.22> 1420 90<400 1000>
VStem: 200 200<-340 1420> 1000 200<-340 1420>
LayerCount: 2
Fore
SplineSet
210 -430 m 1,0,-1
 200 -430 l 1,1,-1
 200 1460 l 1,2,-1
 306 1510 l 1,3,-1
 1200 1510 l 1,4,-1
 1200 -340 l 1,5,-1
 1010 -430 l 1,6,-1
 1000 -430 l 1,7,-1
 1000 1420 l 1,8,-1
 400 1420 l 1,9,-1
 400 -340 l 1,10,-1
 210 -430 l 1,0,-1
EndSplineSet
Validated: 1
EndChar

StartChar: summation
Encoding: 8721 8721 157
Width: 1203
GlyphClass: 2
Flags: W
HStem: -410 90<361 1015> 1420 90<351 995>
DStem2: 100 -410 361 -320 0.431264 0.902226<193.76 1108.37> 351 1420 101 1460 0.480758 -0.876854<0 836.92>
LayerCount: 2
Fore
SplineSet
100 -410 m 1,0,-1
 578 590 l 1,1,-1
 101 1460 l 1,2,-1
 207 1510 l 1,3,-1
 1033 1510 l 1,4,-1
 1033 1500 l 1,5,-1
 995 1420 l 1,6,-1
 351 1420 l 1,7,-1
 808 596 l 1,8,-1
 361 -320 l 1,9,-1
 1053 -320 l 1,10,-1
 1053 -330 l 1,11,-1
 1015 -410 l 1,12,-1
 100 -410 l 1,0,-1
EndSplineSet
Validated: 1
EndChar

StartChar: minus
Encoding: 8722 8722 158
Width: 1200
GlyphClass: 2
Flags: W
HStem: 680 150<216 984>
LayerCount: 2
Fore
SplineSet
216 830 m 5,0,-1
 1050 830 l 5,1,-1
 1050 820 l 5,2,-1
 984 680 l 5,3,-1
 150 680 l 5,4,-1
 150 690 l 5,5,-1
 216 830 l 5,0,-1
EndSplineSet
Validated: 1
EndChar

StartChar: uni2215
Encoding: 8725 8725 159
Width: 852
GlyphClass: 2
Flags: W
HStem: -20 21G<96.0323 156.341> 1510 20G<694.672 755.29>
DStem2: 10 42 147 -20 0.423185 0.906043<1.80173 1641.88>
LayerCount: 2
Fore
SplineSet
137 -20 m 1,0,-1
 10 42 l 1,1,-1
 704 1530 l 1,2,-1
 714 1530 l 1,3,-1
 842 1468 l 1,4,-1
 147 -20 l 1,5,-1
 137 -20 l 1,0,-1
EndSplineSet
Validated: 1
EndChar

StartChar: uni2219
Encoding: 8729 8729 160
Width: 340
GlyphClass: 2
Flags: W
HStem: 632 245<86.0974 253.903>
VStem: 50 240<669.129 839.871>
LayerCount: 2
Fore
SplineSet
170 877 m 128,-1,1
 220 877 220 877 255 841 c 128,-1,2
 290 805 290 805 290 754.5 c 128,-1,3
 290 704 290 704 255 668 c 128,-1,4
 220 632 220 632 170 632 c 128,-1,5
 120 632 120 632 85 668 c 128,-1,6
 50 704 50 704 50 754.5 c 128,-1,7
 50 805 50 805 85 841 c 128,-1,0
 120 877 120 877 170 877 c 128,-1,1
EndSplineSet
Validated: 1
EndChar

StartChar: radical
Encoding: 8730 8730 161
Width: 1093
GlyphClass: 2
Flags: W
HStem: -20 21G<312.829 372.133> 1510 20G<948.529 1007.62>
DStem2: 213 806 50 733 0.337524 -0.941317<13.6997 691.032> 442 154 488 55 0.360066 0.932927<0 1465.59>
LayerCount: 2
Fore
SplineSet
320 -20 m 1,0,-1
 50 733 l 1,1,-1
 203 806 l 1,2,-1
 213 806 l 1,3,-1
 442 154 l 1,4,-1
 956 1530 l 1,5,-1
 966 1530 l 1,6,-1
 1043 1493 l 1,7,-1
 488 55 l 1,8,-1
 330 -20 l 1,9,-1
 320 -20 l 1,0,-1
EndSplineSet
Validated: 1
EndChar

StartChar: infinity
Encoding: 8734 8734 162
Width: 1369
GlyphClass: 2
Flags: W
HStem: 448 64<338.011 565.802 802.912 1030.99> 1003 59<339.683 565.125 805.241 1029.32>
VStem: 150 144<549.618 960.382> 610 149<541.401 973.084> 1075 144<549.618 960.382>
CounterMasks: 1 38
LayerCount: 2
Fore
SplineSet
917 512 m 128,-1,1
 986 512 986 512 1030.5 540.5 c 128,-1,2
 1075 569 1075 569 1075 638 c 2,3,-1
 1075 876 l 2,4,5
 1075 945 1075 945 1030.5 974 c 128,-1,6
 986 1003 986 1003 917 1003 c 128,-1,7
 848 1003 848 1003 803.5 974 c 128,-1,8
 759 945 759 945 759 876 c 2,9,-1
 759 638 l 2,10,11
 759 569 759 569 803.5 540.5 c 128,-1,0
 848 512 848 512 917 512 c 128,-1,1
452 512 m 128,-1,13
 521 512 521 512 565.5 540.5 c 128,-1,14
 610 569 610 569 610 638 c 2,15,-1
 610 876 l 2,16,17
 610 945 610 945 565.5 974 c 128,-1,18
 521 1003 521 1003 452 1003 c 128,-1,19
 383 1003 383 1003 338.5 974 c 128,-1,20
 294 945 294 945 294 876 c 2,21,-1
 294 638 l 2,22,23
 294 569 294 569 338.5 540.5 c 128,-1,12
 383 512 383 512 452 512 c 128,-1,13
452 1062 m 0,24,25
 580 1062 580 1062 666 1002 c 0,26,27
 676 995 676 995 684 987 c 1,28,29
 693 995 693 995 704 1002 c 0,30,31
 794 1062 794 1062 917 1062 c 0,32,33
 1042 1062 1042 1062 1130.5 1002 c 128,-1,34
 1219 942 1219 942 1219 814 c 2,35,-1
 1219 696 l 2,36,37
 1219 568 1219 568 1130.5 508 c 128,-1,38
 1042 448 1042 448 917 448 c 0,39,40
 798 448 798 448 704 508 c 0,41,42
 693 515 693 515 684 523 c 1,43,44
 676 515 676 515 666 508 c 0,45,46
 576 448 576 448 452 448 c 0,47,48
 327 448 327 448 238.5 508 c 128,-1,49
 150 568 150 568 150 696 c 2,50,-1
 150 814 l 2,51,52
 150 942 150 942 238.5 1002 c 128,-1,53
 327 1062 327 1062 452 1062 c 0,24,25
EndSplineSet
Validated: 1
EndChar

StartChar: approxequal
Encoding: 8776 8776 163
Width: 1138
GlyphClass: 2
Flags: W
HStem: 376 127<682.406 868.861> 610 127<269.139 455.594> 776 127<682.406 868.861> 1010 127<269.139 455.594>
VStem: 150 82<411 566.371 811 966.371> 906 82<546.629 702 946.629 1102>
LayerCount: 2
Fore
SplineSet
406 737 m 0,0,1
 519 737 519 737 621 610 c 0,2,3
 708 503 708 503 781 503 c 0,4,5
 906 503 906 503 906 702 c 1,6,-1
 978 737 l 1,7,-1
 988 737 l 1,8,9
 988 376 988 376 732 376 c 0,10,11
 619 376 619 376 517 503 c 0,12,13
 430 610 430 610 357 610 c 0,14,15
 232 610 232 610 232 411 c 1,16,-1
 160 376 l 1,17,-1
 150 376 l 1,18,19
 150 737 150 737 406 737 c 0,0,1
406 1137 m 0,20,21
 519 1137 519 1137 621 1010 c 0,22,23
 708 903 708 903 781 903 c 0,24,25
 906 903 906 903 906 1102 c 1,26,-1
 978 1137 l 1,27,-1
 988 1137 l 1,28,29
 988 776 988 776 732 776 c 0,30,31
 619 776 619 776 517 903 c 0,32,33
 430 1010 430 1010 357 1010 c 0,34,35
 232 1010 232 1010 232 811 c 1,36,-1
 160 776 l 1,37,-1
 150 776 l 1,38,39
 150 1137 150 1137 406 1137 c 0,20,21
EndSplineSet
Validated: 1
EndChar

StartChar: notequal
Encoding: 8800 8800 164
Width: 1200
GlyphClass: 2
Flags: W
HStem: 480 150<216 417 596 984> 880 150<216 603 783 984>
DStem2: 272 170 380 166 0.422674 0.906282<42.0237 342.235 553.836 783.365 995.389 1296.51>
LayerCount: 2
Fore
SplineSet
216 1030 m 1,0,-1
 673 1030 l 1,1,-1
 820 1345 l 1,2,-1
 919 1345 l 1,3,-1
 928 1341 l 1,4,-1
 783 1030 l 1,5,-1
 1050 1030 l 1,6,-1
 1050 1020 l 1,7,-1
 984 880 l 1,8,-1
 713 880 l 1,9,-1
 596 630 l 1,10,-1
 1050 630 l 1,11,-1
 1050 620 l 1,12,-1
 984 480 l 1,13,-1
 526 480 l 1,14,-1
 380 166 l 1,15,-1
 281 166 l 1,16,-1
 272 170 l 1,17,-1
 417 480 l 1,18,-1
 150 480 l 1,19,-1
 150 490 l 1,20,-1
 216 630 l 1,21,-1
 487 630 l 1,22,-1
 603 880 l 1,23,-1
 150 880 l 1,24,-1
 150 890 l 1,25,-1
 216 1030 l 1,0,-1
EndSplineSet
Validated: 1
EndChar

StartChar: lessequal
Encoding: 8804 8804 165
Width: 1315
GlyphClass: 2
Flags: W
HStem: 275 150<216 1049>
DStem2: 300 919 150 818 0.942662 -0.33375<0 848.114> 216 968 300 919 0.937476 0.348051<61.6934 928.024>
LayerCount: 2
Fore
SplineSet
216 968 m 1,0,-1
 1086 1291 l 1,1,-1
 1115 1231 l 1,2,-1
 1115 1221 l 1,3,-1
 300 919 l 1,4,-1
 1115 643 l 1,5,-1
 1115 633 l 1,6,-1
 1051 499 l 1,7,-1
 150 818 l 1,8,-1
 150 828 l 1,9,-1
 216 968 l 1,0,-1
216 425 m 1,10,-1
 1115 425 l 1,11,-1
 1115 415 l 1,12,-1
 1049 275 l 1,13,-1
 150 275 l 1,14,-1
 150 285 l 1,15,-1
 216 425 l 1,10,-1
EndSplineSet
Validated: 1
EndChar

StartChar: greaterequal
Encoding: 8805 8805 166
Width: 1315
GlyphClass: 2
Flags: W
HStem: 275 150<266 1099>
DStem2: 264 1279 200 1135 0.942662 -0.33375<0 848.114> 200 557 229 487 0.937476 0.348051<2.8232 869.154>
LayerCount: 2
Fore
SplineSet
1099 810 m 1,0,-1
 229 487 l 1,1,-1
 200 547 l 1,2,-1
 200 557 l 1,3,-1
 1015 859 l 1,4,-1
 200 1135 l 1,5,-1
 200 1145 l 1,6,-1
 264 1279 l 1,7,-1
 1165 960 l 1,8,-1
 1165 950 l 1,9,-1
 1099 810 l 1,0,-1
266 425 m 1,10,-1
 1165 425 l 1,11,-1
 1165 415 l 1,12,-1
 1099 275 l 1,13,-1
 200 275 l 1,14,-1
 200 285 l 1,15,-1
 266 425 l 1,10,-1
EndSplineSet
Validated: 1
EndChar

StartChar: lozenge
Encoding: 9674 9674 167
Width: 1134
GlyphClass: 2
Flags: W
HStem: -20 21G<554.678 579.273> 1510 20G<555.207 578.838>
DStem2: 100 738 253 833 0.507923 0.861403<159.545 659.822> 253 833 100 738 0.524536 -0.851388<0.627871 717.553> 567 1530 507 1264 0.509354 -0.860557<198.347 916.848> 626 220 567 -20 0.523035 0.852311<0 492.332>
LayerCount: 2
Fore
SplineSet
626 220 m 1,0,-1
 878 643 l 1,1,-1
 507 1264 l 1,2,-1
 253 833 l 1,3,-1
 626 220 l 1,0,-1
567 -20 m 1,4,-1
 100 738 l 1,5,-1
 567 1530 l 1,6,-1
 1034 741 l 1,7,-1
 567 -20 l 1,4,-1
EndSplineSet
Validated: 1
EndChar

StartChar: Oslash
Encoding: 216 216 168
Width: 1330
Flags: W
HStem: -40 21G<241 358.333> -20 90<457.276 871.96> 1440 90<459.172 873.551>
VStem: 160 200<235.909 1323.18> 970 200<186.817 1274.09>
DStem2: 241 -36 349 -40 0.422823 0.906212<42.04 127.07 295.718 1496.46 1665.89 1750.14>
LayerCount: 2
Fore
SplineSet
666 -20 m 0,0,1
 507 -20 507 -20 384 35 c 1,2,-1
 349 -40 l 1,3,-1
 250 -40 l 1,4,-1
 241 -36 l 1,5,-1
 297 83 l 1,6,7
 160 180 160 180 160 384 c 2,8,-1
 160 1126 l 2,9,10
 160 1338 160 1338 308 1434 c 128,-1,11
 456 1530 456 1530 666 1530 c 0,12,13
 824 1530 824 1530 946 1476 c 1,14,-1
 981 1550 l 1,15,-1
 1080 1550 l 1,16,-1
 1089 1546 l 1,17,-1
 1033 1427 l 1,18,19
 1170 1330 1170 1330 1170 1126 c 2,20,-1
 1170 384 l 2,21,22
 1170 172 1170 172 1023 76 c 128,-1,23
 876 -20 876 -20 666 -20 c 0,0,1
666 70 m 128,-1,25
 792 70 792 70 881 118.5 c 128,-1,26
 970 167 970 167 970 294 c 2,27,-1
 970 1216 l 2,28,29
 970 1250 970 1250 964 1278 c 1,30,-1
 429 131 l 1,31,32
 446 120 446 120 450 118 c 0,33,24
 540 70 540 70 666 70 c 128,-1,25
366 232 m 1,34,-1
 901 1379 l 1,35,36
 892 1386 892 1386 881 1392 c 0,37,38
 792 1440 792 1440 665.5 1440 c 128,-1,39
 539 1440 539 1440 449.5 1391.5 c 128,-1,40
 360 1343 360 1343 360 1216 c 2,41,-1
 360 294 l 2,42,43
 360 260 360 260 366 232 c 1,34,-1
EndSplineSet
Validated: 1
EndChar

StartChar: oslash
Encoding: 248 248 169
Width: 1150
Flags: W
HStem: -40 21G<247 364.231> -20 80<419.263 738.069> 1040 80<411.931 730.737>
VStem: 160 180<183.195 956.191> 810 180<143.809 916.805>
DStem2: 247 -36 355 -40 0.422379 0.906419<41.9913 104.337 239.353 1100.05 1235.07 1297.41>
LayerCount: 2
Fore
SplineSet
575 60 m 0,0,1
 673 60 673 60 741.5 101.5 c 128,-1,2
 810 143 810 143 810 242 c 2,3,-1
 810 858 l 2,4,5
 810 892 810 892 802 919 c 1,6,-1
 418 96 l 1,7,8
 484 60 484 60 575 60 c 0,0,1
575 -20 m 0,9,10
 467 -20 467 -20 379 12 c 1,11,-1
 355 -40 l 1,12,-1
 256 -40 l 1,13,-1
 247 -36 l 1,14,-1
 290 56 l 1,15,16
 160 146 160 146 160 318 c 2,17,-1
 160 782 l 2,18,19
 160 956 160 956 281.5 1038 c 128,-1,20
 403 1120 403 1120 575 1120 c 0,21,22
 683 1120 683 1120 771 1088 c 1,23,-1
 795 1140 l 1,24,-1
 894 1140 l 1,25,-1
 903 1136 l 1,26,-1
 860 1044 l 1,27,28
 990 954 990 954 990 782 c 2,29,-1
 990 318 l 2,30,31
 990 144 990 144 868.5 62 c 128,-1,32
 747 -20 747 -20 575 -20 c 0,9,10
348 181 m 1,33,-1
 732 1004 l 1,34,35
 666 1040 666 1040 575 1040 c 0,36,37
 477 1040 477 1040 408.5 998.5 c 128,-1,38
 340 957 340 957 340 858 c 2,39,-1
 340 242 l 2,40,41
 340 208 340 208 348 181 c 1,33,-1
EndSplineSet
Validated: 1
EndChar

StartChar: multiply
Encoding: 215 215 170
Width: 1142
Flags: W
HStem: 649 212<465 677>
VStem: 465 212<649 861>
DStem2: 353 1080 200 1020 0.706507 -0.707706<0 309.006 459.04 768.046> 200 490 353 430 0.706507 0.707706<65.6332 374.639 524.673 833.679>
LayerCount: 2
Fore
SplineSet
789 1080 m 1,0,-1
 935 1027 l 1,1,-1
 942 1020 l 1,2,-1
 677 755 l 1,3,-1
 942 490 l 1,4,-1
 935 483 l 1,5,-1
 789 430 l 1,6,-1
 571 649 l 1,7,-1
 353 430 l 1,8,-1
 207 483 l 1,9,-1
 200 490 l 1,10,-1
 465 755 l 1,11,-1
 200 1020 l 1,12,-1
 207 1027 l 1,13,-1
 353 1080 l 1,14,-1
 571 861 l 1,15,-1
 789 1080 l 1,0,-1
EndSplineSet
Validated: 1
EndChar

StartChar: divide
Encoding: 247 247 171
Width: 1200
Flags: W
HStem: 306 245<516.097 683.903> 680 150<216 984> 959 245<516.097 683.903>
VStem: 480 240<343.129 513.871 996.129 1166.87>
CounterMasks: 1 e0
LayerCount: 2
Fore
SplineSet
216 830 m 1,0,-1
 1050 830 l 1,1,-1
 1050 820 l 1,2,-1
 984 680 l 1,3,-1
 150 680 l 1,4,-1
 150 690 l 1,5,-1
 216 830 l 1,0,-1
600 1204 m 128,-1,7
 650 1204 650 1204 685 1168 c 128,-1,8
 720 1132 720 1132 720 1081.5 c 128,-1,9
 720 1031 720 1031 685 995 c 128,-1,10
 650 959 650 959 600 959 c 128,-1,11
 550 959 550 959 515 995 c 128,-1,12
 480 1031 480 1031 480 1081.5 c 128,-1,13
 480 1132 480 1132 515 1168 c 128,-1,6
 550 1204 550 1204 600 1204 c 128,-1,7
600 306 m 128,-1,15
 550 306 550 306 515 342 c 128,-1,16
 480 378 480 378 480 428.5 c 128,-1,17
 480 479 480 479 515 515 c 128,-1,18
 550 551 550 551 600 551 c 128,-1,19
 650 551 650 551 685 515 c 128,-1,20
 720 479 720 479 720 428.5 c 128,-1,21
 720 378 720 378 685 342 c 128,-1,14
 650 306 650 306 600 306 c 128,-1,15
EndSplineSet
Validated: 1
EndChar

StartChar: uni1E02
Encoding: 7682 7682 172
Width: 1250
Flags: W
HStem: 0 90<400 843.656> 791 90<400 810.714> 1420 90<400 809.777> 1630 245<521.097 688.903>
VStem: 200 200<90 791 881 1420> 485 240<1667.13 1837.87> 875 195<942.25 1346.19> 945 215<207.313 705.918>
LayerCount: 2
Fore
SplineSet
400 90 m 1,0,-1
 640 90 l 2,1,2
 764 90 764 90 855 138 c 0,3,4
 945 186 945 186 945 314 c 2,5,-1
 945 567 l 2,6,7
 945 694 945 694 855 743 c 0,8,9
 767 791 767 791 640 791 c 2,10,-1
 400 791 l 1,11,-1
 400 90 l 1,0,-1
200 0 m 1,12,-1
 200 1440 l 1,13,-1
 348 1510 l 1,14,-1
 655 1510 l 2,15,16
 827 1510 827 1510 948.5 1428 c 128,-1,17
 1070 1346 1070 1346 1070 1172 c 2,18,-1
 1070 1084 l 2,19,20
 1070 917 1070 917 937 851 c 1,21,22
 1160 779 1160 779 1160 522 c 2,23,-1
 1160 404 l 2,24,25
 1160 193 1160 193 1012 96 c 0,26,27
 865 0 865 0 655 0 c 2,28,-1
 200 0 l 1,12,-1
400 881 m 1,29,-1
 640 881 l 2,30,31
 738 881 738 881 806.5 922.5 c 128,-1,32
 875 964 875 964 875 1063 c 2,33,-1
 875 1238 l 2,34,35
 875 1337 875 1337 806.5 1378.5 c 128,-1,36
 738 1420 738 1420 640 1420 c 2,37,-1
 400 1420 l 1,38,-1
 400 881 l 1,29,-1
605 1875 m 128,-1,40
 655 1875 655 1875 690 1839 c 128,-1,41
 725 1803 725 1803 725 1752.5 c 128,-1,42
 725 1702 725 1702 690 1666 c 128,-1,43
 655 1630 655 1630 605 1630 c 128,-1,44
 555 1630 555 1630 520 1666 c 128,-1,45
 485 1702 485 1702 485 1752.5 c 128,-1,46
 485 1803 485 1803 520 1839 c 128,-1,39
 555 1875 555 1875 605 1875 c 128,-1,40
EndSplineSet
Validated: 1
EndChar

StartChar: uni1E03
Encoding: 7683 7683 173
Width: 1170
Flags: W
HStem: -20 80<431.931 751.137> 1040 80<431.913 751.137> 1220 245<512.097 679.903> 1510 20G<308.025 360>
VStem: 180 180<143.809 979.268 1051 1449> 476 240<1257.13 1427.87> 820 190<143.809 956.191>
LayerCount: 2
Fore
SplineSet
595 -20 m 128,-1,1
 423 -20 423 -20 301.5 62 c 128,-1,2
 180 144 180 144 180 318 c 2,3,-1
 180 1449 l 1,4,-1
 350 1530 l 1,5,-1
 360 1530 l 1,6,-1
 360 1051 l 1,7,8
 441 1120 441 1120 595 1120 c 0,9,10
 767 1120 767 1120 888.5 1038 c 128,-1,11
 1010 956 1010 956 1010 782 c 2,12,-1
 1010 318 l 2,13,14
 1010 144 1010 144 888.5 62 c 128,-1,0
 767 -20 767 -20 595 -20 c 128,-1,1
595 60 m 128,-1,16
 693 60 693 60 756.5 101.5 c 128,-1,17
 820 143 820 143 820 242 c 2,18,-1
 820 858 l 2,19,20
 820 957 820 957 756.5 998.5 c 128,-1,21
 693 1040 693 1040 595 1040 c 128,-1,22
 497 1040 497 1040 428.5 998.5 c 128,-1,23
 360 957 360 957 360 858 c 2,24,-1
 360 242 l 2,25,26
 360 143 360 143 428.5 101.5 c 128,-1,15
 497 60 497 60 595 60 c 128,-1,16
596 1465 m 128,-1,28
 646 1465 646 1465 681 1429 c 128,-1,29
 716 1393 716 1393 716 1342.5 c 128,-1,30
 716 1292 716 1292 681 1256 c 128,-1,31
 646 1220 646 1220 596 1220 c 128,-1,32
 546 1220 546 1220 511 1256 c 128,-1,33
 476 1292 476 1292 476 1342.5 c 128,-1,34
 476 1393 476 1393 511 1429 c 128,-1,27
 546 1465 546 1465 596 1465 c 128,-1,28
EndSplineSet
Validated: 1
EndChar

StartChar: uni1E0A
Encoding: 7690 7690 174
Width: 1350
Flags: W
HStem: 0 90<400 879.25> 1420 90<400 881.664> 1630 245<551.097 718.903>
VStem: 200 200<90 1420> 515 240<1667.13 1837.87> 980 210<206.322 1303.18>
LayerCount: 2
Fore
SplineSet
400 90 m 1,0,-1
 675 90 l 2,1,2
 802 90 802 90 890 138 c 0,3,4
 980 186 980 186 980 314 c 2,5,-1
 980 1196 l 2,6,7
 980 1324 980 1324 890 1372 c 0,8,9
 802 1420 802 1420 675 1420 c 2,10,-1
 400 1420 l 1,11,-1
 400 90 l 1,0,-1
200 0 m 1,12,-1
 200 1440 l 1,13,-1
 348 1510 l 1,14,-1
 685 1510 l 2,15,16
 894 1510 894 1510 1042 1414 c 128,-1,17
 1190 1318 1190 1318 1190 1106 c 2,18,19
 1190 404 l 2,20,21
 1190 191 1190 191 1042 96 c 0,22,23
 895 0 895 0 685 0 c 2,24,-1
 200 0 l 1,12,-1
635 1875 m 128,-1,26
 685 1875 685 1875 720 1839 c 128,-1,27
 755 1803 755 1803 755 1752.5 c 128,-1,28
 755 1702 755 1702 720 1666 c 128,-1,29
 685 1630 685 1630 635 1630 c 128,-1,30
 585 1630 585 1630 550 1666 c 128,-1,31
 515 1702 515 1702 515 1752.5 c 128,-1,32
 515 1803 515 1803 550 1839 c 128,-1,25
 585 1875 585 1875 635 1875 c 128,-1,26
EndSplineSet
Validated: 1
EndChar

StartChar: uni1E0B
Encoding: 7691 7691 175
Width: 1170
Flags: W
HStem: -20 80<418.863 738.069> 1040 80<418.863 738.087> 1220 245<490.097 657.903> 1510 20G<938.025 990>
VStem: 160 190<143.809 956.191> 454 240<1257.13 1427.87> 810 180<143.809 979.268 1051 1449>
LayerCount: 2
Fore
SplineSet
575 -20 m 128,-1,1
 403 -20 403 -20 281.5 62 c 128,-1,2
 160 144 160 144 160 318 c 2,3,-1
 160 782 l 2,4,5
 160 956 160 956 281.5 1038 c 128,-1,6
 403 1120 403 1120 575 1120 c 0,7,8
 729 1120 729 1120 810 1051 c 1,9,-1
 810 1449 l 1,10,-1
 980 1530 l 1,11,-1
 990 1530 l 1,12,-1
 990 318 l 2,13,14
 990 144 990 144 868.5 62 c 128,-1,0
 747 -20 747 -20 575 -20 c 128,-1,1
575 60 m 128,-1,16
 673 60 673 60 741.5 101.5 c 128,-1,17
 810 143 810 143 810 242 c 2,18,-1
 810 858 l 2,19,20
 810 957 810 957 741.5 998.5 c 128,-1,21
 673 1040 673 1040 575 1040 c 128,-1,22
 477 1040 477 1040 413.5 998.5 c 128,-1,23
 350 957 350 957 350 858 c 2,24,-1
 350 242 l 2,25,26
 350 143 350 143 413.5 101.5 c 128,-1,15
 477 60 477 60 575 60 c 128,-1,16
574 1465 m 128,-1,28
 624 1465 624 1465 659 1429 c 128,-1,29
 694 1393 694 1393 694 1342.5 c 128,-1,30
 694 1292 694 1292 659 1256 c 128,-1,31
 624 1220 624 1220 574 1220 c 128,-1,32
 524 1220 524 1220 489 1256 c 128,-1,33
 454 1292 454 1292 454 1342.5 c 128,-1,34
 454 1393 454 1393 489 1429 c 128,-1,27
 524 1465 524 1465 574 1465 c 128,-1,28
EndSplineSet
Validated: 1
EndChar

StartChar: uni1E1E
Encoding: 7710 7710 176
Width: 1010
Flags: W
HStem: -20 21G<200 252.222> 710 90<400 922> 1420 90<400 922> 1630 245<510.097 677.903>
VStem: 200 200<70 710 800 1420> 474 240<1667.13 1837.87>
LayerCount: 2
Fore
SplineSet
200 -20 m 1,0,-1
 200 1440 l 1,1,-1
 348 1510 l 1,2,-1
 960 1510 l 1,3,-1
 960 1500 l 1,4,-1
 922 1420 l 1,5,-1
 400 1420 l 1,6,-1
 400 800 l 1,7,-1
 960 800 l 1,8,-1
 960 790 l 1,9,-1
 922 710 l 1,10,-1
 400 710 l 1,11,-1
 400 70 l 1,12,-1
 210 -20 l 1,13,-1
 200 -20 l 1,0,-1
594 1875 m 128,-1,15
 644 1875 644 1875 679 1839 c 128,-1,16
 714 1803 714 1803 714 1752.5 c 128,-1,17
 714 1702 714 1702 679 1666 c 128,-1,18
 644 1630 644 1630 594 1630 c 128,-1,19
 544 1630 544 1630 509 1666 c 128,-1,20
 474 1702 474 1702 474 1752.5 c 128,-1,21
 474 1803 474 1803 509 1839 c 128,-1,14
 544 1875 544 1875 594 1875 c 128,-1,15
EndSplineSet
Validated: 1
EndChar

StartChar: uni1E1F
Encoding: 7711 7711 177
Width: 780
Flags: W
HStem: -20 21G<180 231.975> 820 80<360 698> 1430 80<435.625 737> 1630 245<356.097 523.903>
VStem: 180 180<61 820 900 1346.19> 320 240<1667.13 1837.87>
LayerCount: 2
Fore
SplineSet
190 -20 m 1,0,-1
 180 -20 l 1,1,-1
 180 1172 l 2,2,3
 180 1346 180 1346 301.5 1428 c 128,-1,4
 423 1510 423 1510 595 1510 c 2,5,-1
 770 1510 l 1,6,-1
 770 1500 l 1,7,-1
 737 1430 l 1,8,-1
 595 1430 l 2,9,10
 498 1430 498 1430 428 1388 c 0,11,12
 360 1347 360 1347 360 1248 c 2,13,-1
 360 900 l 1,14,-1
 731 900 l 1,15,-1
 731 890 l 1,16,-1
 698 820 l 1,17,-1
 360 820 l 1,18,-1
 360 61 l 1,19,-1
 190 -20 l 1,0,-1
440 1875 m 128,-1,21
 490 1875 490 1875 525 1839 c 128,-1,22
 560 1803 560 1803 560 1752.5 c 128,-1,23
 560 1702 560 1702 525 1666 c 128,-1,24
 490 1630 490 1630 440 1630 c 128,-1,25
 390 1630 390 1630 355 1666 c 128,-1,26
 320 1702 320 1702 320 1752.5 c 128,-1,27
 320 1803 320 1803 355 1839 c 128,-1,20
 390 1875 390 1875 440 1875 c 128,-1,21
EndSplineSet
Validated: 1
EndChar

StartChar: uni1E40
Encoding: 7744 7744 178
Width: 2180
Flags: W
HStem: -20 21G<180 232.222 990 1042.22 1800 1852.22> 1440 90<478.798 891.904 1289.17 1701.96> 1630 245<1003.1 1170.9>
VStem: 180 200<70 1323.18> 967 240<1667.13 1837.87> 990 200<70 1355.78> 1800 200<70 1323.18>
LayerCount: 2
Fore
SplineSet
190 -20 m 1,0,-1
 180 -20 l 1,1,-1
 180 1126 l 2,2,3
 180 1338 180 1338 327.5 1434 c 128,-1,4
 475 1530 475 1530 685.5 1530 c 128,-1,5
 896 1530 896 1530 1043 1434 c 0,6,7
 1069 1417 1069 1417 1090 1397 c 1,8,9
 1112 1417 1112 1417 1138 1434 c 0,10,11
 1286 1530 1286 1530 1496 1530 c 128,-1,12
 1706 1530 1706 1530 1853 1434 c 128,-1,13
 2000 1338 2000 1338 2000 1126 c 2,14,-1
 2000 70 l 1,15,-1
 1810 -20 l 1,16,-1
 1800 -20 l 1,17,-1
 1800 1216 l 2,18,19
 1800 1343 1800 1343 1711 1391.5 c 128,-1,20
 1622 1440 1622 1440 1495.5 1440 c 128,-1,21
 1369 1440 1369 1440 1279.5 1391.5 c 128,-1,22
 1190 1343 1190 1343 1190 1216 c 2,23,-1
 1190 70 l 1,24,-1
 1000 -20 l 1,25,-1
 990 -20 l 1,26,-1
 990 1216 l 2,27,28
 990 1343 990 1343 901 1391.5 c 128,-1,29
 812 1440 812 1440 685.5 1440 c 128,-1,30
 559 1440 559 1440 469.5 1391.5 c 128,-1,31
 380 1343 380 1343 380 1216 c 2,32,-1
 380 70 l 1,33,-1
 190 -20 l 1,0,-1
1087 1875 m 128,-1,35
 1137 1875 1137 1875 1172 1839 c 128,-1,36
 1207 1803 1207 1803 1207 1752.5 c 128,-1,37
 1207 1702 1207 1702 1172 1666 c 128,-1,38
 1137 1630 1137 1630 1087 1630 c 128,-1,39
 1037 1630 1037 1630 1002 1666 c 128,-1,40
 967 1702 967 1702 967 1752.5 c 128,-1,41
 967 1803 967 1803 1002 1839 c 128,-1,34
 1037 1875 1037 1875 1087 1875 c 128,-1,35
EndSplineSet
Validated: 1
EndChar

StartChar: uni1E41
Encoding: 7745 7745 179
Width: 1840
Flags: W
HStem: -20 21G<180 231.975 830 881.975 1480 1531.98> 1040 80<431.931 756.504 1082.31 1405.84> 1220 245<832.097 999.903>
VStem: 180 180<61 956.191> 796 240<1257.13 1427.87> 830 180<61 979.268> 1480 180<61 956.191>
LayerCount: 2
Fore
SplineSet
190 -20 m 1,0,-1
 180 -20 l 1,1,-1
 180 782 l 2,2,3
 180 956 180 956 301.5 1038 c 128,-1,4
 423 1120 423 1120 595 1120 c 0,5,6
 761 1120 761 1120 888 1038 c 0,7,8
 905 1027 905 1027 920 1013 c 1,9,10
 936 1026 936 1026 952 1038 c 0,11,12
 1074 1120 1074 1120 1245.5 1120 c 128,-1,13
 1417 1120 1417 1120 1538.5 1038 c 128,-1,14
 1660 956 1660 956 1660 782 c 2,15,-1
 1660 61 l 1,16,-1
 1490 -20 l 1,17,-1
 1480 -20 l 1,18,-1
 1480 858 l 2,19,20
 1480 957 1480 957 1411.5 998.5 c 128,-1,21
 1343 1040 1343 1040 1245 1040 c 128,-1,22
 1147 1040 1147 1040 1078.5 998.5 c 128,-1,23
 1010 957 1010 957 1010 858 c 2,24,-1
 1010 61 l 1,25,-1
 840 -20 l 1,26,-1
 830 -20 l 1,27,-1
 830 858 l 2,28,29
 830 957 830 957 761.5 998.5 c 128,-1,30
 693 1040 693 1040 595 1040 c 128,-1,31
 497 1040 497 1040 428.5 998.5 c 128,-1,32
 360 957 360 957 360 858 c 2,33,-1
 360 61 l 1,34,-1
 190 -20 l 1,0,-1
916 1465 m 128,-1,36
 966 1465 966 1465 1001 1429 c 128,-1,37
 1036 1393 1036 1393 1036 1342.5 c 128,-1,38
 1036 1292 1036 1292 1001 1256 c 128,-1,39
 966 1220 966 1220 916 1220 c 128,-1,40
 866 1220 866 1220 831 1256 c 128,-1,41
 796 1292 796 1292 796 1342.5 c 128,-1,42
 796 1393 796 1393 831 1429 c 128,-1,35
 866 1465 866 1465 916 1465 c 128,-1,36
EndSplineSet
Validated: 1
EndChar

StartChar: uni1E56
Encoding: 7766 7766 180
Width: 1210
Flags: W
HStem: -20 21G<200 252.222> 500 90<400 849.25> 1420 90<400 851.664> 1630 245<504.097 671.903>
VStem: 200 200<70 500 590 1420> 468 240<1667.13 1837.87> 950 210<707.313 1303.18>
LayerCount: 2
Fore
SplineSet
400 590 m 1,0,-1
 645 590 l 2,1,2
 772 590 772 590 860 638 c 0,3,4
 950 686 950 686 950 814 c 2,5,-1
 950 1196 l 2,6,7
 950 1324 950 1324 860 1372 c 0,8,9
 772 1420 772 1420 645 1420 c 2,10,-1
 400 1420 l 1,11,-1
 400 590 l 1,0,-1
210 -20 m 1,12,-1
 200 -20 l 1,13,-1
 200 1440 l 1,14,-1
 348 1510 l 1,15,-1
 655 1510 l 2,16,17
 864 1510 864 1510 1012 1414 c 128,-1,18
 1160 1318 1160 1318 1160 1106 c 2,19,-1
 1160 904 l 2,20,21
 1160 693 1160 693 1012 596 c 0,22,23
 865 500 865 500 655 500 c 2,24,-1
 400 500 l 1,25,-1
 400 70 l 1,26,-1
 210 -20 l 1,12,-1
588 1875 m 128,-1,28
 638 1875 638 1875 673 1839 c 128,-1,29
 708 1803 708 1803 708 1752.5 c 128,-1,30
 708 1702 708 1702 673 1666 c 128,-1,31
 638 1630 638 1630 588 1630 c 128,-1,32
 538 1630 538 1630 503 1666 c 128,-1,33
 468 1702 468 1702 468 1752.5 c 128,-1,34
 468 1803 468 1803 503 1839 c 128,-1,27
 538 1875 538 1875 588 1875 c 128,-1,28
EndSplineSet
Validated: 1
EndChar

StartChar: uni1E57
Encoding: 7767 7767 181
Width: 1170
Flags: W
HStem: -430 21G<180 231.975> -20 80<431.913 751.137> 1040 80<431.931 751.137> 1220 245<514.097 681.903>
VStem: 180 180<-349 49 120.732 956.191> 478 240<1257.13 1427.87> 820 190<143.809 956.191>
LayerCount: 2
Fore
SplineSet
190 -430 m 1,0,-1
 180 -430 l 1,1,-1
 180 782 l 2,2,3
 180 956 180 956 301.5 1038 c 128,-1,4
 423 1120 423 1120 595 1120 c 128,-1,5
 767 1120 767 1120 888.5 1038 c 128,-1,6
 1010 956 1010 956 1010 782 c 2,7,-1
 1010 318 l 2,8,9
 1010 144 1010 144 888.5 62 c 128,-1,10
 767 -20 767 -20 595 -20 c 0,11,12
 441 -20 441 -20 360 49 c 1,13,-1
 360 -349 l 1,14,-1
 190 -430 l 1,0,-1
595 1040 m 128,-1,16
 497 1040 497 1040 428.5 998.5 c 128,-1,17
 360 957 360 957 360 858 c 2,18,-1
 360 242 l 2,19,20
 360 143 360 143 428.5 101.5 c 128,-1,21
 497 60 497 60 595 60 c 128,-1,22
 693 60 693 60 756.5 101.5 c 128,-1,23
 820 143 820 143 820 242 c 2,24,-1
 820 858 l 2,25,26
 820 957 820 957 756.5 998.5 c 128,-1,15
 693 1040 693 1040 595 1040 c 128,-1,16
598 1465 m 128,-1,28
 648 1465 648 1465 683 1429 c 128,-1,29
 718 1393 718 1393 718 1342.5 c 128,-1,30
 718 1292 718 1292 683 1256 c 128,-1,31
 648 1220 648 1220 598 1220 c 128,-1,32
 548 1220 548 1220 513 1256 c 128,-1,33
 478 1292 478 1292 478 1342.5 c 128,-1,34
 478 1393 478 1393 513 1429 c 128,-1,27
 548 1465 548 1465 598 1465 c 128,-1,28
EndSplineSet
Validated: 1
EndChar

StartChar: uni1E6A
Encoding: 7786 7786 182
Width: 1070
Flags: W
HStem: -20 21G<435 487.222> 1420 90<48 435 635 1022> 1630 245<445.097 612.903>
VStem: 409 240<1667.13 1837.87> 435 200<70 1420>
LayerCount: 2
Fore
SplineSet
435 -20 m 1,0,-1
 435 1420 l 1,1,-1
 10 1420 l 1,2,-1
 10 1430 l 1,3,-1
 48 1510 l 1,4,-1
 1060 1510 l 1,5,-1
 1060 1500 l 1,6,-1
 1022 1420 l 1,7,-1
 635 1420 l 1,8,-1
 635 70 l 1,9,-1
 445 -20 l 1,10,-1
 435 -20 l 1,0,-1
529 1875 m 128,-1,12
 579 1875 579 1875 614 1839 c 128,-1,13
 649 1803 649 1803 649 1752.5 c 128,-1,14
 649 1702 649 1702 614 1666 c 128,-1,15
 579 1630 579 1630 529 1630 c 128,-1,16
 479 1630 479 1630 444 1666 c 128,-1,17
 409 1702 409 1702 409 1752.5 c 128,-1,18
 409 1803 409 1803 444 1839 c 128,-1,11
 479 1875 479 1875 529 1875 c 128,-1,12
EndSplineSet
Validated: 1
EndChar

StartChar: uni1E6B
Encoding: 7787 7787 183
Width: 780
Flags: W
HStem: -20 21G<300 351.772> 1020 80<43 300 475 737> 1510 20G<423.228 475> 1630 245<306.097 473.903>
VStem: 270 240<1667.13 1837.87> 300 175<59 1020 1100 1451>
LayerCount: 2
Fore
SplineSet
300 -20 m 1,0,-1
 300 1020 l 1,1,-1
 10 1020 l 1,2,-1
 10 1030 l 1,3,-1
 43 1100 l 1,4,-1
 300 1100 l 1,5,-1
 300 1451 l 1,6,-1
 465 1530 l 1,7,-1
 475 1530 l 1,8,-1
 475 1100 l 1,9,-1
 770 1100 l 1,10,-1
 770 1090 l 1,11,-1
 737 1020 l 1,12,-1
 475 1020 l 1,13,-1
 475 59 l 1,14,-1
 310 -20 l 1,15,-1
 300 -20 l 1,0,-1
390 1875 m 128,-1,17
 440 1875 440 1875 475 1839 c 128,-1,18
 510 1803 510 1803 510 1752.5 c 128,-1,19
 510 1702 510 1702 475 1666 c 128,-1,20
 440 1630 440 1630 390 1630 c 128,-1,21
 340 1630 340 1630 305 1666 c 128,-1,22
 270 1702 270 1702 270 1752.5 c 128,-1,23
 270 1803 270 1803 305 1839 c 128,-1,16
 340 1875 340 1875 390 1875 c 128,-1,17
EndSplineSet
Validated: 1
EndChar

StartChar: uni1E60
Encoding: 7776 7776 184
Width: 1130
Flags: W
HStem: -20 90<365.796 743.493> 796 110<412.846 748.625> 1440 90<411.312 718.568> 1630 245<483.097 650.903>
VStem: 60 215<186.884 363.853> 148 205<963.562 1366.19> 447 240<1667.13 1837.87> 773 204<1223.2 1370.34> 835 215<186.817 699.183>
LayerCount: 2
Fore
SplineSet
554.5 -20 m 128,-1,1
 354 -20 354 -20 207 76 c 0,2,3
 70 166 70 166 60 357 c 1,4,-1
 265 455 l 1,5,-1
 275 455 l 1,6,-1
 275 294 l 2,7,8
 275 167 275 167 356.5 118.5 c 128,-1,9
 438 70 438 70 554.5 70 c 128,-1,10
 671 70 671 70 753 118.5 c 128,-1,11
 835 167 835 167 835 294 c 2,12,-1
 835 572 l 2,13,14
 835 699 835 699 758.5 747.5 c 128,-1,15
 682 796 682 796 563 796 c 8,16,17
 391 796 391 796 269.5 878 c 128,-1,18
 148 960 148 960 148 1134 c 2,19,-1
 148 1192 l 2,20,21
 148 1366 148 1366 269.5 1448 c 128,-1,22
 391 1530 391 1530 563 1530 c 24,23,24
 734 1530 734 1530 856 1448 c 0,25,26
 964 1375 964 1375 977 1230 c 1,27,-1
 783 1138 l 1,28,-1
 773 1138 l 1,29,-1
 773 1258 l 2,30,31
 773 1357 773 1357 716.5 1398.5 c 128,-1,32
 660 1440 660 1440 567 1440 c 152,-1,33
 474 1440 474 1440 413.5 1398.5 c 128,-1,34
 353 1357 353 1357 353 1258 c 2,35,-1
 353 1088 l 2,36,37
 353 989 353 989 413.5 947.5 c 128,-1,38
 474 906 474 906 562 906 c 16,39,40
 763 906 763 906 906.5 810 c 128,-1,41
 1050 714 1050 714 1050 502 c 2,42,-1
 1050 384 l 2,43,44
 1050 172 1050 172 902.5 76 c 128,-1,0
 755 -20 755 -20 554.5 -20 c 128,-1,1
567 1875 m 128,-1,46
 617 1875 617 1875 652 1839 c 128,-1,47
 687 1803 687 1803 687 1752.5 c 128,-1,48
 687 1702 687 1702 652 1666 c 128,-1,49
 617 1630 617 1630 567 1630 c 128,-1,50
 517 1630 517 1630 482 1666 c 128,-1,51
 447 1702 447 1702 447 1752.5 c 128,-1,52
 447 1803 447 1803 482 1839 c 128,-1,45
 517 1875 517 1875 567 1875 c 128,-1,46
EndSplineSet
Validated: 1
EndChar

StartChar: uni1E61
Encoding: 7777 7777 185
Width: 930
Flags: W
HStem: -20 80<312.92 601.68> 559 80<350.593 607.898> 1041 79<354.501 573.578> 1220 245<369.097 536.903>
VStem: 60 194<145.535 291.856> 131 184<675.615 995.665> 333 240<1257.13 1427.87> 613 188<862.235 991.734> 660 190<136.826 498.683>
LayerCount: 2
Fore
SplineSet
454 -20 m 0,0,1
 291 -20 291 -20 181 62 c 0,2,3
 70 145 70 145 60 285 c 1,4,-1
 244 373 l 1,5,-1
 254 373 l 1,6,-1
 254 242 l 2,7,8
 254 143 254 143 309.5 101.5 c 128,-1,9
 365 60 365 60 459 60 c 128,-1,10
 553 60 553 60 606.5 101.5 c 128,-1,11
 660 143 660 143 660 242 c 2,12,-1
 660 395 l 2,13,14
 660 476 660 476 611 517.5 c 128,-1,15
 562 559 562 559 473 559 c 0,16,17
 315 559 315 559 223 627 c 128,-1,18
 131 695 131 695 131 802 c 2,19,-1
 131 832 l 2,20,21
 131 980 131 980 227.5 1050 c 128,-1,22
 324 1120 324 1120 466 1120 c 0,23,24
 606 1120 606 1120 699 1050 c 128,-1,25
 792 980 792 980 801 869 c 1,26,-1
 623 785 l 1,27,-1
 613 785 l 1,28,-1
 613 919 l 2,29,30
 613 983 613 983 569 1012 c 0,31,32
 526 1041 526 1041 464 1041 c 0,33,34
 404 1041 404 1041 361 1013 c 0,35,36
 315 984 315 984 315 919 c 2,37,-1
 315 769 l 2,38,39
 315 710 315 710 349.5 674.5 c 128,-1,40
 384 639 384 639 479 639 c 0,41,42
 646 639 646 639 748 559 c 128,-1,43
 850 479 850 479 850 354 c 2,44,-1
 850 318 l 2,45,46
 850 144 850 144 736.5 62 c 128,-1,47
 623 -20 623 -20 454 -20 c 0,0,1
453 1465 m 128,-1,49
 503 1465 503 1465 538 1429 c 128,-1,50
 573 1393 573 1393 573 1342.5 c 128,-1,51
 573 1292 573 1292 538 1256 c 128,-1,52
 503 1220 503 1220 453 1220 c 128,-1,53
 403 1220 403 1220 368 1256 c 128,-1,54
 333 1292 333 1292 333 1342.5 c 128,-1,55
 333 1393 333 1393 368 1429 c 128,-1,48
 403 1465 403 1465 453 1465 c 128,-1,49
EndSplineSet
Validated: 1
EndChar

StartChar: Wgrave
Encoding: 7808 7808 186
Width: 2180
Flags: W
HStem: -20 90<478.041 890.828 1288.1 1701.2> 1510 20G<327.778 380 1137.78 1190 1947.78 2000>
VStem: 180 200<186.817 1440> 990 200<154.215 1440> 1800 200<186.817 1440>
DStem2: 1030 1937 900 1880 0.427336 -0.904093<0 339.921>
CounterMasks: 1 38
LayerCount: 2
Fore
SplineSet
684 -20 m 128,-1,1
 474 -20 474 -20 327 76 c 128,-1,2
 180 172 180 172 180 384 c 2,3,-1
 180 1440 l 1,4,-1
 370 1530 l 1,5,-1
 380 1530 l 1,6,-1
 380 294 l 2,7,8
 380 167 380 167 469 118.5 c 128,-1,9
 558 70 558 70 684.5 70 c 128,-1,10
 811 70 811 70 900.5 118.5 c 128,-1,11
 990 167 990 167 990 294 c 2,12,-1
 990 1440 l 1,13,-1
 1180 1530 l 1,14,-1
 1190 1530 l 1,15,-1
 1190 294 l 2,16,17
 1190 167 1190 167 1279 118.5 c 128,-1,18
 1368 70 1368 70 1494.5 70 c 128,-1,19
 1621 70 1621 70 1710.5 118.5 c 128,-1,20
 1800 167 1800 167 1800 294 c 2,21,-1
 1800 1440 l 1,22,-1
 1990 1530 l 1,23,-1
 2000 1530 l 1,24,-1
 2000 384 l 2,25,26
 2000 172 2000 172 1852.5 76 c 128,-1,27
 1705 -20 1705 -20 1494.5 -20 c 128,-1,28
 1284 -20 1284 -20 1137 76 c 0,29,30
 1111 93 1111 93 1090 113 c 1,31,32
 1068 93 1068 93 1042 76 c 0,33,0
 894 -20 894 -20 684 -20 c 128,-1,1
1020 1937 m 1,34,-1
 1030 1937 l 1,35,-1
 1177 1626 l 1,36,-1
 1059 1570 l 1,37,-1
 1049 1570 l 1,38,-1
 900 1880 l 1,39,-1
 1020 1937 l 1,34,-1
EndSplineSet
Validated: 1
EndChar

StartChar: wgrave
Encoding: 7809 7809 187
Width: 1840
Flags: W
HStem: -20 80<434.155 757.694 1083.5 1408.07> 1100 20G<308.025 360 958.025 1010 1608.02 1660>
VStem: 180 180<143.809 1039> 830 180<120.732 1039> 1480 180<143.809 1039>
DStem2: 862 1527 732 1470 0.427336 -0.904093<0 339.921>
CounterMasks: 1 38
LayerCount: 2
Fore
SplineSet
594.5 -20 m 128,-1,1
 423 -20 423 -20 301.5 62 c 128,-1,2
 180 144 180 144 180 318 c 2,3,-1
 180 1039 l 1,4,-1
 350 1120 l 1,5,-1
 360 1120 l 1,6,-1
 360 242 l 2,7,8
 360 143 360 143 428.5 101.5 c 128,-1,9
 497 60 497 60 595 60 c 128,-1,10
 693 60 693 60 761.5 101.5 c 128,-1,11
 830 143 830 143 830 242 c 2,12,-1
 830 1039 l 1,13,-1
 1000 1120 l 1,14,-1
 1010 1120 l 1,15,-1
 1010 242 l 2,16,17
 1010 143 1010 143 1078.5 101.5 c 128,-1,18
 1147 60 1147 60 1245 60 c 128,-1,19
 1343 60 1343 60 1411.5 101.5 c 128,-1,20
 1480 143 1480 143 1480 242 c 2,21,-1
 1480 1039 l 1,22,-1
 1650 1120 l 1,23,-1
 1660 1120 l 1,24,-1
 1660 318 l 2,25,26
 1660 144 1660 144 1538.5 62 c 128,-1,27
 1417 -20 1417 -20 1245 -20 c 0,28,29
 1079 -20 1079 -20 952 62 c 0,30,31
 935 73 935 73 920 87 c 1,32,33
 904 74 904 74 888 62 c 0,34,0
 766 -20 766 -20 594.5 -20 c 128,-1,1
852 1527 m 1,35,-1
 862 1527 l 1,36,-1
 1009 1216 l 1,37,-1
 891 1160 l 1,38,-1
 881 1160 l 1,39,-1
 732 1470 l 1,40,-1
 852 1527 l 1,35,-1
EndSplineSet
Validated: 1
EndChar

StartChar: Wacute
Encoding: 7810 7810 188
Width: 2180
Flags: W
HStem: -20 90<478.041 890.828 1288.1 1701.2> 1510 20G<327.778 380 1137.78 1190 1947.78 2000>
VStem: 180 200<186.817 1440> 990 200<154.215 1440> 1800 200<186.817 1440>
DStem2: 980 1626 1108 1570 0.427336 0.904093<4.06987 343.991>
CounterMasks: 1 38
LayerCount: 2
Fore
SplineSet
684 -20 m 128,-1,1
 474 -20 474 -20 327 76 c 128,-1,2
 180 172 180 172 180 384 c 2,3,-1
 180 1440 l 1,4,-1
 370 1530 l 1,5,-1
 380 1530 l 1,6,-1
 380 294 l 2,7,8
 380 167 380 167 469 118.5 c 128,-1,9
 558 70 558 70 684.5 70 c 128,-1,10
 811 70 811 70 900.5 118.5 c 128,-1,11
 990 167 990 167 990 294 c 2,12,-1
 990 1440 l 1,13,-1
 1180 1530 l 1,14,-1
 1190 1530 l 1,15,-1
 1190 294 l 2,16,17
 1190 167 1190 167 1279 118.5 c 128,-1,18
 1368 70 1368 70 1494.5 70 c 128,-1,19
 1621 70 1621 70 1710.5 118.5 c 128,-1,20
 1800 167 1800 167 1800 294 c 2,21,-1
 1800 1440 l 1,22,-1
 1990 1530 l 1,23,-1
 2000 1530 l 1,24,-1
 2000 384 l 2,25,26
 2000 172 2000 172 1852.5 76 c 128,-1,27
 1705 -20 1705 -20 1494.5 -20 c 128,-1,28
 1284 -20 1284 -20 1137 76 c 0,29,30
 1111 93 1111 93 1090 113 c 1,31,32
 1068 93 1068 93 1042 76 c 0,33,0
 894 -20 894 -20 684 -20 c 128,-1,1
1137 1937 m 1,34,-1
 1257 1880 l 1,35,-1
 1108 1570 l 1,36,-1
 1098 1570 l 1,37,-1
 980 1626 l 1,38,-1
 1127 1937 l 1,39,-1
 1137 1937 l 1,34,-1
EndSplineSet
Validated: 1
EndChar

StartChar: wacute
Encoding: 7811 7811 189
Width: 1840
Flags: W
HStem: -20 80<434.155 757.694 1083.5 1408.07> 1100 20G<308.025 360 958.025 1010 1608.02 1660>
VStem: 180 180<143.809 1039> 830 180<120.732 1039> 1480 180<143.809 1039>
DStem2: 802 1216 930 1160 0.427336 0.904093<4.06987 343.991>
CounterMasks: 1 38
LayerCount: 2
Fore
SplineSet
594.5 -20 m 128,-1,1
 423 -20 423 -20 301.5 62 c 128,-1,2
 180 144 180 144 180 318 c 2,3,-1
 180 1039 l 1,4,-1
 350 1120 l 1,5,-1
 360 1120 l 1,6,-1
 360 242 l 2,7,8
 360 143 360 143 428.5 101.5 c 128,-1,9
 497 60 497 60 595 60 c 128,-1,10
 693 60 693 60 761.5 101.5 c 128,-1,11
 830 143 830 143 830 242 c 2,12,-1
 830 1039 l 1,13,-1
 1000 1120 l 1,14,-1
 1010 1120 l 1,15,-1
 1010 242 l 2,16,17
 1010 143 1010 143 1078.5 101.5 c 128,-1,18
 1147 60 1147 60 1245 60 c 128,-1,19
 1343 60 1343 60 1411.5 101.5 c 128,-1,20
 1480 143 1480 143 1480 242 c 2,21,-1
 1480 1039 l 1,22,-1
 1650 1120 l 1,23,-1
 1660 1120 l 1,24,-1
 1660 318 l 2,25,26
 1660 144 1660 144 1538.5 62 c 128,-1,27
 1417 -20 1417 -20 1245 -20 c 0,28,29
 1079 -20 1079 -20 952 62 c 0,30,31
 935 73 935 73 920 87 c 1,32,33
 904 74 904 74 888 62 c 0,34,0
 766 -20 766 -20 594.5 -20 c 128,-1,1
959 1527 m 1,35,-1
 1079 1470 l 1,36,-1
 930 1160 l 1,37,-1
 920 1160 l 1,38,-1
 802 1216 l 1,39,-1
 949 1527 l 1,40,-1
 959 1527 l 1,35,-1
EndSplineSet
Validated: 1
EndChar

StartChar: Wdieresis
Encoding: 7812 7812 190
Width: 2180
Flags: W
HStem: -20 90<478.041 890.828 1288.1 1701.2> 1510 20G<327.778 380 1137.78 1190 1947.78 2000> 1640 227<866.034 1021.97 1143 1299>
VStem: 180 200<186.817 1440> 832 224<1674.55 1832.45> 990 200<154.215 1440> 1110 222<1675.07 1832.93> 1800 200<186.817 1440>
LayerCount: 2
Fore
SplineSet
684 -20 m 128,-1,1
 474 -20 474 -20 327 76 c 128,-1,2
 180 172 180 172 180 384 c 2,3,-1
 180 1440 l 1,4,-1
 370 1530 l 1,5,-1
 380 1530 l 1,6,-1
 380 294 l 2,7,8
 380 167 380 167 469 118.5 c 128,-1,9
 558 70 558 70 684.5 70 c 128,-1,10
 811 70 811 70 900.5 118.5 c 128,-1,11
 990 167 990 167 990 294 c 2,12,-1
 990 1440 l 1,13,-1
 1180 1530 l 1,14,-1
 1190 1530 l 1,15,-1
 1190 294 l 2,16,17
 1190 167 1190 167 1279 118.5 c 128,-1,18
 1368 70 1368 70 1494.5 70 c 128,-1,19
 1621 70 1621 70 1710.5 118.5 c 128,-1,20
 1800 167 1800 167 1800 294 c 2,21,-1
 1800 1440 l 1,22,-1
 1990 1530 l 1,23,-1
 2000 1530 l 1,24,-1
 2000 384 l 2,25,26
 2000 172 2000 172 1852.5 76 c 128,-1,27
 1705 -20 1705 -20 1494.5 -20 c 128,-1,28
 1284 -20 1284 -20 1137 76 c 0,29,30
 1111 93 1111 93 1090 113 c 1,31,32
 1068 93 1068 93 1042 76 c 0,33,0
 894 -20 894 -20 684 -20 c 128,-1,1
1221 1868 m 128,-1,35
 1268 1868 1268 1868 1300 1834 c 128,-1,36
 1332 1800 1332 1800 1332 1754 c 128,-1,37
 1332 1708 1332 1708 1300 1674 c 128,-1,38
 1268 1640 1268 1640 1221 1640 c 128,-1,39
 1174 1640 1174 1640 1142 1674 c 128,-1,40
 1110 1708 1110 1708 1110 1754 c 128,-1,41
 1110 1800 1110 1800 1142 1834 c 128,-1,34
 1174 1868 1174 1868 1221 1868 c 128,-1,35
944 1867 m 128,-1,43
 990 1867 990 1867 1023 1833.5 c 128,-1,44
 1056 1800 1056 1800 1056 1753.5 c 128,-1,45
 1056 1707 1056 1707 1023 1673.5 c 128,-1,46
 990 1640 990 1640 944 1640 c 128,-1,47
 898 1640 898 1640 865 1673.5 c 128,-1,48
 832 1707 832 1707 832 1753.5 c 128,-1,49
 832 1800 832 1800 865 1833.5 c 128,-1,42
 898 1867 898 1867 944 1867 c 128,-1,43
EndSplineSet
Validated: 1
EndChar

StartChar: wdieresis
Encoding: 7813 7813 191
Width: 1840
Flags: W
HStem: -20 80<434.155 757.694 1083.5 1408.07> 1100 20G<308.025 360 958.025 1010 1608.02 1660> 1230 227<703.034 858.966 980.004 1136>
VStem: 180 180<143.809 1039> 669 224<1264.55 1422.45> 830 180<120.732 1039> 947 222<1265.07 1422.93> 1480 180<143.809 1039>
LayerCount: 2
Fore
SplineSet
594.5 -20 m 128,-1,1
 423 -20 423 -20 301.5 62 c 128,-1,2
 180 144 180 144 180 318 c 2,3,-1
 180 1039 l 1,4,-1
 350 1120 l 1,5,-1
 360 1120 l 1,6,-1
 360 242 l 2,7,8
 360 143 360 143 428.5 101.5 c 128,-1,9
 497 60 497 60 595 60 c 128,-1,10
 693 60 693 60 761.5 101.5 c 128,-1,11
 830 143 830 143 830 242 c 2,12,-1
 830 1039 l 1,13,-1
 1000 1120 l 1,14,-1
 1010 1120 l 1,15,-1
 1010 242 l 2,16,17
 1010 143 1010 143 1078.5 101.5 c 128,-1,18
 1147 60 1147 60 1245 60 c 128,-1,19
 1343 60 1343 60 1411.5 101.5 c 128,-1,20
 1480 143 1480 143 1480 242 c 2,21,-1
 1480 1039 l 1,22,-1
 1650 1120 l 1,23,-1
 1660 1120 l 1,24,-1
 1660 318 l 2,25,26
 1660 144 1660 144 1538.5 62 c 128,-1,27
 1417 -20 1417 -20 1245 -20 c 0,28,29
 1079 -20 1079 -20 952 62 c 0,30,31
 935 73 935 73 920 87 c 1,32,33
 904 74 904 74 888 62 c 0,34,0
 766 -20 766 -20 594.5 -20 c 128,-1,1
1058 1458 m 128,-1,36
 1105 1458 1105 1458 1137 1424 c 128,-1,37
 1169 1390 1169 1390 1169 1344 c 128,-1,38
 1169 1298 1169 1298 1137 1264 c 128,-1,39
 1105 1230 1105 1230 1058 1230 c 128,-1,40
 1011 1230 1011 1230 979 1264 c 128,-1,41
 947 1298 947 1298 947 1344 c 128,-1,42
 947 1390 947 1390 979 1424 c 128,-1,35
 1011 1458 1011 1458 1058 1458 c 128,-1,36
781 1457 m 128,-1,44
 827 1457 827 1457 860 1423.5 c 128,-1,45
 893 1390 893 1390 893 1343.5 c 128,-1,46
 893 1297 893 1297 860 1263.5 c 128,-1,47
 827 1230 827 1230 781 1230 c 128,-1,48
 735 1230 735 1230 702 1263.5 c 128,-1,49
 669 1297 669 1297 669 1343.5 c 128,-1,50
 669 1390 669 1390 702 1423.5 c 128,-1,43
 735 1457 735 1457 781 1457 c 128,-1,44
EndSplineSet
Validated: 1
EndChar

StartChar: Ygrave
Encoding: 7922 7922 192
Width: 1230
Flags: W
HStem: -20 21G<515 567.222> 1510 20G<267.778 320 1057.78 1110>
VStem: 120 200<638.817 1440> 515 200<70 444.943> 910 200<638.817 1440>
DStem2: 602 1937 472 1880 0.427336 -0.904093<0 339.921>
CounterMasks: 1 38
LayerCount: 2
Fore
SplineSet
525 -20 m 1,0,-1
 515 -20 l 1,1,-1
 515 438 l 1,2,3
 376 456 376 456 267 528 c 0,4,5
 120 624 120 624 120 836 c 2,6,-1
 120 1440 l 1,7,-1
 310 1530 l 1,8,-1
 320 1530 l 1,9,-1
 320 746 l 2,10,11
 320 619 320 619 409 570.5 c 128,-1,12
 498 522 498 522 614.5 522 c 128,-1,13
 731 522 731 522 820.5 570.5 c 128,-1,14
 910 619 910 619 910 746 c 2,15,-1
 910 1440 l 1,16,-1
 1100 1530 l 1,17,-1
 1110 1530 l 1,18,-1
 1110 836 l 2,19,20
 1110 624 1110 624 962 528 c 0,21,22
 853 457 853 457 715 438 c 1,23,-1
 715 70 l 1,24,-1
 525 -20 l 1,0,-1
592 1937 m 1,25,-1
 602 1937 l 1,26,-1
 749 1626 l 1,27,-1
 631 1570 l 1,28,-1
 621 1570 l 1,29,-1
 472 1880 l 1,30,-1
 592 1937 l 1,25,-1
EndSplineSet
Validated: 1
EndChar

StartChar: ygrave
Encoding: 7923 7923 193
Width: 1210
Flags: W
HStem: -410 80<353 756.75> -20 80<431.931 757.384> 1100 20G<308.025 360 958.025 1010>
VStem: 180 180<143.809 1039> 830 180<-244.262 49 120.732 1039>
DStem2: 545 1527 415 1470 0.427336 -0.904093<0 339.921>
LayerCount: 2
Fore
SplineSet
320 -410 m 1,0,-1
 320 -400 l 1,1,-1
 353 -330 l 1,2,-1
 595 -330 l 2,3,4
 693 -330 693 -330 761.5 -288.5 c 128,-1,5
 830 -247 830 -247 830 -148 c 2,6,-1
 830 49 l 1,7,8
 746 -20 746 -20 595 -20 c 0,9,10
 423 -20 423 -20 301.5 62 c 128,-1,11
 180 144 180 144 180 318 c 2,12,-1
 180 1039 l 1,13,-1
 350 1120 l 1,14,-1
 360 1120 l 1,15,-1
 360 242 l 2,16,17
 360 143 360 143 428.5 101.5 c 128,-1,18
 497 60 497 60 595 60 c 128,-1,19
 693 60 693 60 761.5 101.5 c 128,-1,20
 830 143 830 143 830 242 c 2,21,-1
 830 1039 l 1,22,-1
 1000 1120 l 1,23,-1
 1010 1120 l 1,24,-1
 1010 -72 l 2,25,26
 1010 -242 1010 -242 888 -328 c 0,27,28
 772 -410 772 -410 595 -410 c 2,29,-1
 320 -410 l 1,0,-1
535 1527 m 1,30,-1
 545 1527 l 1,31,-1
 692 1216 l 1,32,-1
 574 1160 l 1,33,-1
 564 1160 l 1,34,-1
 415 1470 l 1,35,-1
 535 1527 l 1,30,-1
EndSplineSet
Validated: 1
EndChar

StartChar: AE
Encoding: 198 198 194
Width: 1688
Flags: W
HStem: -20 21G<180 232.222> 0 90<1028 1600> 710 90<380 828 1028 1550> 1420 90<1028 1550> 1440 90<478.853 826.594>
VStem: 180 200<70 710 800 1323.18> 828 200<90 710 800 1420>
LayerCount: 2
Fore
SplineSet
828 1421 m 1,0,1
 763 1440 763 1440 686 1440 c 0,2,3
 559 1440 559 1440 469.5 1391.5 c 128,-1,4
 380 1343 380 1343 380 1216 c 2,5,-1
 380 800 l 1,6,-1
 828 800 l 1,7,-1
 828 1421 l 1,0,1
1600 0 m 1,8,-1
 828 0 l 1,9,-1
 828 710 l 1,10,-1
 380 710 l 1,11,-1
 380 70 l 1,12,-1
 190 -20 l 1,13,-1
 180 -20 l 1,14,-1
 180 1126 l 2,15,16
 180 1338 180 1338 327.5 1434 c 128,-1,17
 475 1530 475 1530 686 1530 c 0,18,19
 777 1530 777 1530 862 1510 c 1,20,-1
 1588 1510 l 1,21,-1
 1588 1500 l 1,22,-1
 1550 1420 l 1,23,-1
 1028 1420 l 1,24,-1
 1028 800 l 1,25,-1
 1588 800 l 1,26,-1
 1588 790 l 1,27,-1
 1550 710 l 1,28,-1
 1028 710 l 1,29,-1
 1028 90 l 1,30,-1
 1638 90 l 1,31,-1
 1638 80 l 1,32,-1
 1600 0 l 1,8,-1
EndSplineSet
Validated: 1
EndChar

StartChar: Eth
Encoding: 208 208 195
Width: 1350
Flags: W
HStem: 0 90<400 879.25> 710 90<78 200 400 692> 1420 90<400 881.664>
VStem: 200 200<90 710 800 1420> 980 210<206.322 1303.18>
CounterMasks: 1 e0
LayerCount: 2
Fore
SplineSet
200 0 m 1,0,-1
 200 710 l 1,1,-1
 40 710 l 1,2,-1
 40 720 l 1,3,-1
 78 800 l 1,4,-1
 200 800 l 1,5,-1
 200 1440 l 1,6,-1
 348 1510 l 1,7,-1
 685 1510 l 2,8,9
 894 1510 894 1510 1042 1414 c 128,-1,10
 1190 1318 1190 1318 1190 1106 c 2,11,-1
 1190 404 l 2,12,13
 1190 191 1190 191 1042 96 c 0,14,15
 895 0 895 0 685 0 c 2,16,-1
 200 0 l 1,0,-1
400 90 m 1,17,-1
 675 90 l 2,18,19
 802 90 802 90 890 138 c 0,20,21
 980 186 980 186 980 314 c 2,22,-1
 980 1196 l 2,23,24
 980 1324 980 1324 890 1372 c 0,25,26
 802 1420 802 1420 675 1420 c 2,27,-1
 400 1420 l 1,28,-1
 400 800 l 1,29,-1
 730 800 l 1,30,-1
 730 790 l 1,31,-1
 692 710 l 1,32,-1
 400 710 l 1,33,-1
 400 90 l 1,17,-1
EndSplineSet
Validated: 1
EndChar

StartChar: Hbar
Encoding: 294 294 196
Width: 1400
Flags: W
HStem: -20 21G<200 252.222 1000 1052.22> 710 90<400 1000> 1265 90<78 200 400 1000 1200 1322> 1510 20G<347.778 400 1147.78 1200>
VStem: 200 200<70 710 800 1265 1355 1440> 1000 200<70 710 800 1265 1355 1440>
LayerCount: 2
Fore
SplineSet
210 -20 m 1,0,-1
 200 -20 l 1,1,-1
 200 1265 l 1,2,-1
 40 1265 l 1,3,-1
 40 1275 l 1,4,-1
 78 1355 l 1,5,-1
 200 1355 l 1,6,-1
 200 1440 l 1,7,-1
 390 1530 l 1,8,-1
 400 1530 l 1,9,-1
 400 1355 l 1,10,-1
 1000 1355 l 1,11,-1
 1000 1440 l 1,12,-1
 1190 1530 l 1,13,-1
 1200 1530 l 1,14,-1
 1200 1355 l 1,15,-1
 1360 1355 l 1,16,-1
 1360 1345 l 1,17,-1
 1322 1265 l 1,18,-1
 1200 1265 l 1,19,-1
 1200 70 l 1,20,-1
 1010 -20 l 1,21,-1
 1000 -20 l 1,22,-1
 1000 710 l 1,23,-1
 400 710 l 1,24,-1
 400 70 l 1,25,-1
 210 -20 l 1,0,-1
400 1265 m 1,26,-1
 400 800 l 1,27,-1
 1000 800 l 1,28,-1
 1000 1265 l 1,29,-1
 400 1265 l 1,26,-1
EndSplineSet
Validated: 1
EndChar

StartChar: IJ
Encoding: 306 306 197
Width: 1660
Flags: W
HStem: -20 90<824.481 1200.54> 1420 90<673 1300> 1510 20G<347.778 400>
VStem: 200 200<70 1440> 520 214<186.854 365.746> 1300 200<186.817 1420>
LayerCount: 2
Fore
SplineSet
1011 -20 m 0,0,1
 813 -20 813 -20 666 76 c 0,2,3
 530 165 530 165 520 359 c 1,4,-1
 724 455 l 1,5,-1
 734 455 l 1,6,-1
 734 294 l 2,7,8
 734 167 734 167 815.5 118.5 c 128,-1,9
 897 70 897 70 1011 70 c 0,10,11
 1121 70 1121 70 1211 119 c 0,12,13
 1300 167 1300 167 1300 294 c 2,14,-1
 1300 1420 l 17,15,-1
 635 1420 l 1,16,-1
 635 1430 l 1,17,-1
 673 1510 l 1,18,-1
 1500 1510 l 1,19,-1
 1500 384 l 2,20,21
 1500 172 1500 172 1352 76 c 0,22,23
 1205 -20 1205 -20 1011 -20 c 0,0,1
200 -20 m 1,24,-1
 200 1440 l 1,25,-1
 390 1530 l 1,26,-1
 400 1530 l 1,27,-1
 400 70 l 1,28,-1
 210 -20 l 1,29,-1
 200 -20 l 1,24,-1
EndSplineSet
Validated: 1
EndChar

StartChar: lslash
Encoding: 322 322 198
Width: 684
Flags: W
HStem: -20 21G<252 303.975> 1510 20G<380.025 432>
VStem: 252 180<61 691 863 1449>
DStem2: 50 685 55 599 0.906303 0.422628<0 185.609 421.436 606.622>
LayerCount: 2
Fore
SplineSet
262 -20 m 1,0,-1
 252 -20 l 1,1,-1
 252 691 l 1,2,-1
 55 599 l 1,3,-1
 50 608 l 1,4,-1
 50 685 l 1,5,-1
 252 779 l 1,6,-1
 252 1449 l 1,7,-1
 422 1530 l 1,8,-1
 432 1530 l 1,9,-1
 432 863 l 1,10,-1
 629 955 l 1,11,-1
 634 946 l 1,12,-1
 634 868 l 1,13,-1
 432 774 l 1,14,-1
 432 61 l 1,15,-1
 262 -20 l 1,0,-1
EndSplineSet
Validated: 1
EndChar

StartChar: Lslash
Encoding: 321 321 199
Width: 1020
Flags: W
HStem: 0 90<400 972> 1510 20G<347.778 400>
VStem: 200 200<90 624 816 1440>
DStem2: 120 686 125 589 0.906902 0.421341<0 46.429 308.707 602.102>
LayerCount: 2
Fore
SplineSet
200 0 m 1,0,-1
 200 624 l 1,1,-1
 125 589 l 1,2,-1
 120 598 l 1,3,-1
 120 686 l 1,4,-1
 200 723 l 1,5,-1
 200 1440 l 1,6,-1
 390 1530 l 1,7,-1
 400 1530 l 1,8,-1
 400 816 l 1,9,-1
 699 955 l 1,10,-1
 704 946 l 1,11,-1
 704 858 l 1,12,-1
 400 717 l 1,13,-1
 400 90 l 1,14,-1
 1010 90 l 1,15,-1
 1010 80 l 1,16,-1
 972 0 l 1,17,-1
 200 0 l 1,0,-1
EndSplineSet
Validated: 1
EndChar

StartChar: Eng
Encoding: 330 330 200
Width: 1370
Flags: W
HStem: -410 90<724 891.345> -20 21G<180 232.222> 1440 90<478.798 891.904>
VStem: 180 200<70 1323.18> 990 200<-203.183 1323.18>
LayerCount: 2
Fore
SplineSet
190 -20 m 1,0,-1
 180 -20 l 9,1,-1
 180 1126 l 2,2,3
 180 1338 180 1338 327.5 1434 c 128,-1,4
 475 1530 475 1530 685.5 1530 c 128,-1,5
 896 1530 896 1530 1043 1434 c 128,-1,6
 1190 1338 1190 1338 1190 1126 c 2,7,-1
 1190 -6 l 2,8,9
 1190 -218 1190 -218 1043 -314 c 128,-1,10
 896 -410 896 -410 686 -410 c 9,11,-1
 686 -400 l 1,12,-1
 724 -320 l 1,13,14
 834 -308 834 -308 901 -272 c 0,15,16
 990 -223 990 -223 990 -96 c 10,17,-1
 990 1216 l 2,18,19
 990 1343 990 1343 901 1391.5 c 128,-1,20
 812 1440 812 1440 685.5 1440 c 128,-1,21
 559 1440 559 1440 469.5 1391.5 c 128,-1,22
 380 1343 380 1343 380 1216 c 2,23,-1
 380 70 l 17,24,-1
 190 -20 l 1,0,-1
EndSplineSet
Validated: 1
EndChar

StartChar: OE
Encoding: 338 338 201
Width: 1674
Flags: W
HStem: -20 90<458.853 812.896> 0 90<1014 1586> 710 90<1014 1536> 1420 90<1014 1536> 1440 90<458.853 812.193>
VStem: 160 200<186.817 1323.18> 814 200<90 710 800 1420>
LayerCount: 2
Fore
SplineSet
1586 0 m 1,0,-1
 843 0 l 1,1,2
 759 -20 759 -20 666 -20 c 0,3,4
 455 -20 455 -20 307.5 76 c 128,-1,5
 160 172 160 172 160 384 c 2,6,-1
 160 1126 l 2,7,8
 160 1338 160 1338 307.5 1434 c 128,-1,9
 455 1530 455 1530 666 1530 c 0,10,11
 761 1530 761 1530 844 1510 c 1,12,-1
 1574 1510 l 1,13,-1
 1574 1500 l 1,14,-1
 1536 1420 l 1,15,-1
 1014 1420 l 1,16,-1
 1014 800 l 1,17,-1
 1574 800 l 1,18,-1
 1574 790 l 1,19,-1
 1536 710 l 1,20,-1
 1014 710 l 1,21,-1
 1014 90 l 1,22,-1
 1624 90 l 1,23,-1
 1624 80 l 1,24,-1
 1586 0 l 1,0,-1
814 1420 m 1,25,26
 748 1440 748 1440 666 1440 c 0,27,28
 539 1440 539 1440 449.5 1391.5 c 128,-1,29
 360 1343 360 1343 360 1216 c 2,30,-1
 360 294 l 2,31,32
 360 167 360 167 449.5 118.5 c 128,-1,33
 539 70 539 70 666 70 c 0,34,35
 748 70 748 70 814 90 c 1,36,-1
 814 1420 l 1,25,26
EndSplineSet
Validated: 1
EndChar

StartChar: Thorn
Encoding: 222 222 202
Width: 1210
Flags: W
HStem: -20 21G<200 252.222> 250 90<400 849.25> 1170 90<400 851.664> 1510 20G<347.778 400>
VStem: 200 200<70 250 340 1170 1260 1440> 950 210<457.313 1053.18>
LayerCount: 2
Fore
SplineSet
400 340 m 1,0,-1
 645 340 l 2,1,2
 772 340 772 340 860 388 c 0,3,4
 950 436 950 436 950 564 c 2,5,-1
 950 946 l 2,6,7
 950 1074 950 1074 860 1122 c 0,8,9
 772 1170 772 1170 645 1170 c 2,10,-1
 400 1170 l 1,11,-1
 400 340 l 1,0,-1
210 -20 m 1,12,-1
 200 -20 l 1,13,-1
 200 1440 l 1,14,-1
 390 1530 l 1,15,-1
 400 1530 l 1,16,-1
 400 1260 l 1,17,-1
 655 1260 l 2,18,19
 864 1260 864 1260 1012 1164 c 128,-1,20
 1160 1068 1160 1068 1160 856 c 2,21,-1
 1160 654 l 2,22,23
 1160 443 1160 443 1012 346 c 0,24,25
 865 250 865 250 655 250 c 2,26,-1
 400 250 l 1,27,-1
 400 70 l 1,28,-1
 210 -20 l 1,12,-1
EndSplineSet
Validated: 1
EndChar

StartChar: Tbar
Encoding: 358 358 203
Width: 1070
Flags: W
HStem: -20 21G<435 487.222> 475 90<278 435 635 792> 1420 90<48 435 635 1022>
VStem: 435 200<70 475 565 1420>
LayerCount: 2
Fore
SplineSet
445 -20 m 1,0,-1
 435 -20 l 1,1,-1
 435 475 l 1,2,-1
 240 475 l 1,3,-1
 240 485 l 1,4,-1
 278 565 l 1,5,-1
 435 565 l 1,6,-1
 435 1420 l 1,7,-1
 10 1420 l 1,8,-1
 10 1430 l 1,9,-1
 48 1510 l 1,10,-1
 1060 1510 l 1,11,-1
 1060 1500 l 1,12,-1
 1022 1420 l 1,13,-1
 635 1420 l 1,14,-1
 635 565 l 1,15,-1
 830 565 l 1,16,-1
 830 555 l 1,17,-1
 792 475 l 1,18,-1
 635 475 l 1,19,-1
 635 70 l 1,20,-1
 445 -20 l 1,0,-1
EndSplineSet
Validated: 1
EndChar

StartChar: tbar
Encoding: 359 359 204
Width: 780
Flags: W
HStem: -20 21G<300 351.772> 480 80<133 300 475 647> 1020 80<43 300 475 737> 1510 20G<423.228 475>
VStem: 300 175<59 480 560 1020 1100 1451>
LayerCount: 2
Fore
SplineSet
310 -20 m 1,0,-1
 300 -20 l 1,1,-1
 300 480 l 1,2,-1
 100 480 l 1,3,-1
 100 490 l 1,4,-1
 133 560 l 1,5,-1
 300 560 l 1,6,-1
 300 1020 l 1,7,-1
 10 1020 l 1,8,-1
 10 1030 l 1,9,-1
 43 1100 l 1,10,-1
 300 1100 l 1,11,-1
 300 1451 l 1,12,-1
 465 1530 l 1,13,-1
 475 1530 l 1,14,-1
 475 1100 l 1,15,-1
 770 1100 l 1,16,-1
 770 1090 l 1,17,-1
 737 1020 l 1,18,-1
 475 1020 l 1,19,-1
 475 560 l 1,20,-1
 680 560 l 1,21,-1
 680 550 l 1,22,-1
 647 480 l 1,23,-1
 475 480 l 1,24,-1
 475 59 l 1,25,-1
 310 -20 l 1,0,-1
EndSplineSet
Validated: 1
EndChar

StartChar: thorn
Encoding: 254 254 205
Width: 1190
Flags: W
HStem: -430 21G<200 251.975> -20 80<451.913 771.137> 1040 80<452.382 771.137> 1510 20G<328.025 380>
VStem: 200 180<-349 49 120.732 979.268 1051 1449> 840 190<143.809 956.191>
LayerCount: 2
Fore
SplineSet
615 1040 m 128,-1,1
 517 1040 517 1040 448.5 998.5 c 128,-1,2
 380 957 380 957 380 858 c 2,3,-1
 380 242 l 2,4,5
 380 143 380 143 448.5 101.5 c 128,-1,6
 517 60 517 60 615 60 c 128,-1,7
 713 60 713 60 776.5 101.5 c 128,-1,8
 840 143 840 143 840 242 c 2,9,-1
 840 858 l 2,10,11
 840 957 840 957 776.5 998.5 c 128,-1,0
 713 1040 713 1040 615 1040 c 128,-1,1
210 -430 m 1,12,-1
 200 -430 l 1,13,-1
 200 1449 l 1,14,-1
 370 1530 l 1,15,-1
 380 1530 l 1,16,-1
 380 1051 l 1,17,18
 463 1120 463 1120 615 1120 c 0,19,20
 787 1120 787 1120 908.5 1038 c 128,-1,21
 1030 956 1030 956 1030 782 c 2,22,-1
 1030 318 l 2,23,24
 1030 144 1030 144 908.5 62 c 128,-1,25
 787 -20 787 -20 615 -20 c 0,26,27
 461 -20 461 -20 380 49 c 1,28,-1
 380 -349 l 1,29,-1
 210 -430 l 1,12,-1
EndSplineSet
Validated: 1
EndChar

StartChar: eth
Encoding: 240 240 206
Width: 1150
Flags: W
HStem: -20 80<418.863 731.137> 1040 80<419.189 661.843> 1510 20G<414.357 481.426>
VStem: 160 190<143.809 948.955> 800 190<143.809 947.188>
DStem2: 302 1312 307 1226 0.905758 0.423795<0 144.93 291.106 449.023>
LayerCount: 2
Fore
SplineSet
575 60 m 128,-1,1
 673 60 673 60 736.5 101.5 c 128,-1,2
 800 143 800 143 800 242 c 2,3,-1
 800 858 l 2,4,5
 800 957 800 957 736.5 998.5 c 128,-1,6
 673 1040 673 1040 575 1040 c 128,-1,7
 477 1040 477 1040 413.5 998.5 c 128,-1,8
 350 957 350 957 350 858 c 2,9,-1
 350 242 l 2,10,11
 350 143 350 143 413.5 101.5 c 128,-1,0
 477 60 477 60 575 60 c 128,-1,1
662 1120 m 1,12,-1
 490 1312 l 1,13,-1
 307 1226 l 1,14,-1
 302 1235 l 1,15,-1
 302 1312 l 1,16,-1
 433 1374 l 1,17,-1
 343 1474 l 1,18,-1
 454 1530 l 1,19,-1
 464 1530 l 1,20,-1
 552 1429 l 1,21,-1
 738 1516 l 1,22,-1
 743 1507 l 1,23,-1
 743 1429 l 1,24,-1
 600 1362 l 1,25,-1
 912 995 l 2,26,27
 990 903 990 903 990 782 c 2,28,-1
 990 318 l 2,29,30
 990 144 990 144 868.5 62 c 128,-1,31
 747 -20 747 -20 575 -20 c 128,-1,32
 403 -20 403 -20 281.5 62 c 128,-1,33
 160 144 160 144 160 318 c 2,34,-1
 160 782 l 2,35,36
 160 941 160 941 282 1038 c 0,37,38
 382 1120 382 1120 575 1120 c 2,39,-1
 662 1120 l 1,12,-1
EndSplineSet
Validated: 1
EndChar

StartChar: oe
Encoding: 339 339 207
Width: 1737
Flags: W
HStem: -20 80<418.863 733.124 1005.57 1316.96> 1040 80<418.863 733.124 1005.57 1325.07>
VStem: 160 190<143.809 956.191> 800 190<157.132 363 458 942.868> 1382 195<143.809 300> 1397 180<654 956.191>
DStem2: 990 458 990 363 0.901978 0.431782<0 451.734>
LayerCount: 2
Fore
SplineSet
575 60 m 128,-1,1
 673 60 673 60 736.5 101.5 c 128,-1,2
 800 143 800 143 800 242 c 2,3,-1
 800 858 l 2,4,5
 800 957 800 957 736.5 998.5 c 128,-1,6
 673 1040 673 1040 575 1040 c 128,-1,7
 477 1040 477 1040 413.5 998.5 c 128,-1,8
 350 957 350 957 350 858 c 2,9,-1
 350 242 l 2,10,11
 350 143 350 143 413.5 101.5 c 128,-1,0
 477 60 477 60 575 60 c 128,-1,1
575 -20 m 0,12,13
 403 -20 403 -20 281.5 62 c 128,-1,14
 160 144 160 144 160 318 c 2,15,-1
 160 782 l 2,16,17
 160 956 160 956 281.5 1038 c 128,-1,18
 403 1120 403 1120 575 1120 c 0,19,20
 746 1120 746 1120 868 1038 c 1,21,22
 990 1120 990 1120 1162 1120 c 128,-1,23
 1334 1120 1334 1120 1455.5 1038 c 128,-1,24
 1577 956 1577 956 1577 782 c 2,25,-1
 1577 644 l 1,26,-1
 990 363 l 1,27,-1
 990 318 l 2,28,29
 990 223 990 223 954 155 c 1,30,31
 970 122 970 122 1000 102 c 0,32,33
 1064 60 1064 60 1162 60 c 128,-1,34
 1260 60 1260 60 1321 101.5 c 128,-1,35
 1382 143 1382 143 1382 242 c 2,36,-1
 1382 300 l 1,37,-1
 1567 388 l 1,38,-1
 1577 388 l 1,39,-1
 1577 318 l 2,40,41
 1577 144 1577 144 1455.5 62 c 128,-1,42
 1334 -20 1334 -20 1162 -20 c 128,-1,43
 990 -20 990 -20 868 62 c 1,44,45
 746 -20 746 -20 575 -20 c 0,12,13
990 458 m 1,46,-1
 1397 654 l 1,47,-1
 1397 858 l 2,48,49
 1397 957 1397 957 1328.5 998.5 c 128,-1,50
 1260 1040 1260 1040 1162 1040 c 128,-1,51
 1064 1040 1064 1040 1000 998 c 0,52,53
 969 978 969 978 954 945 c 1,54,55
 990 877 990 877 990 782 c 2,56,-1
 990 458 l 1,46,-1
EndSplineSet
Validated: 1
EndChar

StartChar: eng
Encoding: 331 331 208
Width: 1190
Flags: W
HStem: -410 81<628 758.949> -20 21G<180 231.975> 1040 80<431.931 758.069>
VStem: 180 180<61 956.191> 830 180<-246.191 956.191>
LayerCount: 2
Fore
SplineSet
190 -20 m 1,0,-1
 180 -20 l 9,1,-1
 180 782 l 2,2,3
 180 956 180 956 301.5 1038 c 128,-1,4
 423 1120 423 1120 595 1120 c 128,-1,5
 767 1120 767 1120 888.5 1038 c 128,-1,6
 1010 956 1010 956 1010 782 c 2,7,-1
 1010 -72 l 2,8,9
 1010 -246 1010 -246 888.5 -328 c 128,-1,10
 767 -410 767 -410 595 -410 c 1,11,-1
 595 -400 l 1,12,-1
 628 -329 l 1,13,14
 710 -319 710 -319 762 -288 c 0,15,16
 830 -247 830 -247 830 -148 c 2,17,-1
 830 858 l 2,18,19
 830 957 830 957 761.5 998.5 c 128,-1,20
 693 1040 693 1040 595 1040 c 128,-1,21
 497 1040 497 1040 428.5 998.5 c 128,-1,22
 360 957 360 957 360 858 c 2,23,-1
 360 61 l 17,24,-1
 190 -20 l 1,0,-1
EndSplineSet
Validated: 1
EndChar

StartChar: kgreenlandic
Encoding: 312 312 209
Width: 1170
Flags: W
HStem: -20 21G<200 251.975 830 881.975> 700 82<575.326 758.25> 1100 20G<328.025 380 856.384 934>
VStem: 200 180<61 639.268 755 1039> 830 180<61 613.779>
DStem2: 380 755 575 782 0.809916 0.586546<173.77 622.287>
LayerCount: 2
Fore
SplineSet
210 -20 m 1,0,-1
 200 -20 l 1,1,-1
 200 1039 l 1,2,-1
 370 1120 l 1,3,-1
 380 1120 l 1,4,-1
 380 755 l 1,5,-1
 884 1120 l 1,6,-1
 894 1120 l 1,7,-1
 982 1076 l 1,8,-1
 575 782 l 1,9,-1
 605 782 l 2,10,11
 770 782 770 782 888 698 c 0,12,13
 1010 611 1010 611 1010 442 c 2,14,-1
 1010 61 l 1,15,-1
 840 -20 l 1,16,-1
 830 -20 l 1,17,-1
 830 518 l 2,18,19
 830 617 830 617 761.5 658.5 c 128,-1,20
 693 700 693 700 605 700 c 128,-1,21
 517 700 517 700 448.5 658.5 c 128,-1,22
 380 617 380 617 380 518 c 2,23,-1
 380 61 l 1,24,-1
 210 -20 l 1,0,-1
EndSplineSet
Validated: 1
EndChar

StartChar: ij
Encoding: 307 307 210
Width: 1100
Flags: W
HStem: -410 80<518 644.375> -20 21G<200 251.975> 1100 20G<328.025 380 848.025 900> 1220 245<206.097 373.903 726.097 893.903>
VStem: 170 240<1257.13 1427.87> 200 180<61 1039> 690 240<1257.13 1427.87> 720 180<-246.191 1039>
LayerCount: 2
Fore
SplineSet
485 -410 m 1,0,-1
 485 -400 l 1,1,-1
 518 -330 l 1,2,3
 591 -324 591 -324 652 -288 c 0,4,5
 720 -248 720 -248 720 -148 c 2,6,-1
 720 1039 l 17,7,-1
 890 1120 l 1,8,-1
 900 1120 l 9,9,-1
 900 -72 l 2,10,11
 900 -246 900 -246 778.5 -328 c 128,-1,12
 657 -410 657 -410 485 -410 c 1,0,-1
200 -20 m 1,13,-1
 200 1039 l 1,14,-1
 370 1120 l 1,15,-1
 380 1120 l 1,16,-1
 380 61 l 1,17,-1
 210 -20 l 1,18,-1
 200 -20 l 1,13,-1
810 1465 m 128,-1,20
 860 1465 860 1465 895 1429 c 128,-1,21
 930 1393 930 1393 930 1342.5 c 128,-1,22
 930 1292 930 1292 895 1256 c 128,-1,23
 860 1220 860 1220 810 1220 c 128,-1,24
 760 1220 760 1220 725 1256 c 128,-1,25
 690 1292 690 1292 690 1342.5 c 128,-1,26
 690 1393 690 1393 725 1429 c 128,-1,19
 760 1465 760 1465 810 1465 c 128,-1,20
290 1465 m 128,-1,28
 340 1465 340 1465 375 1429 c 128,-1,29
 410 1393 410 1393 410 1342.5 c 128,-1,30
 410 1292 410 1292 375 1256 c 128,-1,31
 340 1220 340 1220 290 1220 c 128,-1,32
 240 1220 240 1220 205 1256 c 128,-1,33
 170 1292 170 1292 170 1342.5 c 128,-1,34
 170 1393 170 1393 205 1429 c 128,-1,27
 240 1465 240 1465 290 1465 c 128,-1,28
EndSplineSet
Validated: 1
EndChar

StartChar: hbar
Encoding: 295 295 211
Width: 1210
Flags: W
HStem: -20 21G<200 251.975 850 901.975> 1040 80<453.553 778.069> 1270 80<73 200 380 547> 1510 20G<328.025 380>
VStem: 200 180<61 979.268 1051 1270 1350 1449> 850 180<61 956.191>
LayerCount: 2
Fore
SplineSet
210 -20 m 1,0,-1
 200 -20 l 1,1,-1
 200 1270 l 1,2,-1
 40 1270 l 1,3,-1
 40 1280 l 1,4,-1
 73 1350 l 1,5,-1
 200 1350 l 1,6,-1
 200 1449 l 1,7,-1
 370 1530 l 1,8,-1
 380 1530 l 1,9,-1
 380 1350 l 1,10,-1
 580 1350 l 1,11,-1
 580 1340 l 1,12,-1
 547 1270 l 1,13,-1
 380 1270 l 1,14,-1
 380 1051 l 1,15,16
 468 1120 468 1120 615 1120 c 0,17,18
 787 1120 787 1120 908.5 1038 c 128,-1,19
 1030 956 1030 956 1030 782 c 2,20,-1
 1030 61 l 1,21,-1
 860 -20 l 1,22,-1
 850 -20 l 1,23,-1
 850 858 l 2,24,25
 850 957 850 957 781.5 998.5 c 128,-1,26
 713 1040 713 1040 615 1040 c 128,-1,27
 517 1040 517 1040 448.5 998.5 c 128,-1,28
 380 957 380 957 380 858 c 2,29,-1
 380 61 l 1,30,-1
 210 -20 l 1,0,-1
EndSplineSet
Validated: 1
EndChar

StartChar: longs
Encoding: 383 383 212
Width: 820
Flags: W
HStem: -20 21G<220 271.975> 820 80<43 220> 1430 80<475.625 777>
VStem: 220 180<61 820 900 1346.19>
LayerCount: 2
Fore
SplineSet
230 -20 m 1,0,-1
 220 -20 l 1,1,-1
 220 820 l 1,2,-1
 10 820 l 1,3,-1
 10 830 l 1,4,-1
 43 900 l 1,5,-1
 220 900 l 1,6,-1
 220 1172 l 2,7,8
 220 1346 220 1346 341.5 1428 c 128,-1,9
 463 1510 463 1510 635 1510 c 2,10,-1
 810 1510 l 1,11,-1
 810 1500 l 1,12,-1
 777 1430 l 1,13,-1
 635 1430 l 2,14,15
 538 1430 538 1430 468 1388 c 0,16,17
 400 1347 400 1347 400 1248 c 2,18,-1
 400 61 l 1,19,-1
 230 -20 l 1,0,-1
EndSplineSet
Validated: 1
EndChar

StartChar: florin
Encoding: 402 402 213
Width: 800
Flags: W
HStem: -410 80<-2 124.375> 820 80<380 718> 1430 80<455.625 757>
VStem: 200 180<-246.191 820 900 1346.19>
LayerCount: 2
Fore
SplineSet
-35 -410 m 1,0,-1
 -35 -400 l 1,1,-1
 -2 -330 l 1,2,3
 71 -324 71 -324 132 -288 c 0,4,5
 200 -248 200 -248 200 -148 c 2,6,-1
 200 1172 l 2,7,8
 200 1346 200 1346 321.5 1428 c 128,-1,9
 443 1510 443 1510 615 1510 c 2,10,-1
 790 1510 l 1,11,-1
 790 1500 l 1,12,-1
 757 1430 l 1,13,-1
 615 1430 l 2,14,15
 518 1430 518 1430 448 1388 c 0,16,17
 380 1347 380 1347 380 1248 c 2,18,-1
 380 900 l 1,19,-1
 751 900 l 1,20,-1
 751 890 l 1,21,-1
 718 820 l 1,22,-1
 380 820 l 1,23,-1
 380 -72 l 2,24,25
 380 -246 380 -246 258.5 -328 c 128,-1,26
 137 -410 137 -410 -35 -410 c 1,0,-1
EndSplineSet
Validated: 1
EndChar

StartChar: dcroat
Encoding: 273 273 214
Width: 1170
Flags: W
HStem: -20 80<418.863 738.069> 1040 80<418.863 738.087> 1270 80<643 810 990 1117> 1510 20G<938.025 990>
VStem: 160 190<143.809 956.191> 810 180<143.809 979.268 1051 1270 1350 1449>
LayerCount: 2
Fore
SplineSet
575 -20 m 128,-1,1
 403 -20 403 -20 281.5 62 c 128,-1,2
 160 144 160 144 160 318 c 2,3,-1
 160 782 l 2,4,5
 160 956 160 956 281.5 1038 c 128,-1,6
 403 1120 403 1120 575 1120 c 0,7,8
 729 1120 729 1120 810 1051 c 1,9,-1
 810 1270 l 1,10,-1
 610 1270 l 1,11,-1
 610 1280 l 1,12,-1
 643 1350 l 1,13,-1
 810 1350 l 1,14,-1
 810 1449 l 1,15,-1
 980 1530 l 1,16,-1
 990 1530 l 1,17,-1
 990 1350 l 1,18,-1
 1150 1350 l 1,19,-1
 1150 1340 l 1,20,-1
 1117 1270 l 1,21,-1
 990 1270 l 1,22,-1
 990 318 l 2,23,24
 990 144 990 144 868.5 62 c 128,-1,0
 747 -20 747 -20 575 -20 c 128,-1,1
575 60 m 128,-1,26
 673 60 673 60 741.5 101.5 c 128,-1,27
 810 143 810 143 810 242 c 2,28,-1
 810 858 l 2,29,30
 810 957 810 957 741.5 998.5 c 128,-1,31
 673 1040 673 1040 575 1040 c 128,-1,32
 477 1040 477 1040 413.5 998.5 c 128,-1,33
 350 957 350 957 350 858 c 2,34,-1
 350 242 l 2,35,36
 350 143 350 143 413.5 101.5 c 128,-1,25
 477 60 477 60 575 60 c 128,-1,26
EndSplineSet
Validated: 1
EndChar

StartChar: germandbls
Encoding: 223 223 215
Width: 1179
Flags: W
HStem: -20 80<586 833.766> 801 80<585 751.413> 1452 78<433.515 754.782>
VStem: 180 180<61 1369.3> 829 180<943.408 1366.19> 909 190<140.711 715.791>
LayerCount: 2
Fore
SplineSet
190 -20 m 1,0,-1
 180 -20 l 1,1,-1
 180 1192 l 2,2,3
 180 1366 180 1366 301 1448 c 128,-1,4
 422 1530 422 1530 594 1530 c 152,-1,5
 766 1530 766 1530 887.5 1448 c 128,-1,6
 1009 1366 1009 1366 1009 1192 c 2,7,-1
 1009 1084 l 2,8,9
 1009 928 1009 928 861 861 c 1,10,11
 1099 788 1099 788 1099 549 c 2,12,-1
 1099 318 l 2,13,14
 1099 144 1099 144 978 62 c 0,15,16
 855 -20 855 -20 684 -20 c 2,17,-1
 553 -20 l 1,18,-1
 553 -10 l 1,19,-1
 586 60 l 1,20,-1
 674 60 l 2,21,22
 772 60 772 60 840.5 101.5 c 128,-1,23
 909 143 909 143 909 242 c 2,24,-1
 909 585 l 2,25,26
 909 686 909 686 836 746 c 0,27,28
 770 801 770 801 673 801 c 2,29,-1
 552 801 l 1,30,-1
 552 811 l 1,31,-1
 585 881 l 1,32,33
 683 881 683 881 756 922.5 c 128,-1,34
 829 964 829 964 829 1063 c 2,35,-1
 829 1270 l 2,36,37
 829 1369 829 1369 760.5 1410.5 c 128,-1,38
 692 1452 692 1452 594 1452 c 152,-1,39
 496 1452 496 1452 428 1410.5 c 128,-1,40
 360 1369 360 1369 360 1270 c 2,41,-1
 360 61 l 1,42,-1
 190 -20 l 1,0,-1
EndSplineSet
Validated: 1
EndChar

StartChar: ae
Encoding: 230 230 216
Width: 1631
Flags: W
HStem: -20 80<336.863 632.556 899.906 1210.96> 665 80<336.863 632.325> 1020 80<273 625.487> 1040 80<898.357 1219.07>
VStem: 80 190<143.809 581.191> 700 180<115.873 361 457 609.127 677 926.837> 1276 195<143.809 300> 1291 180<654 956.191>
DStem2: 880 457 880 361 0.901928 0.431887<0 455.774>
LayerCount: 2
Fore
SplineSet
1056 -20 m 0,0,1
 921 -20 921 -20 817 31 c 1,2,-1
 710 -20 l 1,3,-1
 700 -20 l 1,4,-1
 700 48 l 1,5,6
 616 -20 616 -20 480 -20 c 0,7,8
 323 -20 323 -20 201.5 62 c 128,-1,9
 80 144 80 144 80 318 c 2,10,-1
 80 407 l 2,11,12
 80 581 80 581 201.5 663 c 128,-1,13
 323 745 323 745 480 745 c 0,14,15
 615 745 615 745 700 677 c 1,16,-1
 700 838 l 2,17,18
 700 937 700 937 631.5 978.5 c 128,-1,19
 563 1020 563 1020 465 1020 c 2,20,-1
 240 1020 l 1,21,-1
 240 1030 l 1,22,-1
 273 1100 l 1,23,-1
 465 1100 l 2,24,25
 628 1100 628 1100 746 1026 c 1,26,27
 867 1120 867 1120 1056 1120 c 0,28,29
 1228 1120 1228 1120 1349.5 1038 c 128,-1,30
 1471 956 1471 956 1471 782 c 2,31,-1
 1471 644 l 1,32,-1
 880 361 l 1,33,-1
 880 111 l 1,34,35
 961 60 961 60 1055 60 c 0,36,37
 1154 60 1154 60 1215 101.5 c 128,-1,38
 1276 143 1276 143 1276 242 c 2,39,-1
 1276 300 l 1,40,-1
 1461 388 l 1,41,-1
 1471 388 l 1,42,-1
 1471 318 l 2,43,44
 1471 144 1471 144 1349.5 62 c 128,-1,45
 1228 -20 1228 -20 1056 -20 c 0,0,1
482.5 60 m 128,-1,47
 568 60 568 60 636.5 101.5 c 128,-1,48
 705 143 705 143 705 242 c 2,49,-1
 705 483 l 2,50,51
 705 582 705 582 636.5 623.5 c 128,-1,52
 568 665 568 665 482.5 665 c 128,-1,53
 397 665 397 665 333.5 623.5 c 128,-1,54
 270 582 270 582 270 483 c 2,55,-1
 270 242 l 2,56,57
 270 143 270 143 333.5 101.5 c 128,-1,46
 397 60 397 60 482.5 60 c 128,-1,47
880 457 m 1,58,-1
 1291 654 l 1,59,-1
 1291 858 l 2,60,61
 1291 957 1291 957 1222.5 998.5 c 128,-1,62
 1154 1040 1154 1040 1056 1040 c 128,-1,63
 958 1040 958 1040 894 998 c 0,64,65
 856 973 856 973 841 929 c 1,66,67
 880 860 880 860 880 762 c 2,68,-1
 880 457 l 1,58,-1
EndSplineSet
Validated: 1
EndChar

StartChar: S
Encoding: 83 83 217
Width: 1130
Flags: W
HStem: -20 90<365.796 743.493> 796 110<412.846 748.625> 1440 90<411.312 718.568>
VStem: 60 215<186.884 363.853> 148 205<963.562 1366.19> 773 204<1223.2 1370.34> 835 215<186.817 699.183>
LayerCount: 2
Fore
SplineSet
554.5 -20 m 128,-1,1
 354 -20 354 -20 207 76 c 0,2,3
 70 166 70 166 60 357 c 1,4,-1
 265 455 l 1,5,-1
 275 455 l 1,6,-1
 275 294 l 2,7,8
 275 167 275 167 356.5 118.5 c 128,-1,9
 438 70 438 70 554.5 70 c 128,-1,10
 671 70 671 70 753 118.5 c 128,-1,11
 835 167 835 167 835 294 c 2,12,-1
 835 572 l 2,13,14
 835 699 835 699 758.5 747.5 c 128,-1,15
 682 796 682 796 563 796 c 8,16,17
 391 796 391 796 269.5 878 c 128,-1,18
 148 960 148 960 148 1134 c 2,19,-1
 148 1192 l 2,20,21
 148 1366 148 1366 269.5 1448 c 128,-1,22
 391 1530 391 1530 563 1530 c 24,23,24
 734 1530 734 1530 856 1448 c 0,25,26
 964 1375 964 1375 977 1230 c 1,27,-1
 783 1138 l 1,28,-1
 773 1138 l 1,29,-1
 773 1258 l 2,30,31
 773 1357 773 1357 716.5 1398.5 c 128,-1,32
 660 1440 660 1440 567 1440 c 152,-1,33
 474 1440 474 1440 413.5 1398.5 c 128,-1,34
 353 1357 353 1357 353 1258 c 2,35,-1
 353 1088 l 2,36,37
 353 989 353 989 413.5 947.5 c 128,-1,38
 474 906 474 906 562 906 c 16,39,40
 763 906 763 906 906.5 810 c 128,-1,41
 1050 714 1050 714 1050 502 c 2,42,-1
 1050 384 l 2,43,44
 1050 172 1050 172 902.5 76 c 128,-1,0
 755 -20 755 -20 554.5 -20 c 128,-1,1
EndSplineSet
Validated: 1
EndChar

StartChar: s
Encoding: 115 115 218
Width: 930
Flags: W
HStem: -20 80<312.92 601.68> 559 80<350.593 607.898> 1041 79<354.501 573.578>
VStem: 60 194<145.535 291.856> 131 184<675.615 995.665> 613 188<862.235 991.734> 660 190<136.826 498.683>
LayerCount: 2
Fore
SplineSet
454 -20 m 0,0,1
 291 -20 291 -20 181 62 c 0,2,3
 70 145 70 145 60 285 c 1,4,-1
 244 373 l 1,5,-1
 254 373 l 1,6,-1
 254 242 l 2,7,8
 254 143 254 143 309.5 101.5 c 128,-1,9
 365 60 365 60 459 60 c 128,-1,10
 553 60 553 60 606.5 101.5 c 128,-1,11
 660 143 660 143 660 242 c 2,12,-1
 660 395 l 2,13,14
 660 476 660 476 611 517.5 c 128,-1,15
 562 559 562 559 473 559 c 0,16,17
 315 559 315 559 223 627 c 128,-1,18
 131 695 131 695 131 802 c 2,19,-1
 131 832 l 2,20,21
 131 980 131 980 227.5 1050 c 128,-1,22
 324 1120 324 1120 466 1120 c 0,23,24
 606 1120 606 1120 699 1050 c 128,-1,25
 792 980 792 980 801 869 c 1,26,-1
 623 785 l 1,27,-1
 613 785 l 1,28,-1
 613 919 l 2,29,30
 613 983 613 983 569 1012 c 0,31,32
 526 1041 526 1041 464 1041 c 0,33,34
 404 1041 404 1041 361 1013 c 0,35,36
 315 984 315 984 315 919 c 2,37,-1
 315 769 l 2,38,39
 315 710 315 710 349.5 674.5 c 128,-1,40
 384 639 384 639 479 639 c 0,41,42
 646 639 646 639 748 559 c 128,-1,43
 850 479 850 479 850 354 c 2,44,-1
 850 318 l 2,45,46
 850 144 850 144 736.5 62 c 128,-1,47
 623 -20 623 -20 454 -20 c 0,0,1
EndSplineSet
Validated: 1
EndChar

StartChar: Aringacute
Encoding: 506 506 219
Width: 1370
Flags: W
HStem: -20 21G<180 232.222 990 1042.22> 710 90<380 990> 1440 90<478.798 891.904> 1570 98<524.776 662.24> 1836 98<525.247 662.469>
VStem: 180 200<70 710 800 1323.18> 410 97<1686.75 1818.1> 673 97<1678.01 1825.38> 990 200<70 710 800 1323.18>
DStem2: 752 1626 880 1570 0.427336 0.904093<4.06987 343.991>
LayerCount: 2
Fore
SplineSet
190 -20 m 1,0,-1
 180 -20 l 1,1,-1
 180 1126 l 2,2,3
 180 1338 180 1338 327.5 1434 c 128,-1,4
 475 1530 475 1530 685.5 1530 c 128,-1,5
 896 1530 896 1530 1043 1434 c 128,-1,6
 1190 1338 1190 1338 1190 1126 c 2,7,-1
 1190 70 l 1,8,-1
 1000 -20 l 1,9,-1
 990 -20 l 1,10,-1
 990 710 l 1,11,-1
 380 710 l 1,12,-1
 380 70 l 1,13,-1
 190 -20 l 1,0,-1
380 800 m 1,14,-1
 990 800 l 1,15,-1
 990 1216 l 2,16,17
 990 1343 990 1343 901 1391.5 c 128,-1,18
 812 1440 812 1440 685.5 1440 c 128,-1,19
 559 1440 559 1440 469.5 1391.5 c 128,-1,20
 380 1343 380 1343 380 1216 c 2,21,-1
 380 800 l 1,14,-1
591 1836 m 0,22,23
 556 1835 556 1835 532 1811 c 0,24,25
 507 1786 507 1786 507 1752 c 128,-1,26
 507 1718 507 1718 531 1694 c 128,-1,27
 555 1670 555 1670 590 1668 c 256,28,29
 626 1668 626 1668 648 1693 c 0,30,31
 672 1719 672 1719 673 1752 c 0,32,33
 672 1789 672 1789 648 1811 c 0,34,35
 622 1835 622 1835 591 1836 c 0,22,23
592 1934 m 0,36,37
 665 1934 665 1934 717 1881 c 0,38,39
 770 1826 770 1826 770 1753 c 0,40,41
 770 1677 770 1677 717 1624 c 0,42,43
 663 1570 663 1570 590 1570 c 256,44,45
 517 1570 517 1570 463 1624 c 0,46,47
 410 1677 410 1677 410 1753 c 0,48,49
 410 1827 410 1827 463 1881 c 0,50,51
 516 1934 516 1934 592 1934 c 0,36,37
909 1937 m 1,52,-1
 1029 1880 l 1,53,-1
 880 1570 l 1,54,-1
 870 1570 l 1,55,-1
 752 1626 l 1,56,-1
 899 1937 l 1,57,-1
 909 1937 l 1,52,-1
EndSplineSet
Validated: 1
EndChar

StartChar: aringacute
Encoding: 507 507 220
Width: 1060
Flags: W
HStem: -20 80<336.863 632.556> 665 80<336.863 632.325> 1020 80<273 627.19> 1160 98<350.776 488.24> 1426 98<351.247 488.469>
VStem: 80 190<143.809 581.191> 236 97<1276.75 1408.1> 499 97<1268.01 1415.38> 700 180<115.873 609.127 677 936.191>
DStem2: 578 1216 706 1160 0.427336 0.904093<4.06987 343.991>
LayerCount: 2
Fore
SplineSet
710 -20 m 1,0,-1
 700 -20 l 1,1,-1
 700 48 l 1,2,3
 616 -20 616 -20 480 -20 c 0,4,5
 323 -20 323 -20 201.5 62 c 128,-1,6
 80 144 80 144 80 318 c 2,7,-1
 80 407 l 2,8,9
 80 581 80 581 201.5 663 c 128,-1,10
 323 745 323 745 480 745 c 0,11,12
 615 745 615 745 700 677 c 1,13,-1
 700 838 l 2,14,15
 700 937 700 937 631.5 978.5 c 128,-1,16
 563 1020 563 1020 465 1020 c 2,17,-1
 240 1020 l 1,18,-1
 240 1030 l 1,19,-1
 273 1100 l 1,20,-1
 465 1100 l 2,21,22
 637 1100 637 1100 758.5 1018 c 128,-1,23
 880 936 880 936 880 762 c 2,24,-1
 880 61 l 1,25,-1
 710 -20 l 1,0,-1
482.5 60 m 128,-1,27
 568 60 568 60 636.5 101.5 c 128,-1,28
 705 143 705 143 705 242 c 2,29,-1
 705 483 l 2,30,31
 705 582 705 582 636.5 623.5 c 128,-1,32
 568 665 568 665 482.5 665 c 128,-1,33
 397 665 397 665 333.5 623.5 c 128,-1,34
 270 582 270 582 270 483 c 2,35,-1
 270 242 l 2,36,37
 270 143 270 143 333.5 101.5 c 128,-1,26
 397 60 397 60 482.5 60 c 128,-1,27
417 1426 m 0,38,39
 382 1425 382 1425 358 1401 c 0,40,41
 333 1376 333 1376 333 1342 c 128,-1,42
 333 1308 333 1308 357 1284 c 128,-1,43
 381 1260 381 1260 416 1258 c 256,44,45
 452 1258 452 1258 474 1283 c 0,46,47
 498 1309 498 1309 499 1342 c 0,48,49
 498 1379 498 1379 474 1401 c 0,50,51
 448 1425 448 1425 417 1426 c 0,38,39
418 1524 m 0,52,53
 491 1524 491 1524 543 1471 c 0,54,55
 596 1416 596 1416 596 1343 c 0,56,57
 596 1267 596 1267 543 1214 c 0,58,59
 489 1160 489 1160 416 1160 c 256,60,61
 343 1160 343 1160 289 1214 c 0,62,63
 236 1267 236 1267 236 1343 c 0,64,65
 236 1417 236 1417 289 1471 c 0,66,67
 342 1524 342 1524 418 1524 c 0,52,53
735 1527 m 1,68,-1
 855 1470 l 1,69,-1
 706 1160 l 1,70,-1
 696 1160 l 1,71,-1
 578 1216 l 1,72,-1
 725 1527 l 1,73,-1
 735 1527 l 1,68,-1
EndSplineSet
Validated: 1
EndChar

